<?xml version="1.0" encoding="UTF-8"?>
<svg width="59px" height="35px" viewBox="0 0 59 35" version="1.1" xmlns="http://www.w3.org/2000/svg" xmlns:xlink="http://www.w3.org/1999/xlink">
    <!-- Generator: Sketch 55.2 (78181) - https://sketchapp.com -->
    <title>icon-cash</title>
    <desc>Created with Sketch.</desc>
    <g id="Page-1" stroke="none" stroke-width="1" fill="none" fill-rule="evenodd">
        <g id="icon-cash">
            <rect id="Rectangle" stroke="#A1E061" stroke-width="2" fill="#B8E986" x="1" y="1" width="57" height="33" rx="2"></rect>
            <g id="Group-2" transform="translate(18.000000, 6.000000)">
                <circle id="Oval" stroke="#61952D" cx="12" cy="12" r="12"></circle>
                <g id="Group" transform="translate(8.193370, 3.699448)">
                    <path d="M0.198895028,12.2320442 C0.106076884,12.1127066 0.0497238564,11.9701666 0.0298342541,11.8044199 C0.00994465193,11.6386732 0.0265190718,11.4828737 0.079558011,11.3370166 C0.13259695,11.1911595 0.218783934,11.0685088 0.338121547,10.9690608 C0.45745916,10.8696128 0.603314055,10.8198895 0.775690608,10.8198895 C0.908287956,10.8198895 1.04088331,10.8662979 1.17348066,10.959116 C1.30607801,11.0519342 1.45193291,11.1646402 1.61104972,11.2972376 C1.77016654,11.4298349 1.94917028,11.5723749 2.1480663,11.7248619 C2.34696232,11.8773488 2.57237443,12.0198888 2.82430939,12.1524862 L3.18232044,12.3314917 L3.20220994,8.6121547 C2.95027498,8.49281708 2.63867589,8.34696219 2.26740331,8.17458564 C1.89613074,8.00220908 1.54475304,7.78674162 1.21325967,7.5281768 C0.881766298,7.26961197 0.596686276,6.96464264 0.35801105,6.61325967 C0.119335823,6.2618767 1.13686838e-13,5.86077573 1.13686838e-13,5.40994475 C1.13686838e-13,5.05193191 0.0729274475,4.70386909 0.21878453,4.36574586 C0.364641613,4.02762262 0.573479304,3.71933841 0.845303867,3.44088398 C1.11712843,3.16242955 1.45193171,2.93038767 1.84972376,2.74475138 C2.2475158,2.55911509 2.69834002,2.4331495 3.20220994,2.36685083 L3.20220994,1.69060773 C3.20220994,1.23977675 3.24861832,0.845305558 3.34143646,0.50718232 C3.43425461,0.169059083 3.66629649,-2.84217094e-14 4.03756906,-2.84217094e-14 C4.3955819,-2.84217094e-14 4.62099401,0.155799547 4.71381215,0.467403315 C4.8066303,0.779007083 4.85303867,1.1469592 4.85303867,1.57127072 C4.85303867,1.7171278 4.84972379,1.85635293 4.84309392,1.98895028 C4.83646406,2.12154762 4.83314917,2.26077275 4.83314917,2.40662983 C5.00552572,2.4331493 5.24751225,2.49281722 5.55911602,2.58563536 C5.87071979,2.6784535 6.18231888,2.79447444 6.49392265,2.93370166 C6.80552642,3.07292887 7.07403202,3.23867307 7.29944751,3.43093923 C7.52486301,3.62320538 7.63756906,3.83867284 7.63756906,4.07734807 C7.63756906,4.27624409 7.56464161,4.45193294 7.41878453,4.60441989 C7.27292745,4.75690684 7.08066418,4.83314917 6.84198895,4.83314917 C6.68287213,4.83314917 6.51049817,4.80000033 6.32486188,4.73370166 C6.13922559,4.66740298 5.95359209,4.59447554 5.7679558,4.51491713 C5.58231951,4.43535872 5.40663066,4.3558015 5.24088398,4.27624309 C5.07513729,4.19668469 4.93922705,4.13701677 4.83314917,4.09723757 C4.81988944,4.6806659 4.81657455,5.25745571 4.82320442,5.82762431 C4.82983429,6.39779291 4.8265194,6.98121249 4.81325967,7.57790055 C5.23757118,7.73701737 5.66187633,7.90276157 6.08618785,8.07513812 C6.51049936,8.24751467 6.8950259,8.45966725 7.23977901,8.71160221 C7.58453211,8.96353717 7.86629725,9.26187673 8.08508287,9.60662983 C8.3038685,9.95138294 8.41325967,10.3624286 8.41325967,10.839779 C8.41325967,11.3966879 8.3038685,11.8674014 8.08508287,12.2519337 C7.86629725,12.636466 7.58453211,12.9580098 7.23977901,13.2165746 C6.8950259,13.4751394 6.50718448,13.6773473 6.07624309,13.8232044 C5.64530171,13.9690615 5.21768168,14.0817676 4.79337017,14.161326 L4.79337017,14.8475138 C4.79337017,15.0795592 4.79999993,15.3149159 4.81325967,15.5535912 C4.74696099,15.8055261 4.63756982,15.9911596 4.48508287,16.1104972 C4.33259592,16.2298349 4.17016661,16.2895028 3.99779006,16.2895028 C3.75911483,16.2895028 3.58342598,16.2198902 3.47071823,16.080663 C3.35801049,15.9414358 3.28176815,15.7657469 3.24198895,15.5535912 C3.20220975,15.3414354 3.18232044,15.1027638 3.18232044,14.8375691 C3.18232044,14.5723744 3.17569067,14.3204432 3.16243094,14.081768 L3.14254144,14.0618785 C2.73148966,13.9558006 2.37679707,13.8430945 2.07845304,13.7237569 C1.78010901,13.6044193 1.52154806,13.468509 1.30276243,13.3160221 C1.08397681,13.1635351 0.888398652,12.997791 0.716022099,12.8187845 C0.543645547,12.6397781 0.37127158,12.4442 0.198895028,12.2320442 Z M4.81325967,9.26850829 C4.81325967,9.81215741 4.80994478,10.3491686 4.80331492,10.879558 C4.79668505,11.4099474 4.79337017,11.9403288 4.79337017,12.4707182 C5.01878566,12.4441988 5.24419777,12.3878457 5.46961326,12.3016575 C5.69502875,12.2154692 5.96021947,12.0861887 6.26519337,11.9138122 C6.5038686,11.7149161 6.64972349,11.4828743 6.70276243,11.2176796 C6.75580137,10.9524849 6.68950369,10.6872941 6.5038674,10.4220994 C6.23867271,10.196684 5.98342664,9.99447603 5.73812155,9.81546961 C5.49281645,9.63646319 5.18453224,9.45414457 4.81325967,9.26850829 Z" id="$" fill="#61952D" fill-rule="nonzero"></path>
                    <path d="M3.20220994,4.07734807 L3.20220994,6.90165746 C2.8044179,6.70276144 2.45635508,6.45414514 2.15801105,6.1558011 C1.85966702,5.85745707 1.71049724,5.51602402 1.71049724,5.13149171 C1.77679591,4.94585543 1.86961266,4.79337076 1.98895028,4.67403315 C2.10828789,4.55469554 2.23756836,4.45524902 2.37679558,4.37569061 C2.5160228,4.2961322 2.65856281,4.23646429 2.80441989,4.19668508 C2.95027697,4.15690588 3.08287233,4.11712727 3.20220994,4.07734807 Z" id="Path" fill="#B8E986"></path>
                </g>
            </g>
            <circle id="Oval" fill="#61952D" cx="8.5" cy="17.5" r="2.5"></circle>
            <circle id="Oval-Copy" fill="#61952D" cx="51.5" cy="16.5" r="2.5"></circle>
        </g>
    </g>
</svg>