<?xml version="1.0" encoding="utf-8"?>
<!-- Generator: Adobe Illustrator 23.0.4, SVG Export Plug-In . SVG Version: 6.00 Build 0)  -->
<svg version="1.1" id="Capa_1" xmlns="http://www.w3.org/2000/svg" xmlns:xlink="http://www.w3.org/1999/xlink" x="0px" y="0px"
	 viewBox="0 0 402 402" style="enable-background:new 0 0 402 402;" xml:space="preserve">
<style type="text/css">
	.st0{fill-rule:evenodd;clip-rule:evenodd;fill:#C6C6C5;}
	.st1{fill-rule:evenodd;clip-rule:evenodd;fill:#ECECEC;}
	.st2{fill:#C6C6C5;}
	.st3{fill:#ECECEC;}
</style>
<g>
	<g>
		<g>
			<polygon class="st0" points="120.74,322.64 276.58,45.58 285.96,50.77 130.13,327.83 			"/>
			<path class="st0" d="M302.1,231.96c-0.64-1.93-0.63-4.02,0.45-5.92c5.47-1.69,44.37-46.14,58.16-67.41
				c-3.63,56.95,19.74,33.74,33.26,59l0.38,0.53l-0.54,1.66c-6.51,18.97-14.89,37.9-24.53,56.79l-3.99,7.64l-0.43-1.44
				c-4.3-11.99-17.3-17.95-33.86-26.46C311.1,247.35,305.4,242.11,302.1,231.96z"/>
			<path class="st1" d="M305.17,238.74l8.14-9.66l-0.69-1.06c-0.99-1.82-1.85-3.76-2.55-5.87l-0.55-1.89l2.48-2.47
				c1.16-1.19,2.39-2.47,3.68-3.85l3.22-3.48l0.08,0.49c0.33,1.65,0.78,3.22,1.32,4.69l1.57,3.32l7.54-8.92l-1.67-2.63l-2.06-4.51
				l2.84-3.22l5.19-6.12l0.4,1.82c0.43,1.38,0.96,2.68,1.57,3.93l1.14,1.97l8.58-10.17l-0.5-1.78c-0.45-2-0.7-4.12-0.71-6.36
				l0.09-2.23l2.3-2.84c1.42-1.79,2.8-3.56,4.12-5.29l2.96-3.93l-0.27,1.92c-0.38,3.4-0.44,6.51-0.24,9.35l0.19,1.79l7.1-8.4
				l0.14,3.15c0.08,1.22,0.17,2.37,0.3,3.46l0.42,3.1l-5.46,8.1l0.35,0.93c1.29,2.73,2.93,5.1,4.8,7.2l2.41,2.4l3.28-5.4l1.72,1.84
				c1.62,1.44,3.4,2.49,5.29,3.43l0.9,0.41l-3.17,5.68l2.71,1.63c2.36,1.36,4.75,2.61,7.05,3.85l0.34,0.2l3.2-6.2l0.86,0.57
				c1,0.71,1.99,1.54,2.95,2.48l2.51,2.91l-2.16,4.72l1.64,1.17c0.89,0.71,1.7,1.45,2.46,2.23l0.24,0.32l-3.27,8.88l-0.96-1.03
				c-0.62-0.56-1.26-1.12-1.97-1.68l-2-1.47l-3.89,8.46l2.09,1.88c1,1,1.95,2.03,2.83,3.11l0.16,0.22l-3.45,8.37l-0.12,0.26
				l-1.81-2.15c-0.8-0.84-1.69-1.66-2.62-2.45l-0.98-0.77l-5.46,11.88l2.74,2.99l2.27,3.36l-0.48,1.06l-4.17,8.47l-0.86-1.98
				c-0.63-1.09-1.35-2.12-2.16-3.09l-1.58-1.59l-5.85,12.71l-1.57-2.14c-1.04-1.19-2.19-2.32-3.45-3.41l-3.65-2.8l5.55-10.77
				l-2.67-1.4c-1.33-0.65-2.71-1.29-4.11-1.92l-5.15-2.21l-5.2,9.4l-4.35-2.27c-1.96-1.01-3.97-2.02-6.03-3.09l-0.57-0.27l5.25-8.67
				l-1.41-0.64c-2.89-1.45-5.71-3.03-8.39-4.82l-2.91-2.16l-6.24,9.25l-2.74-1.69c-4.09-2.77-6.81-5.47-8.78-8.57L305.17,238.74z
				 M330.22,229.04l1.06,0.94c2.42,1.93,5.05,3.68,7.81,5.32l2.9,1.64l6.35-10.48l-2.26-1.3c-2.46-1.52-4.86-3.15-7.1-4.93
				l-1.79-1.53L330.22,229.04z M352.15,242.31l8.36,4.51l2.81,1.73l5.63-10.93l-0.33-0.21c-2.36-1.35-4.81-2.64-7.33-3.95
				l-3.29-1.72L352.15,242.31z M343.45,209.43l2.88,2.49c1.13,0.89,2.29,1.74,3.48,2.58l4.17,2.65l4.78-7.89l-2.22-1.75
				c-1.76-1.53-3.41-3.18-4.88-4.93l-1.92-2.5L343.45,209.43z M363.06,222.61l2.12,1.23c2.63,1.52,5.22,3.07,7.72,4.69l0.55,0.37
				l3.9-7.53l-3.39-2.01c-1.95-1.14-3.96-2.33-5.95-3.57l-0.84-0.55L363.06,222.61z"/>
			<path class="st0" d="M313.23,228.9l8.54-10.1l2.3,3.74c0.98,1.34,2.07,2.59,3.25,3.78l2.82,2.54l-7.28,10.79l-0.17-0.12
				c-2.69-2.11-5.14-4.5-7.25-7.25L313.23,228.9z M335.56,247.25l6.36-10.5l2.5,1.39l7.62,3.97l-5.55,10.01l-1.16-0.51
				c-3.12-1.33-6.29-2.69-9.4-4.18L335.56,247.25z M329.33,209.83l7.39-8.75l1.59,2.58c0.92,1.28,1.94,2.48,3.04,3.62l2.05,1.93
				l-6.31,9.33l-0.06-0.06c-2.47-2.13-4.73-4.46-6.69-7.1L329.33,209.83z M358.43,257.64l4.81-9.29l4.13,2.82
				c1.33,1.01,2.59,2.04,3.77,3.14l0.5,0.54l-4.24,9.19l-1.51-1.48c-2.12-1.8-4.6-3.38-7.29-4.85L358.43,257.64z M348.25,226.3
				l5.61-9.28l3.38,2.08l5.73,3.33l-5.06,9.15l-8.71-4.7L348.25,226.3z M347.67,196.76c-0.34-0.64-0.67-1.29-0.97-1.96
				c-0.41-0.89-0.78-1.8-1.09-2.74l-0.32-1.13l7.92-9.37l0,0.12c0.4,3.34,1.19,6.28,2.29,8.91l0.18,0.39l-6.01,8.92L347.67,196.76z
				 M368.86,237.46l4.48-8.69l1.59,0.99c1.39,0.95,2.73,1.94,4.03,2.97l2.05,1.77l-3.9,8.45l-2.85-2.14
				c-1.19-0.83-2.46-1.63-3.76-2.41L368.86,237.46z M358.64,209.15l4.66-7.71l1.75,1.63c1.32,1.08,2.69,2.08,4.1,3.02l2.16,1.34
				l-4.23,7.62l-1-0.61c-2.44-1.57-4.85-3.24-7.13-5.03L358.64,209.15z M377.24,221.2l4.16-8.07l0.7,0.38
				c1.4,0.76,2.74,1.53,4.03,2.32l2.62,1.78l-3.87,8.44l-1.35-0.96c-1.01-0.68-2.06-1.35-3.16-2.02L377.24,221.2z"/>
			<path class="st0" d="M337.31,233.21c-6.71,13.13-24.1-13.92-34.93-7.11c22.11-17.54,33.52-51.47,43.47-80.46l3.83,24.86
				L337.31,233.21z"/>
			<path class="st1" d="M302.38,226.1c9.67-7.68,17.3-18.48,23.65-30.65l0.43-0.84l0.1,0.04c5.09,3.3,9.32,10.28,14.9,11.43
				l0.38,4.15l-0.56,2.89l-0.92,0.27c-4.03,0.67-7.99-2.29-11.96-5.59l-0.65-0.54l-0.3,0.53c-0.64,1.11-1.3,2.2-1.98,3.27
				l-1.59,2.41l0.56,0.47c1.63,1.42,3.19,3.08,4.79,4.61l1.13,1.01l0.92-1.39c1.11-1.76,2.17-3.55,3.22-5.37l5.12,8.78l-0.2,1.02
				l-2.21,3.54l-0.08,0.11l0.38,4c-1.16,0.5-2.31,0.67-3.45,0.58l-0.32-0.06l-0.92,1.09c-0.79,0.9-1.61,1.74-2.47,2.55l-1.86,1.61
				l-0.05-0.02c-2.19-0.89-4.57-2.37-7.02-3.99l-1.14-0.73l1.5-1.29c0.74-0.68,1.45-1.39,2.13-2.11l1.35-1.53l-1.44-1.18
				c-1.7-1.41-3.4-2.88-5.12-4.16l-0.43-0.31l-2.34,2.46c-0.94,0.91-1.93,1.81-2.95,2.68l-0.85,0.66l-0.64-0.32
				C308.21,224.81,305.09,224.39,302.38,226.1z"/>
			<path class="st0" d="M311.23,217.63l1.21-1.4c1.04-1.22,2.04-2.48,3.01-3.77l1.44-2l1.59,0.13c1.75,0.36,3.36,1.27,4.92,2.47
				l0.48,0.42l0,0l0.17,0.15l-0.51,0.77c-1.46,2.1-3.04,4.12-4.75,6.06l-0.35,0.37l-0.19-0.13l-0.01,0.01l-1.09-0.77
				c-1.71-1.12-3.44-1.96-5.17-2.26L311.23,217.63z M325.42,226.48l0.64-0.72c1.3-1.55,2.52-3.18,3.68-4.87l0.79-1.2l1.28,1.16
				c1.66,1.33,3.36,2.36,5.22,2.74l0.22,2.45l-0.07,0.11l-0.08,0.11l0.03,0.35l-1.16,1.66c-0.48,0.65-0.97,1.29-1.46,1.92
				l-0.55,0.64l-0.25-0.05l-0.07,0.1l-1.15-0.21c-2.29-0.64-4.56-2.17-6.82-3.96L325.42,226.48z M321.95,202.71l1.64-2.76l0.94-1.71
				l4.98,6.35l-1.58,2.81l-2.75-2.29c-0.86-0.69-1.71-1.36-2.57-1.96L321.95,202.71z"/>
			<path class="st0" d="M217.07,151.34c27.92-25.83,48.87-58.32,57.9-102.21c4.44,2.33,8.81,4.66,13.09,6.99l0.83,0.45l0.77,0.42
				l3.29,1.82l7.69,4.25l1.6,0.92l1.46,0.81l3.27,1.9l5.67,3.26l2.3,1.39l2.04,1.19l2.78,1.72l4.24,2.56l2.95,1.89l2.48,1.53
				l2.15,1.44l3.09,1.98l3.5,2.41l2.76,1.85l1.52,1.11l2.11,1.44l4.03,3.03l2.83,2.07l0.92,0.75l1.25,0.95l4.7,3.91l2.48,2.04
				l0.41,0.39l0.55,0.46l6.97,6.59l0.2,0.18l0.06,0.06l6.09,6.72c11.2,13.59,15.8,27.21,11.47,41.12
				c-29.59,27.8-40.02,51.34-49.26,74.56c0.89-14.65-6.43-26.33-19.44-36.53l-4.6-3.29l-2.37-1.69l-8.48-5.12l-2.91-1.55l-6.46-3.37
				l-3.85-1.84l-6.4-2.96l-4.36-1.9l-6.69-2.83l-4.67-1.92l-7.14-2.83l-4.81-1.87l-7.86-2.99l-4.59-1.73L217.07,151.34z"/>
			<path class="st1" d="M225.02,143.5l2.2-2.16c3.26-3.45,6.39-7.01,9.42-10.69l1.58-2.1l13.44,3.76l0.52-0.69
				c2.49-3.42,4.91-6.87,7.26-10.31l3.53-5.4l-6.99-1.88l-6.41-1.5l3.53-5.52L259,95.93l13.46,4.72l0.12-0.18
				c2.02-3.5,3.96-7.02,5.81-10.55l2.08-4.22l-8.31-2.97l-6.4-2.07l0.28-0.66c1.83-4.81,3.51-9.77,5-14.92l0.24-1l15.82,7.21
				l1.18-2.72l3.7-10.29l0.98,0.54l7.69,4.25l1.6,0.92l1.46,0.81l2.31,1.34l-5.23,11.66l5.03,2.43l11.13,5.85l2.13-4.93l2.16-6
				l2.77,1.68l2.95,1.89l2.48,1.53l2.15,1.44l3.03,1.95l-4.48,10l4.96,2.94l10.2,7.13l2.05-4.75l1.81-5.02l2.25,1.64l0.92,0.75
				l1.25,0.95l4.7,3.91l2.48,2.04l0.41,0.39l0.54,0.43l-4.29,9.57l2.1,1.91c3.54,3.44,6.79,7.04,9.71,10.82l1.07,1.51l5.66-9
				l2.95,3.88c2.38,3.4,4.34,6.8,5.82,10.22l0.53,1.48l-1.04,1.31l-5.22,7.09l0.88,1.87c0.89,2.2,1.68,4.45,2.37,6.75l2.1,9.46
				l-6.21,6.21l-1.84-5.63c-0.82-2.11-1.73-4.2-2.72-6.26l-1.48-2.79l-8,11.91l2.43,4.8l2.98,7.55l-1.89,2.17l-5.03,6.63l-2.84-5.94
				l-2.53-4.12l-3,4.87l-4.71,8.24l1.97,2.84l3.18,5.72l-0.42,0.63c-1.86,3.07-3.57,6.1-5.15,9.1l-2.14,4.32l-1.84-3.39
				c-0.74-1.21-1.54-2.44-2.42-3.69l-0.99-1.32l-7.33,14.07l-1.63-3.47c-1.68-3-3.78-5.88-6.28-8.64l-2.84-2.83l7.15-11.35
				l-2.82-2.63c-1.59-1.41-3.28-2.82-5.05-4.24l-2.68-2.01l-7.29,11.64l-2.08-1.49l-8.48-5.12l-2.91-1.55l-4.23-2.2l0.37-0.46
				l8.7-11.38l-0.14-0.08c-2.39-1.39-4.9-2.75-7.51-4.09l-5.09-2.47l-8.06,12.86l-0.77-0.35l-4.36-1.9l-6.69-2.83l-4.67-1.92
				l-3.3-1.3l3.59-4.34l6.05-7.92l-3.29-1.26l-9.57-3.2l-7.79,12.42l-5.49-2.09l-4.59-1.73l-10.23-3.82l4.11-4.97l4.02-5.27
				l-3.52-0.88L225.02,143.5z M269.2,137.96l2.8,0.94l11.54,4.52l6.7-9.53l4.7-7.19l-8.2-3.21l-7.75-2.71L269.2,137.96z
				 M299.92,150.68l1.32,0.61l12.74,6.86l4.54-6.45l6.19-9.44l-5.99-3.78c-2.27-1.35-4.63-2.67-7.09-3.98l-1.93-0.96L299.92,150.68z
				 M286.81,106.18l5.93,2.38l10.43,4.83l0.23-0.36c2.02-3.5,3.96-7.02,5.81-10.55l1.83-3.69l-1.05-0.55
				c-2.84-1.4-5.75-2.78-8.74-4.12l-6.78-2.92L286.81,106.18z M328.54,167.88l7.54,5.94l3.3,3.08l8.91-14.13l-2.14-2.48
				c-1.42-1.54-2.92-3.08-4.49-4.59l-4.07-3.68L328.54,167.88z M316.76,120.44l3.74,2.03l11.63,7.52l5.35-9.68l2.07-4.22l-6.22-4.41
				c-2.35-1.57-4.78-3.12-7.29-4.65l-1.88-1.08L316.76,120.44z M344.28,139.71l8.41,8.35l2.77,3.34l7.88-12.51l-1.01-1.36
				c-3.04-3.74-6.4-7.36-10.1-10.87l-0.88-0.79L344.28,139.71z"/>
			<path class="st0" d="M240.71,146.57l6.51-8.36l4.46-6.18l4.43,1.25l13.11,4.5l-2.93,5.14l-5.72,9.12l-9.07-2.75L240.71,146.57z
				 M273.57,156.5l4.47-5.73l5.55-7.68l3.62,1.46c3.26,1.37,6.43,2.78,9.54,4.24l3.27,1.62l-2.9,5.08l-5.46,8.7l-3.73-1.82
				c-3.51-1.6-7.2-3.16-11.05-4.66L273.57,156.5z M263.01,115.68l3.32-5.02l6.15-10.3l4.88,1.72l9.49,3.91l-4.35,8.53l-3.43,6.02
				l-9.64-3.1L263.01,115.68z M304.49,170.92l1.82-2.34l7.76-10.72l0.23,0.14c2.74,1.62,5.39,3.27,7.93,4.96l6.44,4.57l-3.28,5.77
				l-5.05,8.07l-5.29-3.88c-2.53-1.72-5.23-3.46-8.07-5.16L304.49,170.92z M295,126.45l2.14-3.23l6.06-10.17l4.07,1.92
				c3.08,1.55,6.09,3.12,9.01,4.76l0.6,0.36l-3.57,6.99l-3.54,6.22l-6.33-3.18L295,126.45z M330.88,190.26l8.57-13.6l2.65,2.52
				c1.85,1.91,3.57,3.87,5.15,5.85l2.34,3.26l-4.54,7.99l-3.22,6.17l-3.43-4.37c-1.39-1.64-2.92-3.31-4.57-5.01L330.88,190.26z
				 M280.54,85.45l1.49-2.87L287.17,71l2.99,1.37l10.7,5.21l-3.67,8.18l-2.64,5.17l-9.85-3.98L280.54,85.45z M324.76,142.02
				l0.66-0.98l6.77-11.36l0.5,0.33c2.54,1.81,4.99,3.68,7.32,5.6l4.36,3.82l-2.78,5.45l-3.93,6.88l-1.69-1.51
				c-2.16-1.81-4.46-3.59-6.89-5.34L324.76,142.02z M311.07,98.55l1.78-3.41l4.17-9.42l4,2.14l9.27,5.36l-2.29,5.1l-3.77,7.37
				l-6.51-3.75L311.07,98.55z M348.38,162.5l7.13-11.33l2.62,3.23c1.67,2.28,3.21,4.62,4.63,7.03l1.44,2.73l-4.13,6.43l-2.68,4.42
				l-1.03-1.79c-1.26-2.01-2.63-3.98-4.1-5.95L348.38,162.5z M339.6,115.86l1.52-2.91l4.26-9.6l2.78,2
				c2.72,2.09,5.33,4.26,7.84,6.48l1.53,1.5l-1.26,2.8l-4.81,9.44l-7.31-6.3L339.6,115.86z M363.45,138.58l6.95-11.01l4.3,6.29
				c1.63,2.7,3.09,5.48,4.37,8.35l0.08,0.22l-3.15,4.24l-3.78,5.48l-3.44-6.04c-1.53-2.41-3.19-4.79-4.99-7.12L363.45,138.58z"/>
			<path class="st0" d="M302.44,233.56c-0.63-1.36-1.15-2.79-1.24-4.13c-0.11-1.57,0.55-3.22,1.99-4.04
				c0.56-0.33,1.19-0.56,1.8-0.66c0.88-0.15,1.73-0.09,2.59,0.06c1.12,0.2,2.26,0.58,3.36,1.04c1.99,0.84,3.85,1.88,5.67,2.96
				c2.91,1.71,5.71,3.56,8.7,5.19c1.89,1.03,4.07,2.1,6.21,2.4c1.21,0.17,2.62,0.04,3.66-0.85c0.35-0.3,0.64-0.66,0.89-1.04
				l0.72-1.49l0.26-2.07c0.37-4.95-0.85-10.05-3.19-15.12c-0.36-0.8-0.75-1.56-1.15-2.31c-0.56-1.04-1.15-2.05-1.76-3.02
				c-2.86-4.5-6.34-8.19-10.19-11.52c6.33,5.24,12.03,11.68,15.17,20.51c0.26,0.74,0.5,1.48,0.71,2.23c0.28,1,0.52,2.01,0.72,3.01
				c0.24,1.34,0.4,2.69,0.45,4.02c0.04,1.15,0,2.31-0.15,3.44c-0.06,0.42-0.09,0.83-0.24,1.25c-0.6,1.6-1.58,2.99-3.34,3.56
				c-0.22,0.07-0.44,0.12-0.64,0.16c-2.11,0.35-4.3-0.48-6.28-1.4c-2.01-0.92-3.88-2.05-5.71-3.2c-2.4-1.48-4.74-3-7.18-4.39
				c-2.1-1.22-4.54-2.53-6.98-2.94c-0.88-0.16-1.76-0.2-2.67,0.02c-0.26,0.06-0.5,0.14-0.76,0.25c-0.13,0.05-0.22,0.1-0.33,0.15
				c-0.02,0.01-0.06,0.03-0.08,0.04c-0.02,0.02-0.06,0.03-0.08,0.05l-0.06,0.03l-0.66,0.52c-0.21,0.18-0.38,0.39-0.53,0.62
				c-0.49,0.7-0.67,1.56-0.65,2.36c0.03,2.1,1.14,4.41,2.17,6.42c0.65,1.3,1.33,2.56,2.02,3.84
				C304.55,237.54,303.43,235.63,302.44,233.56z"/>
			<path class="st1" d="M364.15,192.95c-0.48-0.92-0.87-1.83-1.16-2.75c-0.53-1.66-0.84-3.33-0.96-4.98c0.43,2.39,1,4.78,2.27,7.16
				c3.49,6.57,10.2,8.93,16.25,12.13c4.8,2.54,9.22,5.64,12.14,10.71c0.55,0.94,1.01,1.93,1.46,2.92c-0.92-1.64-1.83-3.23-2.94-4.59
				c-2-2.45-4.24-4.53-6.82-6.15c-1.7-1.06-3.46-2.05-5.26-2.96C373.47,201.54,367.34,199.07,364.15,192.95z"/>
			<path class="st0" d="M365,283.45c11.59-20.38,21.24-42.18,29.04-65.37l0.63,0.21c-7.81,23.23-17.48,45.07-29.1,65.49L365,283.45z
				"/>
			<path class="st0" d="M303.13,235.92c-0.3-0.65-0.54-1.3-0.75-1.98l0.65-0.21c6.56,21.38,55.57,26.16,62.94,50.06l-0.64,0.19
				C358.37,261.39,312.07,255.93,303.13,235.92z"/>
			<path class="st0" d="M274.34,49.43l0.31-0.6l0.31,0.16l0.23-0.43c68.73,36.31,124.47,72.99,111.84,110.56l-0.42-0.14l-0.12,0.41
				l-0.63-0.21C398.26,122.29,343.38,85.91,274.34,49.43z"/>
		</g>
		<g>
			<polygon class="st0" points="281.92,322.64 126.08,45.58 116.69,50.77 272.53,327.83 			"/>
			<path class="st0" d="M100.56,231.96c0.64-1.93,0.63-4.02-0.45-5.92c-5.47-1.69-44.37-46.14-58.16-67.41
				c3.63,56.95-19.74,33.74-33.26,59l-0.38,0.53l0.54,1.66c6.51,18.97,14.89,37.9,24.53,56.79l3.99,7.64l0.43-1.44
				c4.3-11.99,17.3-17.95,33.86-26.46C91.56,247.35,97.26,242.11,100.56,231.96z"/>
			<path class="st1" d="M97.46,238.79c-1.97,3.1-4.68,5.8-8.78,8.57l-2.74,1.69l-6.24-9.25l-2.91,2.16
				c-2.67,1.79-5.49,3.37-8.39,4.82l-1.41,0.64l5.25,8.67l-0.57,0.27c-2.07,1.07-4.07,2.08-6.03,3.09l-4.35,2.27l-5.2-9.4
				l-5.15,2.21c-1.4,0.63-2.78,1.27-4.11,1.92l-2.67,1.4l5.55,10.77l-3.65,2.8c-1.26,1.09-2.41,2.22-3.45,3.41l-1.57,2.14
				l-5.85-12.71l-1.58,1.59c-0.81,0.97-1.53,1.99-2.16,3.09l-0.85,1.98l-4.17-8.47l-0.48-1.06l2.27-3.36l2.74-2.99l-5.46-11.88
				l-0.98,0.77c-0.93,0.79-1.81,1.61-2.62,2.45l-1.81,2.15l-0.12-0.26l-3.45-8.37l0.16-0.22c0.88-1.07,1.83-2.11,2.83-3.11
				l2.09-1.88l-3.89-8.46l-2,1.47c-0.71,0.56-1.35,1.12-1.97,1.68l-0.96,1.03l-3.27-8.88l0.24-0.32c0.76-0.78,1.57-1.52,2.46-2.23
				l1.64-1.17l-2.16-4.72l2.51-2.91c0.96-0.94,1.95-1.76,2.95-2.48l0.86-0.57l3.2,6.2l0.34-0.2c2.3-1.24,4.69-2.49,7.05-3.85
				l2.71-1.63l-3.17-5.68l0.9-0.41c1.88-0.94,3.67-1.99,5.29-3.43l1.72-1.84l3.28,5.4l2.41-2.4c1.87-2.11,3.51-4.47,4.8-7.2
				l0.35-0.93l-5.46-8.1l0.42-3.1c0.13-1.09,0.22-2.24,0.3-3.46l0.14-3.15l7.1,8.4l0.19-1.79c0.19-2.84,0.13-5.94-0.24-9.35
				l-0.27-1.92l2.96,3.93c1.32,1.73,2.7,3.5,4.12,5.29l2.3,2.84l0.09,2.23c-0.01,2.24-0.26,4.36-0.71,6.36l-0.5,1.78l8.58,10.17
				l1.14-1.97c0.61-1.26,1.14-2.56,1.57-3.93l0.4-1.82l5.19,6.12l2.84,3.22l-2.06,4.51l-1.67,2.63l7.54,8.92l1.57-3.32
				c0.54-1.47,0.99-3.04,1.32-4.69l0.08-0.49l3.22,3.48c1.29,1.38,2.52,2.65,3.68,3.85l2.48,2.47l-0.55,1.89
				c-0.7,2.11-1.57,4.05-2.55,5.87l-0.69,1.06l8.14,9.66L97.46,238.79z M65.45,218.69l-1.79,1.53c-2.25,1.78-4.64,3.41-7.1,4.93
				l-2.26,1.3l6.35,10.48l2.9-1.64c2.76-1.64,5.4-3.38,7.81-5.32l1.06-0.94L65.45,218.69z M44.66,231.75l-3.29,1.72
				c-2.52,1.31-4.97,2.61-7.33,3.95l-0.33,0.21l5.63,10.93l2.81-1.73l8.36-4.51L44.66,231.75z M52.9,200.08l-1.92,2.5
				c-1.47,1.75-3.12,3.4-4.88,4.93l-2.22,1.75l4.78,7.89l4.17-2.65c1.2-0.84,2.35-1.69,3.48-2.58l2.88-2.49L52.9,200.08z
				 M35.48,215.23l-0.84,0.55c-1.99,1.25-3.99,2.43-5.95,3.57l-3.39,2.01l3.9,7.53l0.55-0.37c2.5-1.62,5.09-3.16,7.72-4.69
				l2.12-1.23L35.48,215.23z"/>
			<path class="st0" d="M87.22,232.28c-2.11,2.75-4.56,5.14-7.25,7.25l-0.17,0.12l-7.28-10.79l2.82-2.54
				c1.18-1.19,2.27-2.45,3.25-3.78l2.3-3.74l8.54,10.1L87.22,232.28z M66.73,247.44c-3.11,1.49-6.28,2.84-9.4,4.18l-1.16,0.51
				l-5.55-10.01l7.62-3.97l2.5-1.39l6.36,10.5L66.73,247.44z M72.32,211.39c-1.96,2.63-4.22,4.97-6.69,7.1l-0.06,0.06l-6.31-9.33
				l2.05-1.93c1.1-1.14,2.11-2.34,3.04-3.62l1.59-2.58l7.39,8.75L72.32,211.39z M44.04,257.73c-2.69,1.46-5.17,3.05-7.29,4.85
				l-1.51,1.48l-4.24-9.19l0.5-0.54c1.18-1.1,2.44-2.13,3.77-3.14l4.13-2.82l4.81,9.29L44.04,257.73z M53.45,226.88l-8.71,4.7
				l-5.06-9.15l5.73-3.33l3.38-2.08l5.61,9.28L53.45,226.88z M52.98,199.9l-6.01-8.92l0.18-0.39c1.1-2.63,1.89-5.58,2.29-8.91
				l0-0.12l7.92,9.37l-0.32,1.13c-0.31,0.94-0.69,1.85-1.09,2.74c-0.3,0.68-0.63,1.32-0.97,1.96L52.98,199.9z M32.16,238.4
				c-1.3,0.78-2.57,1.58-3.76,2.41l-2.85,2.14l-3.9-8.45l2.05-1.77c1.29-1.03,2.64-2.02,4.03-2.97l1.59-0.99l4.48,8.69L32.16,238.4z
				 M43.7,209.42c-2.28,1.79-4.69,3.46-7.13,5.03l-1,0.61l-4.23-7.62l2.16-1.34c1.41-0.94,2.78-1.94,4.1-3.02l1.75-1.63l4.66,7.71
				L43.7,209.42z M22.26,223.06c-1.1,0.68-2.15,1.35-3.16,2.02l-1.35,0.96l-3.87-8.44l2.62-1.78c1.29-0.79,2.63-1.55,4.03-2.32
				l0.7-0.38l4.16,8.07L22.26,223.06z"/>
			<path class="st0" d="M65.34,233.21c6.71,13.13,24.1-13.92,34.93-7.11c-22.11-17.54-33.52-51.47-43.47-80.46l-3.83,24.86
				L65.34,233.21z"/>
			<path class="st1" d="M100.27,226.1c-9.67-7.68-17.3-18.48-23.65-30.65l-0.43-0.84l-0.1,0.04c-5.09,3.3-9.32,10.28-14.9,11.43
				l-0.38,4.15l0.56,2.89l0.92,0.27c4.03,0.67,7.99-2.29,11.96-5.59l0.65-0.54l0.3,0.53c0.64,1.11,1.3,2.2,1.98,3.27l1.59,2.41
				l-0.56,0.47c-1.63,1.42-3.19,3.08-4.79,4.61l-1.13,1.01l-0.92-1.39c-1.11-1.76-2.17-3.55-3.22-5.37l-5.12,8.78l0.2,1.02
				l2.21,3.54l0.08,0.11l-0.38,4c1.16,0.5,2.31,0.67,3.45,0.58l0.32-0.06l0.92,1.09c0.79,0.9,1.61,1.74,2.47,2.55l1.86,1.61
				l0.05-0.02c2.19-0.89,4.57-2.37,7.02-3.99l1.14-0.73l-1.5-1.29c-0.74-0.68-1.45-1.39-2.13-2.11l-1.35-1.53l1.44-1.18
				c1.7-1.41,3.4-2.88,5.12-4.16l0.43-0.31l2.34,2.46c0.94,0.91,1.93,1.81,2.95,2.68l0.85,0.66l0.64-0.32
				C94.45,224.81,97.57,224.39,100.27,226.1z"/>
			<path class="st0" d="M90.68,217.68c-1.74,0.31-3.46,1.15-5.17,2.26l-1.09,0.77l-0.01-0.01l-0.19,0.13l-0.35-0.37
				c-1.71-1.94-3.29-3.96-4.75-6.06l-0.51-0.77l0.17-0.15l0,0l0.48-0.42c1.56-1.2,3.17-2.11,4.92-2.47l1.59-0.13l1.44,2
				c0.97,1.29,1.97,2.55,3.01,3.77l1.21,1.4L90.68,217.68z M76.97,226.7c-2.26,1.79-4.53,3.31-6.82,3.96L69,230.87l-0.07-0.1
				l-0.25,0.05l-0.55-0.64c-0.49-0.63-0.98-1.27-1.46-1.92l-1.16-1.66l0.03-0.35l-0.08-0.11l-0.07-0.11l0.22-2.45
				c1.86-0.38,3.57-1.41,5.22-2.74l1.28-1.16l0.79,1.2c1.16,1.69,2.38,3.32,3.68,4.87l0.64,0.72L76.97,226.7z M80.04,203.15
				c-0.85,0.61-1.7,1.27-2.57,1.96l-2.75,2.29l-1.58-2.81l4.98-6.35l0.94,1.71l1.64,2.76L80.04,203.15z"/>
			<path class="st0" d="M185.58,151.34c-27.92-25.83-48.87-58.32-57.9-102.21c-4.44,2.33-8.81,4.66-13.09,6.99l-0.83,0.45
				l-0.77,0.42l-3.29,1.82L102,63.06l-1.6,0.92l-1.46,0.81l-3.27,1.9l-5.67,3.26l-2.3,1.39l-2.04,1.19l-2.78,1.72l-4.24,2.56
				l-2.95,1.89l-2.48,1.53l-2.15,1.44l-3.09,1.98l-3.5,2.41l-2.76,1.85l-1.52,1.11l-2.11,1.44l-4.03,3.03l-2.83,2.07L50.3,96.3
				l-1.25,0.95l-4.7,3.91l-2.48,2.04l-0.41,0.39l-0.55,0.46l-6.97,6.59l-0.2,0.18l-0.06,0.06l-6.09,6.72
				c-11.2,13.59-15.8,27.21-11.47,41.12c29.59,27.8,40.02,51.34,49.26,74.56c-0.89-14.65,6.43-26.33,19.44-36.53l4.6-3.29l2.37-1.69
				l8.48-5.12l2.91-1.55l6.46-3.37l3.85-1.84l6.4-2.96l4.36-1.9l6.69-2.83l4.67-1.92l7.14-2.83l4.81-1.87l7.86-2.99l4.59-1.73
				L185.58,151.34z"/>
			<path class="st1" d="M165.61,145.94l-3.52,0.88l4.02,5.27l4.11,4.97L160,160.87l-4.59,1.73l-5.49,2.09l-7.79-12.42l-9.57,3.2
				l-3.29,1.26l6.05,7.92l3.59,4.34l-3.3,1.3l-4.67,1.92l-6.69,2.83l-4.36,1.9l-0.77,0.35l-8.06-12.86l-5.09,2.47
				c-2.61,1.34-5.11,2.7-7.51,4.09l-0.14,0.08l8.7,11.38l0.37,0.46l-4.23,2.2l-2.91,1.55l-8.48,5.12l-2.08,1.49l-7.29-11.64
				l-2.68,2.01c-1.78,1.42-3.46,2.83-5.05,4.24l-2.82,2.63l7.15,11.35l-2.84,2.83c-2.51,2.76-4.6,5.64-6.28,8.64l-1.63,3.47
				l-7.33-14.07l-0.99,1.32c-0.88,1.25-1.69,2.49-2.42,3.69l-1.84,3.39l-2.14-4.32c-1.58-3-3.29-6.03-5.15-9.1l-0.42-0.63l3.18-5.72
				l1.97-2.84l-4.71-8.24l-3-4.87l-2.53,4.12l-2.84,5.94L35,178.84l-1.89-2.17l2.98-7.55l2.43-4.8l-8-11.91l-1.48,2.79
				c-0.99,2.06-1.9,4.14-2.72,6.26l-1.84,5.63l-6.21-6.21l2.1-9.46c0.69-2.3,1.47-4.55,2.37-6.75l0.88-1.87l-5.22-7.09l-1.04-1.31
				l0.53-1.48c1.48-3.42,3.44-6.82,5.82-10.22l2.95-3.88l5.66,9l1.07-1.51c2.92-3.77,6.17-7.38,9.71-10.82l2.1-1.91l-4.29-9.57
				l0.54-0.43l0.41-0.39l2.48-2.04l4.7-3.91l1.25-0.95l0.92-0.75l2.25-1.64l1.81,5.02l2.05,4.75l10.2-7.13l4.96-2.94l-4.48-10
				l3.03-1.95l2.15-1.44l2.48-1.53l2.95-1.89l2.77-1.68l2.16,6l2.13,4.93l11.13-5.85l5.03-2.43l-5.23-11.66l2.31-1.34l1.46-0.81
				l1.6-0.92l7.69-4.25l0.98-0.54l3.7,10.29l1.18,2.72l15.82-7.21l0.24,1c1.49,5.15,3.17,10.11,5,14.92l0.28,0.66l-6.4,2.07
				l-8.31,2.97l2.08,4.22c1.85,3.53,3.79,7.05,5.81,10.55l0.12,0.18l13.46-4.72l5.89,11.09l3.53,5.52l-6.41,1.5l-6.99,1.88l3.53,5.4
				c2.35,3.44,4.77,6.89,7.26,10.31l0.52,0.69l13.44-3.76l1.58,2.1c3.02,3.68,6.16,7.23,9.42,10.69l2.2,2.16L165.61,145.94z
				 M123.66,120.79l-7.75,2.71l-8.2,3.21l4.7,7.19l6.7,9.53l11.54-4.52l2.8-0.94L123.66,120.79z M92.96,133.54l-1.93,0.96
				c-2.46,1.31-4.82,2.64-7.09,3.98l-5.99,3.78l6.19,9.44l4.54,6.45l12.74-6.86l1.32-0.61L92.96,133.54z M108.2,91.2l-6.78,2.92
				c-2.99,1.34-5.9,2.72-8.74,4.12l-1.05,0.55l1.83,3.69c1.85,3.53,3.79,7.05,5.81,10.55l0.23,0.36l10.43-4.83l5.93-2.38L108.2,91.2
				z M65.06,152.02l-4.07,3.68c-1.57,1.51-3.07,3.05-4.49,4.59l-2.14,2.48l8.91,14.13l3.3-3.08l7.54-5.94L65.06,152.02z
				 M78.5,105.94l-1.88,1.08c-2.51,1.53-4.94,3.07-7.29,4.65l-6.22,4.41l2.07,4.22l5.35,9.68l11.63-7.52l3.74-2.03L78.5,105.94z
				 M51.3,125.86l-0.88,0.79c-3.7,3.51-7.07,7.13-10.1,10.87l-1.01,1.36l7.88,12.51l2.77-3.34l8.41-8.35L51.3,125.86z"/>
			<path class="st0" d="M151.14,149.3l-9.07,2.75l-5.72-9.12l-2.93-5.14l13.11-4.5l4.43-1.25l4.46,6.18l6.51,8.36L151.14,149.3z
				 M125.78,157.71c-3.85,1.5-7.54,3.06-11.05,4.66l-3.73,1.82l-5.46-8.7l-2.9-5.08l3.27-1.62c3.11-1.46,6.28-2.87,9.54-4.24
				l3.62-1.46l5.55,7.68l4.47,5.73L125.78,157.71z M133.22,117.44l-9.64,3.1l-3.43-6.02l-4.35-8.53l9.49-3.91l4.88-1.72l6.15,10.3
				l3.32,5.02L133.22,117.44z M95.67,172.33c-2.84,1.7-5.53,3.44-8.07,5.16l-5.29,3.88l-5.05-8.07l-3.28-5.77l6.44-4.57
				c2.55-1.69,5.19-3.34,7.93-4.96l0.23-0.14l7.76,10.72l1.82,2.34L95.67,172.33z M99.22,130.11l-6.33,3.18l-3.54-6.22l-3.57-6.99
				l0.6-0.36c2.91-1.64,5.93-3.21,9.01-4.76l4.07-1.92l6.06,10.17l2.14,3.23L99.22,130.11z M68.83,193.07
				c-1.65,1.71-3.18,3.37-4.57,5.01l-3.43,4.37l-3.22-6.17l-4.54-7.99l2.34-3.26c1.58-1.98,3.3-3.94,5.15-5.85l2.65-2.52l8.57,13.6
				L68.83,193.07z M117.96,86.95l-9.85,3.98l-2.64-5.17l-3.67-8.18l10.7-5.21l2.99-1.37l5.13,11.58l1.49,2.87L117.96,86.95z
				 M73.57,144.93c-2.43,1.75-4.73,3.53-6.89,5.34l-1.69,1.51l-3.93-6.88l-2.78-5.45l4.36-3.82c2.33-1.92,4.79-3.78,7.32-5.6
				l0.5-0.33l6.77,11.36l0.66,0.98L73.57,144.93z M84.93,101.94l-6.51,3.75l-3.77-7.37l-2.29-5.1l9.27-5.36l4-2.14l4.17,9.42
				l1.78,3.41L84.93,101.94z M50.38,167.27c-1.47,1.97-2.83,3.94-4.1,5.95l-1.03,1.79l-2.68-4.42l-4.13-6.43l1.44-2.73
				c1.42-2.41,2.96-4.75,4.63-7.03l2.62-3.23l7.13,11.33L50.38,167.27z M58.5,119.27l-7.31,6.3l-4.81-9.44l-1.26-2.8l1.53-1.5
				c2.5-2.22,5.11-4.39,7.84-6.48l2.78-2l4.26,9.6l1.52,2.91L58.5,119.27z M38.86,138.99c-1.8,2.32-3.46,4.7-4.99,7.12l-3.44,6.04
				l-3.78-5.48l-3.15-4.24l0.08-0.22c1.28-2.87,2.74-5.66,4.37-8.35l4.3-6.29l6.95,11.01L38.86,138.99z"/>
			<path class="st0" d="M100.21,233.56c0.63-1.36,1.15-2.79,1.24-4.13c0.11-1.57-0.55-3.22-1.99-4.04c-0.56-0.33-1.19-0.56-1.8-0.66
				c-0.88-0.15-1.73-0.09-2.59,0.06c-1.12,0.2-2.26,0.58-3.36,1.04c-1.99,0.84-3.85,1.88-5.67,2.96c-2.91,1.71-5.71,3.56-8.7,5.19
				c-1.89,1.03-4.07,2.1-6.21,2.4c-1.21,0.17-2.62,0.04-3.66-0.85c-0.35-0.3-0.64-0.66-0.89-1.04l-0.72-1.49l-0.26-2.07
				c-0.37-4.95,0.85-10.05,3.19-15.12c0.36-0.8,0.75-1.56,1.15-2.31c0.56-1.04,1.15-2.05,1.76-3.02c2.86-4.5,6.34-8.19,10.19-11.52
				c-6.33,5.24-12.03,11.68-15.17,20.51c-0.26,0.74-0.5,1.48-0.71,2.23c-0.28,1-0.52,2.01-0.72,3.01c-0.24,1.34-0.4,2.69-0.45,4.02
				c-0.04,1.15,0,2.31,0.15,3.44c0.06,0.42,0.09,0.83,0.24,1.25c0.6,1.6,1.58,2.99,3.34,3.56c0.22,0.07,0.44,0.12,0.64,0.16
				c2.11,0.35,4.3-0.48,6.28-1.4c2.01-0.92,3.88-2.05,5.71-3.2c2.4-1.48,4.74-3,7.18-4.39c2.1-1.22,4.54-2.53,6.98-2.94
				c0.88-0.16,1.76-0.2,2.67,0.02c0.26,0.06,0.5,0.14,0.76,0.25c0.13,0.05,0.22,0.1,0.33,0.15c0.02,0.01,0.06,0.03,0.08,0.04
				c0.02,0.02,0.06,0.03,0.08,0.05l0.06,0.03l0.66,0.52c0.21,0.18,0.38,0.39,0.53,0.62c0.49,0.7,0.67,1.56,0.65,2.36
				c-0.03,2.1-1.14,4.41-2.17,6.42c-0.65,1.3-1.33,2.56-2.02,3.84C98.11,237.54,99.23,235.63,100.21,233.56z"/>
			<path class="st1" d="M38.51,192.95c0.48-0.92,0.87-1.83,1.16-2.75c0.53-1.66,0.84-3.33,0.96-4.98c-0.43,2.39-1,4.78-2.27,7.16
				c-3.49,6.57-10.2,8.93-16.25,12.13c-4.8,2.54-9.22,5.64-12.14,10.71c-0.55,0.94-1.01,1.93-1.46,2.92
				c0.92-1.64,1.83-3.23,2.94-4.59c2-2.45,4.24-4.53,6.82-6.15c1.7-1.06,3.46-2.05,5.26-2.96
				C29.18,201.54,35.32,199.07,38.51,192.95z"/>
			<path class="st0" d="M37.65,283.45c-11.59-20.38-21.24-42.18-29.04-65.37l-0.63,0.21c7.81,23.23,17.48,45.07,29.1,65.49
				L37.65,283.45z"/>
			<path class="st0" d="M99.52,235.92c0.3-0.65,0.54-1.3,0.75-1.98l-0.65-0.21c-6.56,21.38-55.57,26.16-62.94,50.06l0.64,0.19
				C44.29,261.39,90.58,255.93,99.52,235.92z"/>
			<path class="st0" d="M128.32,49.43l-0.31-0.6l-0.31,0.16l-0.23-0.43C58.73,84.87,2.99,121.55,15.62,159.12l0.42-0.14l0.12,0.41
				l0.63-0.21C4.39,122.29,59.27,85.91,128.32,49.43z"/>
		</g>
	</g>
	<g>
		<g>
			<path class="st2" d="M201.37,353.27l-1.77-0.78c-0.45-0.2-45.79-20.42-94.78-59.7l-3.05-2.45l2.09-3.31
				c40.17-63.81-12.03-152.82-12.56-153.71l-1.71-2.87l22.29-23.29h179.01l22.29,23.29l-1.71,2.87
				c-0.13,0.22-13.51,22.87-21.62,53.19c-7.38,27.58-11.79,67.41,9.06,100.52l2.08,3.31l-3.05,2.45c-49,39.28-94.33,59.5-94.78,59.7
				L201.37,353.27z"/>
		</g>
	</g>
	<g>
		<path class="st3" d="M115.24,287.04c40.56,31.97,77.78,50.19,86.13,54.1c8.34-3.91,45.57-22.13,86.13-54.1
			c-15.74-27.32-18.46-62.48-7.84-102.01c6.66-24.79,16.52-44.08,20.38-51.12l-14.8-15.46H117.5l-14.8,15.46
			c3.86,7.04,13.72,26.33,20.38,51.12C133.7,224.56,130.98,259.72,115.24,287.04z"/>
	</g>
	<g>
		<path class="st2" d="M269.75,218.5h1.95c-0.03-2.55-0.2-5.07-0.49-7.55l-1.94,0.26l-0.21-1.62l1.95-0.26
			c-0.36-2.52-0.84-4.99-1.46-7.42l-1.91,0.51l-0.42-1.58l1.9-0.51c-0.68-2.44-1.5-4.83-2.43-7.16l-1.82,0.75l-0.62-1.51l1.83-0.76
			c-1-2.33-2.13-4.58-3.36-6.77l-1.7,0.98l-0.81-1.41l1.7-0.98c-1.29-2.17-2.69-4.28-4.2-6.29l-1.56,1.2l-0.99-1.3l1.55-1.19
			c-1.56-1.98-3.22-3.88-4.98-5.68l-1.38,1.38l-1.15-1.15l1.38-1.38c-1.8-1.76-3.7-3.42-5.68-4.98l-1.19,1.55l-1.3-0.99l1.2-1.56
			c-2.01-1.51-4.12-2.91-6.29-4.2l-0.98,1.7l-1.41-0.82l0.98-1.7c-2.19-1.23-4.45-2.36-6.77-3.36l-0.76,1.83l-1.51-0.63l0.75-1.82
			c-2.33-0.93-4.72-1.75-7.16-2.43l-0.51,1.9l-1.57-0.42l0.51-1.92c-2.42-0.62-4.9-1.1-7.42-1.46l-0.26,1.95l-1.62-0.21l0.26-1.94
			c-2.48-0.29-4.99-0.46-7.54-0.49v1.96h-1.63v-1.96c-2.55,0.03-5.06,0.2-7.54,0.49l0.26,1.94l-1.62,0.21l-0.26-1.95
			c-2.52,0.36-4.99,0.84-7.42,1.46l0.51,1.92l-1.58,0.42l-0.51-1.9c-2.44,0.68-4.83,1.49-7.16,2.43l0.76,1.82l-1.51,0.62l-0.76-1.83
			c-2.33,1-4.58,2.13-6.77,3.36l0.98,1.7l-1.41,0.82l-0.99-1.71c-2.17,1.29-4.27,2.69-6.29,4.2l1.2,1.57l-1.29,1l-1.19-1.55
			c-1.98,1.56-3.88,3.22-5.68,4.98l1.38,1.38l-1.15,1.15l-1.38-1.38c-1.76,1.8-3.42,3.7-4.98,5.68l1.55,1.19l-0.99,1.29l-1.57-1.2
			c-1.51,2.01-2.91,4.12-4.2,6.29l1.71,0.99l-0.82,1.41l-1.7-0.98c-1.23,2.19-2.36,4.45-3.36,6.77l1.83,0.76l-0.62,1.51l-1.82-0.75
			c-0.93,2.33-1.74,4.72-2.43,7.16l1.9,0.51l-0.42,1.58l-1.92-0.51c-0.62,2.42-1.1,4.9-1.46,7.42l1.95,0.26l-0.21,1.62l-1.94-0.26
			c-0.29,2.48-0.46,4.99-0.49,7.54h1.96v1.63h-1.96c0.03,2.55,0.2,5.06,0.49,7.54l1.94-0.26l0.21,1.62l-1.95,0.26
			c0.36,2.52,0.84,4.99,1.46,7.42l1.92-0.51l0.42,1.58l-1.9,0.51c0.68,2.44,1.49,4.83,2.43,7.16l1.82-0.75l0.62,1.51l-1.83,0.76
			c1,2.33,2.12,4.58,3.36,6.77l1.7-0.98l0.82,1.41l-1.71,0.99c1.29,2.17,2.69,4.28,4.2,6.29l1.57-1.2l0.99,1.3l-1.55,1.19
			c1.56,1.98,3.22,3.88,4.98,5.68l1.38-1.38l1.15,1.15l-1.38,1.38c1.8,1.76,3.7,3.42,5.68,4.98l1.19-1.55l1.29,1l-1.2,1.57
			c2.01,1.51,4.12,2.91,6.29,4.2l0.99-1.71l1.41,0.82l-0.98,1.7c2.19,1.23,4.45,2.36,6.77,3.36l0.76-1.84l1.51,0.63l-0.75,1.82
			c2.33,0.93,4.72,1.74,7.16,2.43l0.51-1.9l1.58,0.42l-0.51,1.92c2.42,0.62,4.9,1.1,7.42,1.46l0.26-1.95l1.62,0.21l-0.26,1.94
			c2.48,0.29,4.99,0.46,7.54,0.49v-1.95h1.63v1.95c2.55-0.03,5.06-0.2,7.54-0.49l-0.26-1.94l1.62-0.21l0.26,1.95
			c2.52-0.36,5-0.84,7.42-1.46l-0.51-1.91l1.57-0.42l0.51,1.9c2.44-0.68,4.83-1.49,7.16-2.43l-0.75-1.82l1.51-0.63l0.76,1.83
			c2.33-1,4.58-2.13,6.77-3.36l-0.98-1.7l1.41-0.82l0.98,1.7c2.17-1.29,4.28-2.69,6.29-4.2l-1.2-1.56l1.3-1l1.19,1.55
			c1.98-1.56,3.88-3.22,5.68-4.98l-1.38-1.38l1.15-1.15l1.38,1.38c1.76-1.8,3.42-3.7,4.98-5.68l-1.55-1.19l0.99-1.3l1.56,1.2
			c1.51-2.01,2.91-4.12,4.2-6.29l-1.7-0.98l0.81-1.41l1.7,0.98c1.23-2.19,2.36-4.45,3.36-6.77l-1.83-0.76l0.63-1.51l1.82,0.75
			c0.93-2.33,1.74-4.72,2.43-7.16l-1.9-0.51l0.42-1.58l1.92,0.51c0.62-2.42,1.1-4.9,1.46-7.42l-1.95-0.26l0.21-1.62l1.94,0.26
			c0.29-2.48,0.46-4.99,0.49-7.54h-1.95V218.5z M192.18,177.33c0.45,4.12,1.1,9.75,1.81,14.81c0.49,3.47,0.96,6.23,1.38,8.24
			l-0.37,0.14l0.1,0.32c0.02,0.05,1.07,4.38-2.02,6.27c-3.02,1.85-5.95,1.09-5.96,1.08l-0.21-0.13l-0.29,0.23
			c-1.61-1-4.37-2.51-9.13-4.83c-4.46-2.17-9.39-4.42-13.01-6.05C170.46,187.36,180.42,179.93,192.18,177.33z M238.46,197.42
			c-3.62,1.63-8.55,3.88-13.01,6.05c-4.76,2.32-7.52,3.83-9.13,4.83l-0.29-0.23l-0.21,0.13c-0.02,0.01-3.72,0.3-5.76-0.94
			c-3.1-1.88-2.25-6.36-2.23-6.42l0.1-0.32l-0.37-0.14c0.43-2.01,0.89-4.77,1.38-8.24c0.72-5.06,1.37-10.69,1.81-14.81
			C222.52,179.94,232.48,187.36,238.46,197.42z M201.47,262.31c-6.11,0-11.92-1.29-17.19-3.59c1.98-3.45,4.68-8.23,7.04-12.66
			c1.74-3.26,2.91-5.63,3.71-7.36l0.35,0.16l0.13-0.35c0.02-0.06,2.27-4.55,5.95-4.55c3.67,0,5.93,4.49,5.95,4.55l0.13,0.35
			l0.35-0.16c0.8,1.73,1.97,4.1,3.71,7.36c2.36,4.43,5.06,9.21,7.04,12.66C213.39,261.02,207.58,262.31,201.47,262.31z
			 M181.52,219.18l-0.03,0.38l0.37,0.01c0.06,0,4.35,0.59,5.54,4.03c1.19,3.44-1.61,6.5-1.65,6.53l-0.24,0.2l0.2,0.32
			c-1.46,1.29-3.55,3.31-6.61,6.49c-3.49,3.62-7.18,7.64-9.86,10.59c-6.7-7.58-10.78-17.54-10.78-28.43c0-1.42,0.07-2.83,0.21-4.21
			C165.3,216.48,175.65,218.54,181.52,219.18z M223.84,237.14c-3.06-3.18-5.16-5.19-6.61-6.49l0.2-0.32l-0.24-0.2
			c-0.04-0.03-2.81-3.22-1.62-6.66c1.19-3.44,5.45-3.91,5.5-3.91l0.37-0.01l-0.03-0.38c5.88-0.64,16.22-2.7,22.84-4.08
			c0.14,1.39,0.21,2.79,0.21,4.21c0,10.89-4.08,20.84-10.78,28.42C231.02,244.78,227.32,240.75,223.84,237.14z M201.47,279.04
			c-15.96,0-30.96-6.21-42.24-17.5c-11.28-11.28-17.5-26.28-17.5-42.24h4.13c0,14.85,5.78,28.81,16.29,39.32
			c10.5,10.5,24.46,16.29,39.32,16.29c9.07,0,18.04-2.21,25.94-6.39l1.93,3.65C220.85,276.67,211.21,279.04,201.47,279.04z
			 M256.84,241.8l-3.83-1.55c2.69-6.63,4.06-13.67,4.06-20.93c0-14.85-5.78-28.82-16.29-39.32c-10.5-10.5-24.46-16.29-39.32-16.29
			c-9.84,0-19.48,2.58-27.89,7.47l-2.08-3.57c9.03-5.26,19.39-8.03,29.96-8.03c15.96,0,30.96,6.21,42.24,17.5
			c11.28,11.28,17.5,26.28,17.5,42.24C261.2,227.11,259.74,234.67,256.84,241.8z"/>
	</g>
	<g>
		<path class="st2" d="M147.61,139.04c-2.64-1.33-5.29-2.02-7.93-2.51c-1.62-0.29-3.24-0.47-4.85-0.57
			c-0.11-1.62-0.29-3.23-0.58-4.85c-0.49-2.64-1.18-5.29-2.5-7.93c-1.32,2.64-2.01,5.29-2.5,7.93c-0.29,1.62-0.47,3.24-0.58,4.85
			c-1.62,0.11-3.24,0.29-4.85,0.58c-2.64,0.5-5.29,1.18-7.93,2.5c2.64,1.32,5.29,2.01,7.93,2.5c1.62,0.29,3.23,0.47,4.85,0.58
			c0.11,1.62,0.29,3.24,0.57,4.85c0.49,2.64,1.18,5.29,2.51,7.93c1.33-2.64,2.02-5.29,2.51-7.93c0.29-1.62,0.47-3.23,0.57-4.85
			c1.62-0.11,3.23-0.29,4.85-0.57C142.32,141.05,144.96,140.37,147.61,139.04z"/>
	</g>
	<g>
		<path class="st2" d="M286.37,139.04c-2.64-1.33-5.29-2.02-7.93-2.51c-1.62-0.29-3.24-0.47-4.85-0.57
			c-0.11-1.62-0.29-3.23-0.58-4.85c-0.49-2.64-1.18-5.29-2.5-7.93c-1.32,2.64-2.01,5.29-2.5,7.93c-0.29,1.62-0.47,3.24-0.58,4.85
			c-1.62,0.11-3.24,0.29-4.85,0.58c-2.64,0.5-5.29,1.18-7.93,2.5c2.64,1.32,5.29,2.01,7.93,2.5c1.62,0.29,3.23,0.47,4.85,0.58
			c0.11,1.62,0.29,3.24,0.57,4.85c0.49,2.64,1.18,5.29,2.51,7.93c1.33-2.64,2.02-5.29,2.51-7.93c0.29-1.62,0.47-3.23,0.57-4.85
			c1.62-0.11,3.23-0.29,4.85-0.57C281.08,141.05,283.72,140.37,286.37,139.04z"/>
	</g>
</g>
</svg>
