<?xml version="1.0" encoding="utf-8"?>
<!-- Generator: Adobe Illustrator 23.0.4, SVG Export Plug-In . SVG Version: 6.00 Build 0)  -->
<svg version="1.1" id="Capa_1" xmlns="http://www.w3.org/2000/svg" xmlns:xlink="http://www.w3.org/1999/xlink" x="0px" y="0px"
	 viewBox="0 0 402 402" style="enable-background:new 0 0 402 402;" xml:space="preserve">
<style type="text/css">
	.st0{fill:#C6C6C5;}
	.st1{fill:#ECECEC;}
</style>
<g>
	<g>
		<g>
			<g>
				<path class="st0" d="M396.2,62.66c-0.95-2.16-2.65-4.57-4.71-7.03c-4.11-4.92-9.63-10.05-13.41-13.38
					c-2.38-2.1-6.21-5.46-8.07-7.1c-4.93-4.34-13.21-11.22-19.63-14.2c-2.15-0.99-4.1-1.57-5.78-1.4c-0.95,0.1-1.84,0.49-2.48,1.21
					c-5.45,6.18-8.49,9.63-8.49,9.63l-0.56,0.63c7.14,3.53,37.88,19.85,52.9,46.27c0.18,0.19,0.85,1.59,0.85,1.59l0.79-0.89
					c0,0,3.04-3.45,8.49-9.63c0.65-0.73,0.92-1.66,0.89-2.63C396.97,64.77,396.68,63.75,396.2,62.66z"/>
			</g>
			<g>
				<path class="st0" d="M385.99,77.3c0.14,0.24,0.85,1.59,0.85,1.59l0.79-0.89"/>
			</g>
			<g>
				<g>
					<path class="st0" d="M332.19,32.04l-3.1,3.52c0,0,1.5,0.66,1.69,0.76c5.5,2.66,37.01,18.78,51.44,45.4
						c0.14,0.17,0.26,0.35,0.31,0.45c0.03,0.05,0.04,0.06,0.04,0.06l0.49,0.94l2.87-3.25C371.33,52.23,338.73,35.24,332.19,32.04z"
						/>
				</g>
				<g>
					<path class="st0" d="M329.85,37.33c-0.25,0-0.53,0-0.86,0.02c-1.11,0.03-2.62,0.38-4.02,2l-18.14,20.57
						c-8.26,9.37-16.2,18.36-16.2,18.36l-0.09,0.1l-0.05,0.13c-0.01,0.05-0.13,0.38-0.14,0.86c-0.01,0.47,0.13,1.15,0.71,1.67l0,0
						c0.58,0.51,1.45,0.74,2.69,0.67c2.65-0.16,3.53,0.36,3.65,0.44l0,0l1.05-0.06c0,0,0.02-0.02,0.05-0.06
						c0.12-0.1,0.27-0.21,0.44-0.35c0.74-0.58,1.91-1.43,3.08-2.06c1.16-0.64,2.33-0.99,2.91-0.76c1.92,0.67,10.63,4.3,14.88,7.27
						L104.39,326.07l-0.01,0.01c0,0-0.02,0.03-0.08,0.09c-0.34,0.39-1.79,1.92-4.11,3.06c-2.31,1.13-5.46,1.9-9.35,0.83
						c-0.28-0.13-1.57-0.74-3.14-1.29c-1.77-0.61-3.82-1.21-5.38-0.88c-0.45,0.1-0.88,0.3-1.21,0.67
						c-1.65,1.88-18.65,21.54-18.66,21.55c-0.03,0.04-0.42,0.51-0.67,1.23c-0.2,0.56-0.27,1.38,0.15,2.12l-0.12,0.13l0.01,0.01
						c-0.24,0.35-0.37,0.76-0.4,1.19c-0.03,0.5,0.1,1.07,0.56,1.48l2.88,2.54c0.57,0.5,1.34,0.6,1.99,0.33
						c0.49,5.4,2.97,10.66,7.38,14.54l0,0c0.02,0.02,0.03,0.03,0.03,0.03s0.01,0.01,0.04,0.03c4.45,3.93,10.05,5.74,15.52,5.5
						c-0.25,0.71-0.06,1.53,0.54,2.06l2.88,2.54c0.47,0.4,1.05,0.46,1.54,0.37c0.42-0.08,0.81-0.26,1.13-0.54l0.01,0.01l0.17-0.19
						l0,0c0.73,0.23,1.46,0.07,1.95-0.18c0.69-0.33,1.1-0.78,1.15-0.82c0,0,17.39-19.32,19.04-21.19c0.32-0.37,0.47-0.82,0.51-1.28
						c0.05-0.46,0-0.94-0.1-1.44c-0.2-0.99-0.62-2.06-1.09-3.05c-0.84-1.8-1.83-3.38-2.03-3.68c-1.54-3.73-1.18-6.94-0.35-9.38
						c0.84-2.44,2.18-4.07,2.53-4.46c0.06-0.06,0.08-0.09,0.08-0.09l0.01-0.01L333.31,97.94c3.51,3.45,8.77,12.6,9.73,14.54
						c0.3,0.54,0.1,1.75-0.39,2.98c-0.48,1.23-1.18,2.5-1.66,3.31c-0.32,0.54-0.54,0.87-0.54,0.88l0,0l0,0l0.34,0.77c0,0,0,0,0,0
						c0.01,0.02,0.04,0.05,0.07,0.09c0.06,0.09,0.16,0.26,0.26,0.52c0.21,0.52,0.45,1.44,0.55,2.95c0.08,1.23,0.42,2.07,1,2.58
						c0.58,0.51,1.28,0.56,1.74,0.5c0.48-0.06,0.79-0.22,0.84-0.24l0.12-0.06l0.09-0.1c0,0,31.74-35.99,34.34-38.93
						c1.07-1.2,1.44-2.36,1.5-3.33c0.04-0.73-0.06-1.35-0.12-1.81C366.65,55.5,334.06,39.33,329.85,37.33z M99.98,362.2
						c-2.07,2.34-4.89,3.62-7.79,3.79c-2.9,0.17-5.87-0.76-8.23-2.84c-2.36-2.08-3.66-4.91-3.85-7.81c-0.19-2.9,0.72-5.86,2.79-8.2
						c2.07-2.35,4.89-3.62,7.79-3.79c2.9-0.17,5.87,0.76,8.23,2.84c2.36,2.08,3.66,4.91,3.85,7.81
						C102.96,356.9,102.05,359.86,99.98,362.2z M342.52,86.36c-6.4,0-11.58-5.19-11.58-11.58s5.19-11.58,11.58-11.58
						c6.4,0,11.58,5.19,11.58,11.58S348.92,86.36,342.52,86.36z"/>
				</g>
			</g>
		</g>
		<g>
			<g>
				<path class="st0" d="M5.7,62.66c0.95-2.16,2.65-4.57,4.71-7.03c4.11-4.92,9.63-10.05,13.41-13.38c2.38-2.1,6.21-5.46,8.07-7.1
					c4.93-4.34,13.21-11.22,19.63-14.2c2.15-0.99,4.1-1.57,5.78-1.4c0.95,0.1,1.84,0.49,2.48,1.21c5.45,6.18,8.49,9.63,8.49,9.63
					l0.56,0.63c-7.14,3.53-37.88,19.85-52.9,46.27c-0.18,0.19-0.85,1.59-0.85,1.59L14.29,78c0,0-3.04-3.45-8.49-9.63
					c-0.65-0.73-0.92-1.66-0.89-2.63C4.93,64.77,5.23,63.75,5.7,62.66z"/>
			</g>
			<g>
				<path class="st0" d="M15.92,77.3c-0.14,0.24-0.85,1.59-0.85,1.59L14.29,78"/>
			</g>
			<g>
				<g>
					<path class="st0" d="M69.72,32.04l3.1,3.52c0,0-1.5,0.66-1.69,0.76c-5.5,2.66-37.01,18.78-51.44,45.4
						c-0.14,0.17-0.26,0.35-0.31,0.45c-0.03,0.05-0.04,0.06-0.04,0.06l-0.49,0.94l-2.87-3.25C30.58,52.23,63.17,35.24,69.72,32.04z"
						/>
				</g>
				<g>
					<path class="st0" d="M20.71,82.57c-0.05,0.47-0.15,1.08-0.12,1.81c0.05,0.98,0.43,2.14,1.5,3.33
						c2.6,2.94,34.34,38.93,34.34,38.93l0.09,0.1l0.12,0.06c0.04,0.02,0.36,0.18,0.84,0.24c0.46,0.07,1.16,0.02,1.74-0.5
						c0.58-0.51,0.92-1.35,1-2.58c0.1-1.51,0.34-2.43,0.55-2.95c0.11-0.26,0.2-0.42,0.26-0.52c0.03-0.05,0.06-0.08,0.07-0.09
						c0,0,0,0,0,0l0.34-0.77l0,0l0,0c0,0-0.22-0.34-0.54-0.88c-0.48-0.81-1.18-2.08-1.66-3.31c-0.49-1.23-0.69-2.44-0.39-2.98
						c0.96-1.94,6.22-11.09,9.73-14.54l215.48,239.99l0.01,0.01c0,0,0.02,0.03,0.08,0.09c0.35,0.39,1.68,2.02,2.53,4.46
						c0.83,2.43,1.2,5.65-0.35,9.38c-0.19,0.31-1.19,1.88-2.03,3.68c-0.46,1-0.88,2.06-1.09,3.05c-0.1,0.5-0.15,0.98-0.1,1.44
						c0.04,0.46,0.19,0.91,0.51,1.28c1.66,1.88,19.04,21.19,19.04,21.19c0.04,0.04,0.46,0.49,1.15,0.82
						c0.49,0.25,1.21,0.41,1.95,0.18l0,0l0.17,0.19l0.01-0.01c0.32,0.28,0.71,0.46,1.13,0.54c0.49,0.09,1.07,0.03,1.54-0.37
						l2.88-2.54c0.6-0.53,0.79-1.35,0.54-2.06c5.48,0.24,11.07-1.57,15.52-5.5c0.02-0.02,0.04-0.03,0.04-0.03s0.01-0.01,0.03-0.03
						l0,0c4.41-3.89,6.89-9.14,7.38-14.54c0.65,0.27,1.43,0.17,1.99-0.33l2.88-2.54c0.46-0.41,0.59-0.98,0.56-1.48
						c-0.03-0.42-0.16-0.83-0.4-1.19l0.01-0.01l-0.12-0.13c0.42-0.75,0.35-1.57,0.15-2.12c-0.24-0.72-0.64-1.19-0.67-1.23
						c-0.01-0.01-17-19.67-18.66-21.55c-0.32-0.37-0.76-0.57-1.21-0.67c-1.56-0.33-3.61,0.27-5.38,0.88
						c-1.56,0.55-2.86,1.16-3.14,1.29c-3.89,1.07-7.04,0.31-9.35-0.83c-2.32-1.14-3.76-2.67-4.11-3.06
						c-0.06-0.07-0.08-0.09-0.08-0.09l-0.01-0.01L82.09,86.14c4.24-2.97,12.96-6.6,14.88-7.27c0.57-0.23,1.75,0.12,2.91,0.76
						c1.17,0.63,2.34,1.48,3.08,2.06c0.17,0.13,0.32,0.25,0.44,0.35c0.03,0.04,0.05,0.06,0.05,0.06l1.05,0.06l0,0
						c0.12-0.08,1-0.59,3.65-0.44c1.23,0.07,2.1-0.16,2.69-0.67l0,0c0.58-0.51,0.72-1.2,0.71-1.67c0-0.48-0.12-0.81-0.14-0.86
						l-0.05-0.13l-0.09-0.1c0,0-7.94-9-16.2-18.36L76.93,39.35c-1.4-1.62-2.91-1.97-4.02-2c-0.33-0.01-0.61-0.01-0.86-0.02
						C67.84,39.33,35.26,55.5,20.71,82.57z M299.14,354c0.19-2.9,1.49-5.73,3.85-7.81c2.36-2.08,5.33-3.01,8.23-2.84
						c2.9,0.17,5.72,1.44,7.79,3.79c2.07,2.35,2.98,5.3,2.79,8.2c-0.19,2.9-1.49,5.73-3.85,7.81c-2.36,2.08-5.33,3.02-8.23,2.84
						c-2.91-0.17-5.72-1.44-7.79-3.79C299.86,359.86,298.95,356.9,299.14,354z M47.8,74.78c0-6.4,5.19-11.58,11.58-11.58
						c6.4,0,11.58,5.19,11.58,11.58s-5.19,11.58-11.58,11.58C52.99,86.36,47.8,81.17,47.8,74.78z"/>
				</g>
			</g>
		</g>
	</g>
	<g>
		<path class="st0" d="M209.55,383.46l-4.57-3.99C109.21,295.8,101.6,206.73,101.6,99v-2.47l1.56-1.92
			c5.9-7.23,22.01-13.92,47.89-19.9c21.1-4.87,44.06-8.02,58.5-8.02c24.12,0,92.69,11.13,106.39,27.92l1.56,1.92V99
			c0,107.74-7.61,196.8-103.38,280.48L209.55,383.46z"/>
	</g>
	<path class="st1" d="M115.49,101.89c0.09,56.77,2.98,103.41,16.19,145.79c13.89,44.53,38.7,81.94,77.87,117.28
		c39.17-35.34,63.98-72.75,77.87-117.28c13.22-42.38,16.1-89.02,16.19-145.79c-12.26-9.61-66.91-21.32-94.06-21.32
		C182.39,80.57,127.74,92.28,115.49,101.89z"/>
	<g>
		<path class="st0" d="M294.89,176.68c0-11.98-2.47-23.39-6.92-33.74c-0.5,0.19-1.01,0.37-1.51,0.56
			c-12.88-29.67-42.43-50.44-76.84-50.44c-34.46,0-64.05,20.82-76.9,50.57c-0.52-0.19-1.06-0.38-1.57-0.58
			c-4.46,10.35-6.93,21.77-6.93,33.76c0,13.35,3.06,25.99,8.53,37.25c0.52-0.19,1.06-0.37,1.58-0.56
			c8.45,17.31,22.7,31.27,40.22,39.36c-0.24,0.73-0.47,1.46-0.72,2.18c11.37,5.21,24.06,8,37.4,7.71
			c11.98-0.26,23.33-2.97,33.58-7.65c-0.26-0.64-0.51-1.3-0.76-1.95c17.85-8.06,32.37-22.17,40.92-39.75
			c0.47,0.17,0.95,0.33,1.42,0.5C291.83,202.66,294.89,190.03,294.89,176.68z M150.39,136.88c2.56-3.78,5.49-7.34,8.72-10.57
			c3.23-3.23,6.79-6.17,10.57-8.72c3.82-2.58,7.9-4.79,12.13-6.58c8.8-3.72,18.16-5.61,27.8-5.61c9.64,0,19,1.89,27.8,5.61
			c4.23,1.79,8.31,4.01,12.13,6.58c3.78,2.56,7.34,5.49,10.57,8.72c3.23,3.23,6.17,6.79,8.72,10.57c2.24,3.32,4.19,6.84,5.84,10.48
			c-0.55,0.16-1.1,0.33-1.65,0.48c0.25,0.56,0.5,1.12,0.74,1.68c2.6,6.14,4.26,12.55,5.01,19.15c-2.07,0.35-4.22,0.46-6.45,0.29
			c-2.21-0.36-39.28-12.87-62.87-12.87c-17.57,0-34.73,3.27-49.48,9.03c-1.34,0.61-2.69,1.17-4.03,1.66
			c-2.95,1.29-8.09,1.99-9.32,2.18c-2.16,0.17-4.26,0.06-6.28-0.27c0.76-6.55,2.42-12.93,5-19.04c0.24-0.57,0.49-1.13,0.75-1.7
			c-0.54-0.15-1.06-0.31-1.59-0.46C146.15,143.8,148.12,140.23,150.39,136.88z M268.42,177.27c0.01,0.41-0.72,0.86-4.31,5.08
			c-0.01,0-19.86,1.12-19.86,1.12c3.67-4.69,11.18-15.26,11.18-15.26s8.75,3.18,11,3.84C267.71,173.59,268.37,175.34,268.42,177.27z
			 M209.61,194.44c-6.39,0-11.57-5.18-11.57-11.57s5.18-11.57,11.57-11.57s11.57,5.18,11.57,11.57S216,194.44,209.61,194.44z
			 M174.85,183.47c0,0-19.85-1.12-19.86-1.12c-3.59-4.22-4.32-4.68-4.31-5.08c0.04-1.93,0.71-3.68,1.98-5.22
			c2.3-0.75,11-3.84,11-3.84S171.18,178.78,174.85,183.47z M169.68,236.03c-3.78-2.55-7.34-5.49-10.57-8.72
			c-3.23-3.23-6.17-6.79-8.72-10.57c-1.52-2.25-2.9-4.61-4.16-7.02c0.54-0.15,1.07-0.31,1.61-0.45c-0.91-1.73-1.75-3.5-2.51-5.3
			c-2.57-6.08-4.23-12.42-4.99-18.95c3.93-0.64,8.15-0.39,12.55,0.91c20.74,6.12,41.93,27.82,47.32,48.46
			c1.12,4.28,1.27,8.38,0.59,12.21c-5.89-0.72-11.65-2.18-17.2-4.39c-1.81-0.72-3.59-1.52-5.34-2.39c-0.09,0.35-0.18,0.69-0.27,1.04
			C175.13,239.43,172.34,237.83,169.68,236.03z M268.83,216.74c-2.56,3.78-5.49,7.34-8.72,10.57c-3.23,3.23-6.79,6.17-10.57,8.72
			c-3.05,2.06-6.26,3.87-9.59,5.43c-0.13-0.4-0.26-0.8-0.38-1.2c-0.55,0.27-1.11,0.53-1.67,0.78c-6.31,2.83-12.93,4.68-19.76,5.53
			c-0.67-3.82-0.52-7.91,0.6-12.18c5.4-20.65,26.58-42.34,47.32-48.46c4.44-1.31,8.7-1.56,12.66-0.89
			c-0.77,6.47-2.42,12.77-4.97,18.8c-0.76,1.79-1.6,3.56-2.51,5.29c0.6,0.16,1.19,0.33,1.78,0.5
			C271.77,212.07,270.38,214.46,268.83,216.74z"/>
	</g>
	<g>
		<path class="st0" d="M227.46,310.77c-3.16-1.59-6.31-2.41-9.47-3c-1.93-0.34-3.86-0.56-5.8-0.69c-0.13-1.93-0.35-3.86-0.69-5.79
			c-0.59-3.16-1.41-6.31-2.99-9.47c-1.58,3.16-2.4,6.31-2.99,9.47c-0.34,1.93-0.56,3.86-0.69,5.8c-1.93,0.13-3.86,0.35-5.8,0.69
			c-3.16,0.59-6.31,1.41-9.47,2.99c3.16,1.58,6.31,2.4,9.47,2.99c1.93,0.34,3.86,0.56,5.79,0.69c0.13,1.93,0.34,3.86,0.69,5.8
			c0.59,3.16,1.41,6.31,3,9.47c1.59-3.16,2.41-6.31,3-9.47c0.34-1.93,0.56-3.86,0.68-5.79c1.93-0.13,3.86-0.34,5.79-0.69
			C221.14,313.18,224.3,312.36,227.46,310.77z"/>
	</g>
</g>
</svg>
