<?xml version="1.0" encoding="utf-8"?>
<!-- Generator: Adobe Illustrator 23.0.4, SVG Export Plug-In . SVG Version: 6.00 Build 0)  -->
<svg version="1.1" id="Capa_1" xmlns="http://www.w3.org/2000/svg" xmlns:xlink="http://www.w3.org/1999/xlink" x="0px" y="0px"
	 viewBox="0 0 402 402" style="enable-background:new 0 0 402 402;" xml:space="preserve">
<style type="text/css">
	.st0{fill-rule:evenodd;clip-rule:evenodd;fill:#C6C6C5;}
	.st1{fill:#C6C6C5;}
	.st2{fill:#ECECEC;}
</style>
<g>
	<g>
		<g>
			<g>
				<path class="st0" d="M274.17,170.33c13.74,27.02,3.88,51.51-15.51,66.87l6.17,57.45c3.15-16.85,7.03-23.95,9.54-35.1
					c10.28,10.92,24.48,16.78,36.18,11.21c1.13-0.54,1.59-1.28,1.62-2.05c0.02-0.64-0.17-1.32-1.56-2.4
					c-10.4-8.08-19.88-16.81-28.62-25.88c5.14,4.04,10.33,7.93,15.58,11.68c13.5,9.62,30.73,12.41,41.48,3.15
					c0.98-0.83,1.23-1.69,1.06-2.45c-0.15-0.64-0.52-1.26-2.18-1.96c-15.36-6.47-29.14-14.84-41.86-23.33
					c9.41,4.24,18.88,8.11,28.38,11.59c15.93,5.81,33.66,3.88,41.76-8.17c0.73-1.08,0.75-2,0.37-2.7c-0.32-0.6-0.85-1.1-2.68-1.33
					c-20.48-2.71-39.48-8.69-56.99-15.1c12.98,2.41,25.89,4.24,38.7,5.5c17.25,1.65,34.3-4.82,39.2-18.82
					c0.44-1.27,0.24-2.18-0.31-2.77c-0.47-0.5-1.13-0.87-3-0.63c-23,2.87-45.31,1.67-66.16-0.59c16.24-1.11,32.13-3,47.68-5.63
					c17.45-2.99,32.52-13.93,33.6-29.04c0.1-1.37-0.35-2.21-1.06-2.64c-0.59-0.37-1.34-0.56-3.12,0.19
					c-25.83,10.62-52.17,15.89-76.98,19.42c17.45-5.63,34.27-12.07,50.48-19.27c16.51-7.35,28.66-21.98,25.93-37.2
					c-0.25-1.38-0.9-2.1-1.71-2.35c-0.68-0.21-1.47-0.21-3.05,0.97c-24.14,18.02-50.22,30.71-75.35,41.07
					c17.92-11.09,34.84-22.95,50.79-35.54c14.47-11.42,22.82-28.94,16.29-43.32c-0.59-1.3-1.43-1.84-2.29-1.89
					c-0.73-0.04-1.5,0.16-2.76,1.72c-29.36,36.39-65.71,62.53-98.41,84.98C273.82,167.36,273.25,168.53,274.17,170.33z"/>
			</g>
		</g>
		<g>
			<g>
				<path class="st0" d="M128.07,167.02c-13.74,27.02-3.88,51.51,15.51,66.87l-6.17,57.45c-3.15-16.85-7.03-23.95-9.54-35.1
					c-10.28,10.92-24.48,16.78-36.18,11.21c-1.13-0.54-1.59-1.28-1.62-2.05c-0.02-0.64,0.17-1.32,1.56-2.4
					c10.4-8.08,19.88-16.81,28.62-25.88c-5.14,4.04-10.33,7.93-15.58,11.68c-13.5,9.62-30.73,12.41-41.48,3.15
					c-0.98-0.83-1.23-1.69-1.06-2.45c0.15-0.64,0.52-1.26,2.18-1.96c15.36-6.47,29.14-14.84,41.86-23.33
					c-9.41,4.24-18.88,8.11-28.38,11.59c-15.93,5.81-33.66,3.88-41.76-8.17c-0.73-1.08-0.75-2-0.37-2.7c0.32-0.6,0.85-1.1,2.68-1.33
					c20.48-2.71,39.48-8.69,56.99-15.1c-12.98,2.41-25.89,4.24-38.7,5.5c-17.25,1.65-34.3-4.82-39.2-18.82
					c-0.44-1.27-0.24-2.18,0.31-2.77c0.47-0.5,1.13-0.87,3-0.63c23,2.87,45.31,1.67,66.16-0.59c-16.24-1.11-32.13-3-47.68-5.63
					c-17.45-2.99-32.52-13.93-33.6-29.04c-0.1-1.37,0.35-2.21,1.06-2.64c0.59-0.37,1.34-0.56,3.12,0.19
					c25.83,10.62,52.17,15.89,76.98,19.42c-17.45-5.63-34.27-12.07-50.48-19.27c-16.51-7.35-28.66-21.98-25.93-37.2
					c0.25-1.38,0.9-2.1,1.71-2.35c0.68-0.21,1.47-0.21,3.05,0.97c24.14,18.02,50.22,30.71,75.35,41.07
					c-17.92-11.09-34.84-22.95-50.79-35.54c-14.47-11.42-22.82-28.94-16.29-43.32c0.59-1.3,1.43-1.84,2.29-1.89
					c0.73-0.04,1.5,0.16,2.76,1.72c29.36,36.39,65.71,62.53,98.41,84.98C128.41,164.05,128.99,165.22,128.07,167.02z"/>
			</g>
		</g>
	</g>
	<g>
		<g>
			<g>
				<path class="st1" d="M201.12,326.03l-1.58-0.43c-0.39-0.11-39.46-10.95-82.02-32.28l-4.34-2.17l-28.42-90.05L47.2,180.86h153.92
					h153.92l-37.56,20.22l-28.42,90.05l-4.34,2.17c-42.56,21.33-81.63,32.18-82.02,32.28L201.12,326.03z"/>
			</g>
		</g>
	</g>
	<path class="st1" d="M158.18,121.21c-2.15-1.08-4.31-1.64-6.46-2.04c-1.32-0.23-2.64-0.38-3.95-0.47
		c-0.09-1.32-0.24-2.63-0.47-3.95c-0.4-2.15-0.96-4.31-2.04-6.46c-1.08,2.15-1.63,4.31-2.04,6.46c-0.23,1.32-0.38,2.64-0.47,3.95
		c-1.32,0.09-2.64,0.24-3.95,0.47c-2.15,0.4-4.31,0.96-6.46,2.04c2.15,1.08,4.31,1.64,6.46,2.04c1.32,0.23,2.63,0.38,3.95,0.47
		c0.09,1.32,0.23,2.64,0.47,3.95c0.4,2.15,0.96,4.31,2.05,6.46c1.08-2.15,1.64-4.31,2.04-6.46c0.23-1.32,0.38-2.63,0.47-3.95
		c1.32-0.09,2.63-0.23,3.95-0.47C153.88,122.86,156.03,122.3,158.18,121.21z"/>
	<path class="st1" d="M269.5,121.21c-2.15-1.08-4.31-1.64-6.46-2.04c-1.32-0.23-2.64-0.38-3.95-0.47c-0.09-1.32-0.24-2.63-0.47-3.95
		c-0.4-2.15-0.96-4.31-2.04-6.46c-1.08,2.15-1.63,4.31-2.04,6.46c-0.23,1.32-0.38,2.64-0.47,3.95c-1.32,0.09-2.64,0.24-3.95,0.47
		c-2.15,0.4-4.31,0.96-6.46,2.04c2.15,1.08,4.31,1.64,6.46,2.04c1.32,0.23,2.63,0.38,3.95,0.47c0.09,1.32,0.23,2.64,0.47,3.95
		c0.4,2.15,0.96,4.31,2.05,6.46c1.08-2.15,1.64-4.31,2.04-6.46c0.23-1.32,0.38-2.63,0.47-3.95c1.32-0.09,2.63-0.23,3.95-0.47
		C265.19,122.86,267.34,122.3,269.5,121.21z"/>
	<path class="st1" d="M239.5,95.88c-2.15-1.08-4.31-1.64-6.46-2.04c-1.32-0.23-2.64-0.38-3.95-0.47c-0.09-1.32-0.24-2.63-0.47-3.95
		c-0.4-2.15-0.96-4.31-2.04-6.46c-1.08,2.15-1.63,4.31-2.04,6.46c-0.23,1.32-0.38,2.64-0.47,3.95c-1.32,0.09-2.64,0.24-3.95,0.47
		c-2.15,0.4-4.31,0.96-6.46,2.04c2.15,1.08,4.31,1.64,6.46,2.04c1.32,0.23,2.63,0.38,3.95,0.47c0.09,1.32,0.23,2.64,0.47,3.95
		c0.4,2.15,0.96,4.31,2.05,6.46c1.08-2.15,1.64-4.31,2.04-6.46c0.23-1.32,0.38-2.63,0.47-3.95c1.32-0.09,2.63-0.23,3.95-0.47
		C235.19,97.53,237.35,96.97,239.5,95.88z"/>
	<path class="st1" d="M188.18,95.88c-2.15-1.08-4.31-1.64-6.46-2.04c-1.32-0.23-2.64-0.38-3.95-0.47c-0.09-1.32-0.24-2.63-0.47-3.95
		c-0.4-2.15-0.96-4.31-2.04-6.46c-1.08,2.15-1.63,4.31-2.04,6.46c-0.23,1.32-0.38,2.64-0.47,3.95c-1.32,0.09-2.64,0.24-3.95,0.47
		c-2.15,0.4-4.31,0.96-6.46,2.04c2.15,1.08,4.31,1.64,6.46,2.04c1.32,0.23,2.63,0.38,3.95,0.47c0.09,1.32,0.23,2.64,0.47,3.95
		c0.4,2.15,0.96,4.31,2.05,6.46c1.08-2.15,1.64-4.31,2.04-6.46c0.23-1.32,0.38-2.63,0.47-3.95c1.32-0.09,2.63-0.23,3.95-0.47
		C183.87,97.53,186.03,96.97,188.18,95.88z"/>
	<path class="st2" d="M201.29,315.81l-1.48-0.41c-1.37-0.38-34.04-9.53-69.97-27.54l-3.89-1.95l-0.06-0.21l-29.07-94.32l210.48-0.27
		l-30.67,94.81l-3.88,1.95c-36.05,18.07-69.64,27.45-69.97,27.54L201.29,315.81z"/>
	<g>
		<path class="st0" d="M244.89,229.9c-0.02-0.84-0.05-1.02-0.09-1.11c-0.05-0.09-0.11-0.09-0.22-0.09c-0.01,0-0.02,0-0.02,0
			c0,0-0.01,0-0.01,0l-0.01,0h0c-0.02,0-0.05,0.01-0.07,0.01c-0.02,0-0.04,0-0.07,0.01c-0.06,0.01-0.11,0.02-0.16,0.04
			c-0.03,0.01-0.05,0.02-0.07,0.04c-0.08,0.05-0.17,0.13-0.37,0.28c-0.05,0.03-0.1,0.07-0.16,0.11c-0.01,0.01-0.02,0.02-0.04,0.02
			c-0.07,0.04-0.14,0.09-0.22,0.14c-0.02-0.27-0.05-0.56-0.09-0.9c-0.13-0.98-0.4-2.29-0.71-3.19c-0.31-0.9-0.65-1.41-0.89-2.15
			c-0.25-0.73-0.39-1.7-0.54-2.26c-0.15-0.57-0.29-0.74-0.4-0.8c-0.01-0.01-0.02,0-0.03-0.01c0,0-0.01-0.01-0.01-0.01
			c-0.01,0-0.01,0-0.02-0.01c0,0,0,0,0,0c-0.01,0-0.02,0-0.03,0c-0.01,0-0.02,0-0.02,0.01c-0.01,0-0.03,0.01-0.04,0.02
			c-0.01,0-0.01,0.01-0.02,0.02c0,0-0.01,0.01-0.01,0.01c0,0-0.01,0-0.01,0.01c0,0,0,0,0,0c-0.02,0.02-0.03,0.05-0.03,0.09
			c-0.02,0.13,0.02,0.33,0.08,0.68c0,0.02,0.01,0.05,0.01,0.08c-0.25-0.41-0.6-0.83-0.99-1.23c0,0,0,0,0-0.01
			c-0.01-0.01-0.03-0.03-0.04-0.04c-0.09-0.09-0.18-0.18-0.28-0.26c-0.07-0.16-0.16-0.33-0.31-0.58c-0.35-0.61-0.97-1.64-1.73-2.75
			c-0.75-1.12-1.64-2.32-2.56-3.41c-0.92-1.1-1.86-2.08-2.66-2.84c-0.8-0.75-1.46-1.27-1.88-1.73c-0.1-0.11-0.18-0.21-0.26-0.31
			c-0.02-0.03-0.04-0.06-0.07-0.1c-0.05-0.07-0.09-0.14-0.13-0.2c-0.02-0.03-0.04-0.07-0.06-0.1c-0.03-0.06-0.07-0.13-0.09-0.18
			c-0.01-0.03-0.03-0.06-0.04-0.08c-0.04-0.08-0.07-0.16-0.1-0.23c-0.13-0.33-0.2-0.59-0.23-0.86c-0.03-0.27-0.03-0.56-0.03-0.79
			c0-0.23,0-0.39-0.12-0.55c-0.12-0.15-0.36-0.29-1.54-0.85c-0.01,0-0.01-0.01-0.02-0.01l-0.18-0.08c-1.36-0.64-3.84-1.77-6.61-2.75
			c-1.31-0.46-2.68-0.89-4.03-1.27c0.11,0.61,0.22,1.32,0.33,2.12c0.18,1.35,0.36,2.97,0.55,5c0.19,2.03,0.41,4.46,0.6,7.31
			c0.19,2.85,0.37,6.11,0.5,10.05c0.11,3.17,0.19,6.77,0.25,9.33c-0.85,0.05-1.69,0.09-2.52,0.13c-0.01-1.09-0.01-2.33-0.07-5.14
			c-0.06-2.84-0.17-7.27-0.36-11.69c-0.18-4.41-0.43-8.79-0.75-12.04c-0.24-2.43-0.51-4.23-0.78-5.66
			c-0.67-0.16-1.33-0.31-1.96-0.45c0.3,1.69,0.63,4.31,0.91,8.85c0.35,5.74,0.6,14.54,0.72,19.76c0.08,3.36,0.11,5.23,0.12,6.46
			c-1.39,0.06-2.71,0.11-3.9,0.14c-1.82,0.06-3.65,0.1-5.48,0.12v-2.89c0-5.47,0-13.84-0.05-19.58c-0.05-5.75-0.14-8.87-0.33-11.42
			c-0.07-0.92-0.14-1.76-0.22-2.51c-2.04-0.1-4.2-0.1-6.24,0c-0.08,0.75-0.16,1.59-0.22,2.51c-0.18,2.55-0.28,5.67-0.33,11.42
			c-0.05,5.74-0.05,14.11-0.05,19.58v2.89c-1.83-0.02-3.66-0.06-5.48-0.12c-1.19-0.04-2.51-0.08-3.9-0.14
			c0.01-1.23,0.04-3.11,0.12-6.46c0.13-5.22,0.38-14.02,0.72-19.76c0.27-4.53,0.61-7.16,0.91-8.85c-0.63,0.13-1.29,0.28-1.96,0.45
			c-0.26,1.43-0.54,3.23-0.78,5.66c-0.32,3.25-0.57,7.63-0.75,12.04c-0.18,4.41-0.3,8.85-0.36,11.69c-0.06,2.81-0.06,4.05-0.07,5.14
			c-0.83-0.04-1.67-0.08-2.52-0.13c0.06-2.56,0.14-6.16,0.25-9.33c0.14-3.94,0.31-7.2,0.5-10.05c0.19-2.85,0.41-5.28,0.6-7.31
			c0.19-2.03,0.37-3.65,0.55-5c0.11-0.81,0.22-1.51,0.33-2.12c-1.36,0.38-2.73,0.8-4.03,1.27c-2.77,0.98-5.25,2.11-6.61,2.75
			l-0.18,0.08c-0.01,0-0.01,0-0.02,0.01c-1.18,0.56-1.42,0.7-1.54,0.85c-0.12,0.16-0.12,0.32-0.12,0.55c0,0.23,0,0.52-0.03,0.79
			c-0.03,0.27-0.1,0.53-0.23,0.86c-0.03,0.07-0.06,0.15-0.1,0.23c-0.01,0.03-0.03,0.06-0.04,0.08c-0.03,0.06-0.06,0.12-0.1,0.19
			c-0.02,0.03-0.04,0.07-0.06,0.1c-0.04,0.07-0.08,0.13-0.13,0.2c-0.02,0.03-0.04,0.06-0.07,0.1c-0.08,0.1-0.16,0.21-0.26,0.31
			c-0.42,0.46-1.08,0.98-1.88,1.73c-0.8,0.75-1.74,1.74-2.66,2.84c-0.92,1.1-1.8,2.3-2.56,3.41c-0.75,1.12-1.37,2.14-1.73,2.75
			c-0.15,0.25-0.24,0.43-0.31,0.58c-0.09,0.09-0.19,0.17-0.28,0.26c-0.01,0.01-0.03,0.03-0.04,0.04c0,0,0,0,0,0.01
			c-0.39,0.4-0.74,0.82-0.99,1.23c0-0.03,0.01-0.06,0.01-0.08c0.06-0.36,0.1-0.55,0.08-0.68c-0.01-0.03-0.02-0.06-0.03-0.09
			c0,0,0,0,0,0c0,0-0.01,0-0.01-0.01c0,0-0.01-0.01-0.01-0.01c-0.01-0.01-0.01-0.01-0.02-0.02c-0.01-0.01-0.02-0.02-0.04-0.02
			c-0.01,0-0.01,0-0.02-0.01c-0.01,0-0.02,0-0.03,0c0,0,0,0,0,0c-0.01,0-0.02,0-0.02,0.01c0,0-0.01,0-0.01,0.01
			c-0.01,0-0.02,0-0.03,0.01c-0.12,0.06-0.26,0.23-0.4,0.8c-0.15,0.57-0.29,1.53-0.54,2.26c-0.25,0.73-0.59,1.24-0.89,2.15
			c-0.31,0.9-0.57,2.21-0.71,3.19c-0.04,0.33-0.07,0.62-0.09,0.88c-0.08-0.05-0.15-0.09-0.21-0.13c-0.01-0.01-0.02-0.02-0.03-0.02
			c-0.06-0.04-0.11-0.08-0.16-0.11c-0.28-0.2-0.35-0.28-0.45-0.32c-0.05-0.02-0.11-0.04-0.16-0.04c-0.02,0-0.04,0-0.07-0.01
			c-0.03,0-0.05-0.01-0.07-0.01h0l-0.01,0c0,0-0.01,0-0.01,0c-0.01,0-0.02,0-0.02,0c-0.1-0.01-0.17-0.01-0.22,0.09
			c-0.05,0.09-0.07,0.27-0.09,1.11c-0.02,0.84-0.05,2.34-0.01,4.43c0.04,2.09,0.14,4.77,0.26,7.85c0.12,3.08,0.26,6.57,0.54,9.55
			c0.03,0.31,0.06,0.61,0.09,0.9c0-0.04-0.01-0.07-0.01-0.11c0,0.1,0.01,0.22,0.01,0.33c0-0.03-0.01-0.05-0.01-0.08
			c0.03,1.31,0.12,2.85,0.21,4.05c0.11,1.39,0.22,2.31,0.69,3.51c0.17,0.44,0.4,0.92,0.66,1.41c0.28,1.86,0.69,4.16,1.25,6.55
			c0.12,0.5,0.24,1.01,0.37,1.52c0.03,0.13,0.07,0.27,0.1,0.4c0.12,0.46,0.25,0.92,0.38,1.39c0.02,0.06,0.03,0.13,0.05,0.19
			c0.15,0.52,0.31,1.05,0.48,1.59c0.04,0.14,0.09,0.27,0.13,0.41c0.15,0.46,0.3,0.92,0.47,1.39c0.03,0.08,0.05,0.15,0.08,0.23
			c0.01,0.02,0.01,0.03,0.02,0.05c0.32,0.92,0.68,1.86,1.07,2.82c1.46,3.62,3.41,7.59,5.01,10.24c1.59,2.65,2.83,3.98,4.36,5.17
			c1.53,1.19,3.36,2.25,4.84,3.38c1.49,1.14,2.63,2.35,4.26,3.65c1.63,1.3,3.74,2.68,5.3,3.72c1.56,1.05,2.56,1.76,3.8,2.34
			c0.22,0.1,0.46,0.2,0.7,0.29c0.17,0.1,0.33,0.19,0.5,0.27c1.42,0.7,3,1.06,4.38,1.24c2.17,0.28,5.35,0.28,7.53,0
			c0.15-0.02,0.31-0.05,0.46-0.08c-0.14-1.03-0.2-2.09-0.22-3.38c-0.02-1.61,0.02-3.57,0.07-4.93c0.04-1.36,0.09-2.12,0.08-2.69
			c-0.01-0.57-0.06-0.95-0.11-1.79c-0.05-0.84-0.09-2.13-0.03-3.41c0.07-1.27,0.24-2.53,0.35-3.35s0.15-1.22,0.94-2.59
			c0.79-1.36,2.32-3.68,3.54-5.06c1.21-1.38,2.11-1.81,2.87-1.18c0.76,0.63,1.39,2.33,1.56,3.45c0.17,1.12-0.12,1.65-0.28,2.28
			c-0.16,0.63-0.2,1.34-0.25,1.73c-0.05,0.39-0.11,0.46-0.12,0.73c-0.01,0.26,0.03,0.72,0.05,0.94s0.03,0.22,0.03,1.1
			c0,0.88,0.01,2.65-0.05,4.55c-0.06,1.9-0.19,3.94-0.26,5.74c-0.04,1.11-0.06,2.13-0.05,3.03c-1.62,2-2.83,2.99-4.2,3.67
			c-0.58,0.29-1.19,0.51-1.8,0.7c0.07-0.01,0.14-0.02,0.22-0.03c1.16-0.22,2.64-0.65,3.89-1.22c1.24-0.57,2.24-1.29,3.8-2.34
			c1.56-1.05,3.67-2.43,5.3-3.72c1.63-1.3,2.78-2.52,4.26-3.65c1.49-1.14,3.31-2.19,4.84-3.38c1.53-1.19,2.77-2.52,4.36-5.17
			c1.59-2.65,3.55-6.63,5.01-10.24c1.46-3.62,2.43-6.88,3.15-9.98c0.72-3.1,1.2-6.05,1.46-8.09c0.17-1.31,0.25-2.25,0.08-3.02
			c-0.04,0.19-0.09,0.36-0.13,0.54c0.01-0.06,0.01-0.12,0.02-0.17c0.01-0.08,0.02-0.16,0.02-0.24c0.01-0.16,0.03-0.32,0.04-0.49
			c0.02-0.27,0.04-0.57,0.06-0.87c0-0.04,0.01-0.08,0.01-0.13c0.02-0.29,0.04-0.59,0.05-0.89c0-0.06,0.01-0.12,0.01-0.19
			c0-0.07,0.01-0.15,0.01-0.22c0,0,0,0,0,0c0.03-0.6,0.06-1.2,0.07-1.75c0,0.01,0,0.02,0,0.03c0.04-0.35,0.07-0.71,0.11-1.07
			c0.28-2.97,0.42-6.46,0.54-9.55c0.12-3.08,0.22-5.76,0.26-7.85C244.93,232.23,244.91,230.74,244.89,229.9z M159.07,257.69
			c0,0.01,0.01,0.03,0.01,0.04c0,0,0,0.01,0,0.01C159.07,257.73,159.07,257.71,159.07,257.69z M184.93,297.53
			c0.01-0.38,0.01-0.83,0-1.36c-0.02-1.4-0.14-3.4-0.23-5.34c-0.1-1.95-0.18-3.84-0.21-4.83c-0.03-0.99-0.01-1.08,0-1.25
			c0-0.17-0.01-0.42-0.06-0.78c-0.05-0.36-0.13-0.82-0.11-1.05c0.02-0.23,0.14-0.21,0.19-0.35c0.05-0.13,0.04-0.41,0.13-0.57
			c0.1-0.16,0.3-0.2,0.58,0.05c0.27,0.26,0.61,0.81,0.84,1.24c0.23,0.43,0.34,0.72,0.41,0.98c0.07,0.26,0.08,0.49,0.13,0.78
			c0.05,0.29,0.12,0.65,0.17,0.91c0.05,0.27,0.07,0.44,0.07,0.63c0,0.18-0.01,0.37-0.02,1.1c-0.02,0.72-0.05,1.98,0.02,3.71
			c0.06,1.73,0.21,3.95,0.29,5.84c0.06,1.43,0.08,2.68,0.09,3.59C186.48,299.81,185.72,298.7,184.93,297.53z M197.6,300.19
			c0.04,1.36,0.09,3.32,0.07,4.93c-0.02,1.29-0.08,2.36-0.22,3.39c-1.27-0.2-2.66-0.55-3.93-1.18c-1.36-0.68-2.58-1.67-4.2-3.67
			c0-0.91-0.01-1.93-0.05-3.03c-0.07-1.8-0.2-3.84-0.26-5.74c-0.06-1.9-0.06-3.67-0.05-4.55c0-0.88,0.01-0.88,0.03-1.1
			c0.02-0.23,0.06-0.68,0.05-0.94c-0.01-0.26-0.08-0.33-0.12-0.73c-0.05-0.39-0.08-1.11-0.25-1.73c-0.16-0.63-0.45-1.16-0.28-2.28
			c0.17-1.12,0.8-2.82,1.56-3.45c0.76-0.63,1.66-0.2,2.87,1.18c1.21,1.38,2.75,3.7,3.54,5.06c0.79,1.36,0.83,1.76,0.94,2.59
			s0.28,2.08,0.35,3.35c0.07,1.27,0.02,2.57-0.03,3.41c-0.05,0.84-0.1,1.22-0.11,1.79C197.51,298.07,197.55,298.83,197.6,300.19z
			 M212.46,275.14c-7.61,1.12-15.07,1.12-22.69,0c-2.59-0.38-5.19-0.92-8.03-1.85c-2.84-0.94-5.92-2.27-8.35-3.54
			c-2.44-1.26-4.23-2.45-5.61-3.56c-1.38-1.12-2.33-2.17-3.15-3.18c-0.82-1.01-1.51-1.99-2.05-3.61c-0.54-1.62-0.92-3.9-1.17-6.65
			c-0.26-2.75-0.38-5.97-0.49-8.82c-0.11-2.85-0.21-5.32-0.24-7.25c-0.04-1.93-0.02-3.31,0.01-4.09c0.02-0.78,0.04-0.94,0.08-1.03
			c0.04-0.08,0.1-0.08,0.2-0.08c0.09,0.01,0.22,0.02,0.31,0.06c0.09,0.04,0.16,0.12,0.41,0.3c0.26,0.18,0.71,0.48,1.6,0.89
			c0.9,0.41,2.24,0.95,4.88,1.47c2.64,0.52,6.57,1.02,11.09,1.39c4.52,0.37,9.63,0.6,13.37,0.71c4.49,0.14,9.03,0.16,13.53,0.08
			c7.63-0.22,13.63-0.65,18.24-1.13c0.02,3.06-0.06,6.02-0.23,8.8c-0.8,12.84-3.63,22.07-7.15,30.21
			C215.48,274.63,213.96,274.91,212.46,275.14z M218.34,283.97c-0.05,0.36-0.06,0.61-0.06,0.78c0,0.17,0.03,0.26,0,1.25
			c-0.03,0.99-0.11,2.89-0.21,4.83c-0.1,1.95-0.21,3.94-0.23,5.34c-0.01,0.53,0,0.98,0,1.36c-0.79,1.17-1.55,2.28-2.26,3.29
			c0.01-0.91,0.03-2.16,0.09-3.59c0.08-1.89,0.23-4.11,0.29-5.84c0.06-1.73,0.03-2.99,0.02-3.71c-0.02-0.72-0.03-0.91-0.02-1.1
			c0-0.18,0.02-0.36,0.07-0.63c0.05-0.27,0.12-0.62,0.17-0.91c0.05-0.29,0.06-0.52,0.13-0.78c0.07-0.26,0.18-0.56,0.41-0.98
			s0.57-0.98,0.84-1.24c0.27-0.26,0.48-0.21,0.58-0.05c0.1,0.16,0.08,0.44,0.13,0.57c0.05,0.13,0.17,0.12,0.19,0.35
			C218.47,283.14,218.39,283.61,218.34,283.97z M232.08,267.89c0.2-1.08,0.39-2.17,0.56-3.26c1.23-7.56,1.9-15.22,1.61-23.53
			c-0.08-2.36-0.25-4.77-0.49-7.18c1.31-0.25,2.22-0.47,2.78-0.62c0.34,2.27,0.63,4.83,0.74,7.63c0.18,4.73-0.18,10.17-1.05,17.95
			c-0.23,2.02-0.49,4.2-0.78,6.42c-0.31,0.29-0.64,0.58-1.01,0.87C233.77,266.73,232.99,267.3,232.08,267.89z M241.56,236.67
			c-0.04,1.93-0.13,4.4-0.24,7.25c-0.11,2.85-0.24,6.07-0.49,8.82c-0.26,2.75-0.64,5.02-1.17,6.65c-0.28,0.84-0.59,1.5-0.95,2.08
			c-0.02,0.14-0.44,0.69-0.97,1.32c0.61-1.95,1.05-4.61,1.35-7.8c0.31-3.32,0.46-7.21,0.6-10.65c0.13-3.44,0.25-6.43,0.29-8.76
			c0.03-1.4,0.03-2.56,0.02-3.47c0.22-0.1,0.46-0.21,0.55-0.28c0.26-0.18,0.32-0.26,0.41-0.3c0.09-0.04,0.22-0.05,0.31-0.06
			c0.09-0.01,0.16-0.01,0.2,0.08c0.04,0.08,0.06,0.25,0.08,1.03S241.6,234.74,241.56,236.67z"/>
	</g>
	<g>
		<g>
			<path class="st1" d="M168.27,153.49c-9.91,6.03-17.01,11.77-24.55,20.61c-6.62,8.2-10.58,15.26-13.91,25.27
				c-3.09,10.28-3.89,18.42-3.07,29.12c2.65,22.2,10.52,37.56,25.06,54.33c9.36,10.11,17.88,16.84,29.88,23.62
				c-0.26,0.48-0.52,0.95-0.78,1.43c-12.14-6.91-20.76-13.75-30.21-24.04c-14.69-17.07-22.6-32.68-25.18-55.22
				c-0.79-10.87,0.07-19.14,3.26-29.56c3.43-10.13,7.48-17.26,14.24-25.54c7.66-8.87,14.86-14.63,24.9-20.64
				C168.03,153.08,168.15,153.29,168.27,153.49L168.27,153.49z"/>
		</g>
		<g>
			<path class="st1" d="M144.78,159.95c-5.08,6.89-0.96,9.64-7.45,21.65c-0.11,0.21,0.29,0.47,0.44,0.28
				c6.68-8.87,12.13-5.54,18.66-9.49c-1.2,1.62-5.04,5.86-6.5,6.9c-4.03,3.55-9.23,7.38-14.94,6.76
				C128.62,178,137.94,164.66,144.78,159.95L144.78,159.95z M128.13,203.25c-8.07-6.04-2.79-21.1,3.5-28.01
				c-2.85,6.63-0.47,11.92-1.55,19.61c-0.2,1.22-0.51,2.4-0.81,3.6c-0.06,0.23,0.4,0.38,0.49,0.16c4.05-9.69,10.25-8.39,15.96-13.79
				c-2.32,5.19-7.11,12.59-11.66,15.93C132.34,201.99,130.25,202.95,128.13,203.25L128.13,203.25z M125.81,221.72
				c-9.2-3.92-8.1-19.57-3.64-28.01c-1.36,6.64,2.67,11.45,3.44,19.22c0.11,1.24,0.1,2.47,0.11,3.71c0,0.24,0.49,0.27,0.52,0.04
				c1.55-10.89,8.28-10.85,11.95-17.16C136.9,206.95,132.9,218.68,125.81,221.72L125.81,221.72z M128.07,240.47
				c-10-1.64-12.58-17.58-10.4-26.65c0.33,7.81,5.96,9.34,9.13,21.8c0.06,0.23,0.53,0.15,0.51-0.09
				c-1.06-10.72,4.95-12.61,7.31-20.11c0.15,1.74,0.1,10.66-0.45,12.42c-0.73,4.71-1.79,8.63-5.34,12.02
				C128.59,240.07,128.34,240.27,128.07,240.47L128.07,240.47z M134.25,258.01c-9.99,0.45-15.89-14.12-15.94-23.17
				c2.42,6.77,7.67,8.9,11.96,15.45c0.65,1.05,1.18,2.15,1.73,3.25c0.11,0.21,0.55,0.03,0.48-0.2c-0.37-1.16-0.71-2.32-0.88-3.54
				c-0.8-8.84,3.06-10.14,3.54-17.52C137.51,239.29,139.66,252.01,134.25,258.01L134.25,258.01z M143.8,274.12
				c-6.38,1.46-12.24-3.98-15.51-8.84c-2.06-3.07-3.94-7.07-4.75-10.69c3.78,6.03,9.33,7,14.85,12.63c0.84,0.92,1.59,1.89,2.34,2.88
				c0.15,0.19,0.55-0.08,0.43-0.29c-5.17-9.39-0.53-13.5-1.71-21.31C143.26,254.86,148.04,267.12,143.8,274.12L143.8,274.12z
				 M145.85,170.97c-4.36-9.02,6.88-19.73,14.92-23.29c-5.25,4.93-5.09,10.44-9.49,16.9c-0.71,0.97-1.49,1.86-2.28,2.76
				c-0.15,0.17,0.19,0.52,0.36,0.37c7.9-6.61,13.07-2.89,20.48-5.62C164.27,167.08,153.59,173.9,145.85,170.97L145.85,170.97z
				 M155.92,161.56c0.58-2.79,2.5-5.27,4.62-7.11c5.92-5.13,13.58-5.68,20.76-7.9C173.41,150.91,165.67,161.7,155.92,161.56
				L155.92,161.56z M156.06,288.36c-9.24,3.89-20-7.77-23.44-15.61c4.88,5.21,10.5,5.14,16.98,9.79l2.8,2.43
				c0.17,0.16,0.53-0.17,0.38-0.35c-6.76-8.47-3.01-13.41-5.71-20.89c3.34,3.74,7.54,10.42,9.01,15.26
				C156.99,282.01,157.27,285.37,156.06,288.36L156.06,288.36z"/>
		</g>
		<g>
			<path class="st1" d="M233.96,153.49c9.91,6.03,17.01,11.77,24.55,20.61c6.62,8.2,10.58,15.26,13.91,25.27
				c3.09,10.28,3.89,18.42,3.07,29.12c-2.65,22.2-10.52,37.56-25.06,54.33c-9.36,10.11-17.88,16.84-29.88,23.62
				c0.26,0.48,0.52,0.95,0.78,1.43c12.14-6.91,20.76-13.75,30.21-24.04c14.69-17.07,22.6-32.68,25.18-55.22
				c0.79-10.87-0.07-19.14-3.26-29.56c-3.43-10.13-7.48-17.26-14.24-25.54c-7.66-8.87-14.86-14.63-24.9-20.64
				C234.2,153.08,234.08,153.29,233.96,153.49L233.96,153.49z"/>
		</g>
		<g>
			<path class="st1" d="M257.45,159.95c5.08,6.89,0.96,9.64,7.45,21.65c0.11,0.21-0.29,0.47-0.44,0.28
				c-6.68-8.87-12.13-5.54-18.66-9.49c1.2,1.62,5.04,5.86,6.5,6.9c4.03,3.55,9.23,7.38,14.94,6.76
				C273.62,178,264.3,164.66,257.45,159.95L257.45,159.95z M274.11,203.25c8.07-6.04,2.79-21.1-3.51-28.01
				c2.85,6.63,0.47,11.92,1.55,19.61c0.2,1.22,0.51,2.4,0.81,3.6c0.06,0.23-0.4,0.38-0.49,0.16c-4.05-9.69-10.25-8.39-15.96-13.79
				c2.32,5.19,7.11,12.59,11.66,15.93C269.89,201.99,271.98,202.95,274.11,203.25L274.11,203.25z M276.42,221.72
				c9.2-3.92,8.09-19.57,3.64-28.01c1.36,6.64-2.67,11.45-3.44,19.22c-0.11,1.24-0.1,2.47-0.11,3.71c0,0.24-0.49,0.27-0.52,0.04
				c-1.55-10.89-8.28-10.85-11.95-17.16C265.34,206.95,269.34,218.68,276.42,221.72L276.42,221.72z M274.17,240.47
				c10-1.64,12.58-17.58,10.4-26.65c-0.33,7.81-5.96,9.34-9.14,21.8c-0.06,0.23-0.53,0.15-0.51-0.09
				c1.06-10.72-4.95-12.61-7.31-20.11c-0.15,1.74-0.1,10.66,0.45,12.42c0.73,4.71,1.79,8.63,5.34,12.02
				C273.64,240.07,273.9,240.27,274.17,240.47L274.17,240.47z M267.99,258.01c9.99,0.45,15.89-14.12,15.94-23.17
				c-2.42,6.77-7.67,8.9-11.96,15.45c-0.65,1.05-1.18,2.15-1.73,3.25c-0.11,0.21-0.55,0.03-0.48-0.2c0.37-1.16,0.71-2.32,0.88-3.54
				c0.8-8.84-3.06-10.14-3.54-17.52C264.72,239.29,262.58,252.01,267.99,258.01L267.99,258.01z M258.43,274.12
				c6.38,1.46,12.24-3.98,15.51-8.84c2.06-3.07,3.94-7.07,4.75-10.69c-3.78,6.03-9.33,7-14.85,12.63c-0.84,0.92-1.59,1.89-2.34,2.88
				c-0.15,0.19-0.55-0.08-0.43-0.29c5.17-9.39,0.53-13.5,1.71-21.31C258.97,254.86,254.2,267.12,258.43,274.12L258.43,274.12z
				 M256.39,170.97c4.36-9.02-6.88-19.73-14.92-23.29c5.25,4.93,5.09,10.44,9.49,16.9c0.71,0.97,1.49,1.86,2.28,2.76
				c0.15,0.17-0.19,0.52-0.36,0.37c-7.9-6.61-13.07-2.89-20.48-5.62C237.96,167.08,248.64,173.9,256.39,170.97L256.39,170.97z
				 M246.32,161.56c-0.58-2.79-2.5-5.27-4.62-7.11c-5.92-5.13-13.58-5.68-20.76-7.9C228.83,150.91,236.57,161.7,246.32,161.56
				L246.32,161.56z M246.18,288.36c9.24,3.89,20-7.77,23.44-15.61c-4.88,5.21-10.5,5.14-16.98,9.79l-2.8,2.43
				c-0.17,0.16-0.53-0.17-0.38-0.35c6.76-8.47,3.01-13.41,5.71-20.89c-3.35,3.74-7.54,10.42-9.01,15.26
				C245.24,282.01,244.97,285.37,246.18,288.36L246.18,288.36z"/>
		</g>
	</g>
</g>
</svg>
