<?xml version="1.0" encoding="utf-8"?>
<!-- Generator: Adobe Illustrator 23.0.4, SVG Export Plug-In . SVG Version: 6.00 Build 0)  -->
<svg version="1.1" id="Capa_1" xmlns="http://www.w3.org/2000/svg" xmlns:xlink="http://www.w3.org/1999/xlink" x="0px" y="0px"
	 viewBox="0 0 402 402" style="enable-background:new 0 0 402 402;" xml:space="preserve">
<style type="text/css">
	.st0{fill-rule:evenodd;clip-rule:evenodd;fill:#C6C6C5;}
	.st1{fill:#C6C6C5;}
	.st2{fill:#ECECEC;}
	.st3{fill-rule:evenodd;clip-rule:evenodd;fill:#1D1D1B;}
	.st4{fill-rule:evenodd;clip-rule:evenodd;fill:#ECECEC;}
</style>
<g>
	<g>
		<g>
			<path class="st0" d="M387.28,125.61c-0.07-0.01-0.15,0-0.22-0.01c-1.08-0.87-2.82-2.3-3.54-2.44c-0.49-0.09-1.01,0.05-1.54,0.4
				l-8.94,2.43c0.88-2.34,1.62-5.24,2.06-8.44c1.11-8.12-0.06-14.99-2.65-15.33c-0.08-0.01-0.16,0-0.25,0
				c-1.22-0.91-3.22-2.41-4.04-2.5c-0.54-0.08-1.1,0.11-1.66,0.52c0,0-18.43,5.69-17.55,5.16c0.23-0.13,0.45-0.32,0.67-0.54
				c2.24-1.81,4.21-7.8,4.72-15.03c0.63-8.84-1.13-16.16-3.93-16.36c-0.09-0.01-0.18,0.02-0.27,0.02c-1.38-0.89-3.64-2.33-4.51-2.4
				c-0.04,0-0.07,0.01-0.11,0.01v0l0,0c-0.54-0.01-1.08,0.21-1.61,0.64l-13.19,5.24c1.96-2.39,3.42-8.27,3.52-15.17
				c0.14-9.06-2.08-16.43-4.95-16.5c-0.09,0-0.18,0.03-0.28,0.04c-1.46-0.83-3.84-2.17-4.75-2.18c-0.03,0-0.07,0.01-0.1,0.01v0
				l-0.01,0c-0.55,0.02-1.09,0.28-1.6,0.74l-64.93,30.1c0,0-34.37,13.85-40.09,54.27c-5.73,40.45-6.61,45.16-6.61,45.16l21.95-5.11
				c-4.2,20.79-4.89,23.67-4.89,23.67l28.91-5.05c-4.12,15.14-4.83,17.37-4.83,17.37l25.43-2.74c-3.23,9.91-3.81,11.48-3.81,11.48
				l28.06-1.68l7.23-22.62c0,0,6.14-14.88,16.03-18.94c9.9-4.06,16.8-6.31,16.8-6.31l35.76-10.2c0.1,0.04,0.2,0.09,0.31,0.11
				c0.62,0.11,4.38-0.91,5.15-1.26c0.19-0.08,0.38-0.21,0.58-0.36c2.06-1.26,4.29-6.11,5.42-12.17
				C390.38,132.34,389.61,126.04,387.28,125.61z M345.99,89.22c0.4-5.68,2.21-10.2,4.01-10.06c1.81,0.12,2.95,4.84,2.54,10.52
				c-0.4,5.68-2.2,10.2-4.01,10.07C346.72,99.62,345.58,94.92,345.99,89.22z M327.76,73.9c-2.13-0.04-3.78-5.51-3.68-12.24
				c0.1-6.74,1.92-12.15,4.06-12.13c2.14,0.04,3.79,5.53,3.69,12.24C331.72,68.51,329.91,73.94,327.76,73.9z M369.21,125.68
				c-1.54-0.22-2.24-4.32-1.58-9.14c0.67-4.84,2.46-8.59,4-8.37c1.53,0.2,2.24,4.3,1.57,9.14
				C372.53,122.14,370.75,125.89,369.21,125.68z M387.52,139.38c-0.88,4.72-2.81,8.31-4.31,8.03c-1.5-0.29-2.01-4.33-1.13-9.05
				c0.89-4.72,2.82-8.32,4.32-8.03C387.89,130.59,388.4,134.65,387.52,139.38z"/>
		</g>
		<g>
			<path class="st0" d="M13.7,139.65c1.13,6.06,3.36,10.9,5.42,12.17c0.19,0.15,0.39,0.27,0.58,0.36c0.78,0.35,4.54,1.37,5.15,1.26
				c0.11-0.02,0.21-0.07,0.31-0.11l35.76,10.2c0,0,6.91,2.25,16.8,6.31c9.9,4.06,16.03,18.94,16.03,18.94l7.23,22.62l28.06,1.68
				c0,0-0.58-1.57-3.81-11.48l25.43,2.74c0,0-0.71-2.23-4.83-17.37l28.91,5.05c0,0-0.7-2.88-4.89-23.67l21.95,5.11
				c0,0-0.88-4.7-6.61-45.16c-5.73-40.43-40.09-54.27-40.09-54.27l-64.93-30.1c-0.51-0.46-1.05-0.72-1.6-0.74l-0.01,0v0
				c-0.03,0-0.07-0.01-0.1-0.01c-0.91,0.01-3.28,1.36-4.75,2.18c-0.09-0.01-0.18-0.04-0.28-0.04c-2.88,0.07-5.1,7.45-4.95,16.5
				c0.1,6.89,1.55,12.78,3.52,15.17L58.8,71.74c-0.53-0.43-1.07-0.65-1.61-0.64l0,0v0c-0.04,0-0.07-0.01-0.11-0.01
				c-0.88,0.07-3.13,1.51-4.51,2.4c-0.09-0.01-0.18-0.03-0.27-0.02c-2.8,0.2-4.57,7.52-3.93,16.36c0.52,7.23,2.48,13.22,4.72,15.03
				c0.22,0.22,0.45,0.41,0.67,0.54c0.88,0.53-17.55-5.16-17.55-5.16c-0.56-0.41-1.12-0.59-1.66-0.52c-0.82,0.1-2.81,1.59-4.04,2.5
				c-0.08,0-0.16-0.02-0.25,0c-2.59,0.34-3.76,7.21-2.65,15.33c0.44,3.2,1.18,6.1,2.06,8.44l-8.94-2.43
				c-0.53-0.35-1.05-0.49-1.54-0.4c-0.72,0.14-2.47,1.57-3.54,2.44c-0.07,0-0.15-0.01-0.22,0.01
				C13.1,126.04,12.33,132.34,13.7,139.65z M54.18,99.76c-1.81,0.12-3.61-4.39-4.01-10.07c-0.4-5.68,0.73-10.4,2.54-10.52
				c1.8-0.14,3.6,4.37,4.01,10.06C57.13,94.92,55.99,99.62,54.18,99.76z M70.89,61.77c-0.1-6.71,1.55-12.2,3.69-12.24
				c2.14-0.02,3.96,5.4,4.06,12.13c0.11,6.73-1.55,12.2-3.68,12.24C72.81,73.94,70.99,68.51,70.89,61.77z M29.52,117.31
				c-0.67-4.84,0.04-8.94,1.57-9.14c1.54-0.22,3.33,3.53,4,8.37c0.67,4.83-0.04,8.93-1.58,9.14
				C31.97,125.89,30.18,122.14,29.52,117.31z M16.32,130.33c1.49-0.29,3.43,3.31,4.32,8.03c0.88,4.72,0.37,8.76-1.13,9.05
				c-1.5,0.27-3.43-3.31-4.31-8.03C14.32,134.65,14.82,130.59,16.32,130.33z"/>
		</g>
	</g>
	<g>
		<g>
			<g>
				<path class="st1" d="M207.62,358.51l-2.08-0.84c-0.51-0.21-51.77-21.14-107.62-62.33l-5.69-4.2l0.01-2.81
					c0.21-52.02,0.41-129.05,0.13-143.59l-37.42-27.45l36.84-42.83l42.58,22.97c8.93-4.95,37.73-19.19,73.25-19.19
					c35.52,0,64.33,14.24,73.25,19.19l42.58-22.97l36.84,42.83l-37.42,27.45c-0.28,14.54-0.09,91.57,0.13,143.59l0.01,2.81
					l-5.69,4.2c-55.84,41.18-107.11,62.12-107.62,62.33L207.62,358.51z"/>
			</g>
		</g>
	</g>
	<g>
		<path class="st2" d="M104.99,286.35l1.16,0.86c48.1,35.47,93.06,55.75,103.12,60.09c10.05-4.33,55.02-24.62,103.12-60.09
			l1.17-0.86c-0.04-9.21-0.15-39.62-0.21-70.11c-0.04-21.21-0.05-38.15-0.03-50.34c0.05-24.6,0.05-24.6,1.14-26.28l0.55-0.85
			l30.73-22.54l-23.22-26.99l-40.28,21.73l-2.73-1.69c-0.3-0.19-31.43-19.16-70.24-19.16c-38.94,0-69.93,18.97-70.24,19.16
			l-2.73,1.69L96.03,89.23l-23.22,26.99l30.73,22.54l0.55,0.85c1.09,1.69,1.09,1.69,1.14,26.28c0.02,12.2,0.01,29.14-0.03,50.34
			C105.14,246.73,105.03,277.14,104.99,286.35z"/>
	</g>
	<g>
		<polygon class="st3" points="183.16,150.01 183.16,150.02 183.16,150.01 184.29,149.54 		"/>
	</g>
	<g>
		<g>
			<path class="st0" d="M211.16,186.61c0-0.2,0.02-0.39,0.03-0.59l-57.25,61.32c0.23-0.01,0.46-0.03,0.69-0.03
				c9.19,0,16.64,7.45,16.64,16.64c0,0.6-0.04,1.2-0.1,1.78l55.77-57.83l-6.46-5.78C214.93,199.16,211.16,193.33,211.16,186.61z"/>
		</g>
		<g>
			<path class="st0" d="M258.83,233.29c-3.09-0.19-5.84-1.61-7.77-3.78l-6.82-6.1l-35.07,24.73c9.01,0.75,16.09,8.29,16.09,17.49
				c0,0.4-0.03,0.79-0.06,1.18L258.83,233.29z"/>
		</g>
		<g>
			<path class="st0" d="M126.6,230.75l11.62,9.59l-0.31,0.34l-0.73,0.93l1.26,0.87l0.01,0.01l-1.73,2.98l0.06,3.91l-0.02,0.05
				l0.03,0.1l0,0.14l-0.05,0.13l-0.28,1.27l-0.21,1.63l-0.14,1.87l-0.06,1.98l0.04,1.95l0.04,0.62c-0.2,1.17-0.3,2.38-0.28,3.6
				c0.02,0.81,0.09,1.62,0.21,2.43c0.66,0.06,1.33,0.15,1.98,0.29c-0.04-0.49-0.08-0.99-0.08-1.49c0-6.56,3.81-12.22,9.33-14.93
				l65.82-70.5c2.93-5.62,8.8-9.47,15.58-9.47c8.3,0,15.24,5.77,17.07,13.51l5.85,8.49l0.47-21.1c0.04-1.57-1.8-4.32-4.24-7.02
				l-0.38-1.05l-0.01-0.01l-0.23-0.36l-0.68-0.74l-0.1-0.1l-0.8-0.63l-0.03-0.02l-0.27-0.4l-0.65-0.7l-0.76-0.6l0.77,0.6l-0.1-0.09
				l-0.76-0.6l-0.85-0.48l-0.94-0.35l-0.27-0.06l-0.28-0.31l-0.18-0.19l-0.7-0.54l-0.78-0.44l-0.85-0.32l-0.81-0.18
				c-0.41-0.14-0.8-0.24-1.12-0.24h-6.85l-0.81-1.17c0.38-0.78,0.36-1.7-0.11-2.29l0.01-0.28h0.38l0.02-0.05l0.02-0.21l0.01-0.32
				l0.02-0.4v-0.41l-0.01-0.36l-0.02-0.25l-0.02-0.11h-3.85v-0.35h2.05l0.02-0.05l0.01-0.19l0.02-0.31l0.01-0.36v-0.38l-0.01-0.32
				l-0.01-0.23l-0.02-0.1h-5.08v-0.09l-0.02-0.12h-2.22l-0.01-0.24l-0.02-0.41h1.3l0.02-1.64h-2.19l-0.01-0.26l-0.02-0.38
				l-0.02-0.16h-0.84l-0.02,0.07l-0.01,0.29l-0.01,0.44h-0.52v-0.05l-0.02-0.2l-0.01-0.12l-0.02-0.04h-1.45l-0.01,0.04l-0.02,0.12
				l-0.02,0.19l-0.01,0.07h-0.58v-0.05l-0.01-0.2l-0.01-0.12l-0.01-0.04h-1.45l-0.01,0.04l-0.01,0.12l-0.01,0.19v0.07h-0.15
				l0.01-1.04h26.2c6.57,0,15.62-5.37,15.62-11.95v-12.05c0-6.57-9.04-11.95-15.62-11.95h-63.98c-6.57,0-16.27,5.37-16.27,11.95
				v12.05c0,6.57,9.71,11.95,16.27,11.95h24.29l0.03,3.33h-7.29l-0.01,0.12l-0.01,0.09h-4.2l-0.02,0.1l-0.01,0.23l-0.01,0.32v0.38
				l0.01,0.36l0.01,0.31l0.02,0.19l0.01,0.05h0.5v0.35h-3.16v-0.71l-0.03-1.21l-0.04-1.08l-0.06-0.83l-0.06-0.51l-0.06-0.13
				l-0.17-0.31h-4.04l-0.16,0.31l-0.07,0.26l-0.06,0.64l-0.04,0.95l-0.02,1.17l0.01,1.26l0.04,1.24l0.04,0.83l-0.26,0.3l-0.54,0.23
				l-0.18,0.19l-0.26,0.67l-1.05,1.21l-0.59,0.25l-0.2,0.23l-0.49,1.26l-0.24,0.05l-0.85,0.32l-0.78,0.44l-0.69,0.54l-0.05,0.06
				c-0.02,0.02-0.05,0.05-0.12,0.13c0,0,0.02-0.02,0.03-0.03l-0.02,0.03h-0.01l-0.1,0.12l-0.27,0.29l-0.83,0.32l-0.86,0.48
				l-0.76,0.6l-0.09,0.09l-0.36,0.39l-0.19,0.21l-0.09,0.1l-0.34,0.52l-0.67,0.53l-0.09,0.1l-0.68,0.74l-0.33,0.5l-0.64,0.51
				l-0.1,0.11l-0.71,0.77l-0.28,0.43l0.29-0.23l0.02-0.01c-0.42,0.44-0.81,0.89-1.19,1.32c-0.67,0.59-1.22,1.31-1.61,2.11
				c-0.76,1.15-1.22,2.17-1.2,2.92l0.58,21.29c0.01,0.22,0.02,0.43,0.05,0.64c-0.66,0.05-1.42,0.18-2.28,0.41
				c-2.18,0.56-4.69-0.42-7.14-1.37c-3.62-1.41-7.13-2.77-10.25-0.03c-0.85,0.75-1.43,1.49-1.83,2.22c-1.32,0.37-2.48,1.04-3.4,2.19
				c-0.52,0.65-0.9,1.29-1.18,1.92c-1.61,0.27-3.01,0.93-4.04,2.23c-0.96,1.2-1.41,2.41-1.55,3.57c-1.56,0.24-2.91,0.87-3.92,2.13
				c-4.45,5.56,1.92,12.23,1.93,12.25c0,0-0.57,0.71-0.83,1.07l-0.12,0.81c0,0,0,0,0,0l-0.01,0.03l0.03,0.02
				c0,0-0.01,0.01-0.01,0.02c0,0,0.01-0.01,0.02-0.01l1.8,1.34l-6.52,8.55l-0.07,0.1l-0.12,0.87L126.6,230.75
				C126.6,230.75,126.6,230.75,126.6,230.75z M236.32,112.27c7.38,0,13.37,5.99,13.37,13.37c0,7.38-5.99,13.37-13.37,13.37
				c-7.38,0-13.37-5.99-13.37-13.37C222.95,118.25,228.93,112.27,236.32,112.27z M180.48,139.01c-7.38,0-13.37-5.99-13.37-13.37
				c0-7.38,5.99-13.37,13.37-13.37s13.37,5.99,13.37,13.37C193.85,133.02,187.86,139.01,180.48,139.01z M195.13,125.64
				c0-7.38,5.99-13.37,13.37-13.37c7.38,0,13.37,5.99,13.37,13.37c0,7.38-5.99,13.37-13.37,13.37
				C201.11,139.01,195.13,133.02,195.13,125.64z"/>
		</g>
		<g>
			<path class="st0" d="M252.56,192.4l14.49,21.05c2.36,2.08,3.86,5.12,3.86,8.52c0,2.44-0.78,4.69-2.08,6.55l0.02,0.02l-0.13,0.13
				c-0.7,0.96-1.55,1.8-2.51,2.5l-43.18,43.03c-3.01,5.36-8.74,8.99-15.32,8.99c-9.7,0-17.56-7.86-17.56-17.56
				c0-7.32,4.48-13.58,10.83-16.22l40.45-28.52l-11.74-10.51l-62.39,64.7l-0.17-0.16c-2.06,2.35-4.77,4.1-7.85,5
				c8.27,7.18,16.12,14.86,24.84,21.13c7,5.03,13.62,11.63,20.17,16.57c0.1,0.07,1.2,0.86,2.32,1.63c0.38-0.23,0.75-0.46,1.11-0.71
				c4.97-4.16,8.96-9.31,13.65-13.76c7.1-6.75,15.24-12.65,23.16-18.39c10.23-7.42,20.86-14.24,31.63-20.83l-0.1-0.11h-2.5
				l-0.14-0.3v-0.01l0.39-1.09l0.16-0.47h4.37l0.33-0.1l0.31-0.61l0.27-1.09l0.21-1.48l0.12-1.78l0.05-1.95l-0.06-1.98l-0.13-1.87
				l-0.22-1.63l-0.28-1.27l-0.32-0.84l-0.33-0.34h-0.01l0.05-3.16l-0.55-0.97l-0.83-1.21l0.02-0.99l1.27-0.87l-0.74-0.93l-0.31-0.34
				l12.26-10.12l-0.13-0.88l-0.06-0.1l-6.52-8.55l1.8-1.34c0,0,0.01,0,0.01-0.01l0.04-0.03l-0.13-0.85
				c-0.23-0.32-0.55-0.71-0.9-1.11c1.03-1.18,5.72-7.04,1.73-12.03c-1.01-1.26-2.35-1.89-3.91-2.13c-0.14-1.16-0.58-2.37-1.55-3.57
				c-1.04-1.3-2.43-1.96-4.04-2.23c-0.28-0.63-0.66-1.27-1.18-1.92c-0.92-1.15-2.09-1.82-3.4-2.19c-0.4-0.72-0.98-1.46-1.84-2.21
				c-3.12-2.73-6.62-1.37-10.25,0.03C256.88,191.8,254.6,192.68,252.56,192.4z"/>
		</g>
		<g>
			<path class="st0" d="M238.58,201.15l-6.33,6.56l12.27,10.99l7.8-5.5c1.96-1.62,4.48-2.59,7.22-2.59c0.37,0,0.74,0.02,1.1,0.06
				l-14.61-21.23C245.25,194.29,242.49,198.49,238.58,201.15z"/>
		</g>
	</g>
	<g>
		<polygon class="st4" points="209.29,265.31 209.26,265.31 46.21,189.76 46.21,209.81 209.26,326.61 209.29,326.61 372.34,209.8 
			372.34,189.75 		"/>
	</g>
	<g>
		<path class="st1" d="M208.12,331.07l-1.37-0.95L41.9,212.02v-29.01l167.37,77.56l167.37-77.56v29.01L210.88,330.77L208.12,331.07z
			 M50.52,207.59l158.75,113.73l158.76-113.73V196.5l-157.64,73.05l-1.93,0.14L50.52,196.5V207.59z"/>
	</g>
	<path class="st1" d="M225.8,293.8c-2.74-1.38-5.49-2.09-8.23-2.6c-1.68-0.3-3.36-0.49-5.03-0.6c-0.11-1.68-0.3-3.35-0.6-5.03
		c-0.51-2.74-1.22-5.49-2.6-8.23c-1.37,2.74-2.08,5.49-2.6,8.23c-0.3,1.68-0.49,3.36-0.6,5.03c-1.68,0.11-3.36,0.3-5.03,0.6
		c-2.74,0.51-5.48,1.22-8.23,2.6c2.74,1.37,5.49,2.08,8.23,2.6c1.68,0.3,3.35,0.49,5.03,0.6c0.11,1.68,0.3,3.36,0.6,5.03
		c0.51,2.74,1.22,5.49,2.6,8.23c1.38-2.74,2.09-5.49,2.6-8.23c0.3-1.68,0.49-3.35,0.59-5.03c1.68-0.11,3.35-0.3,5.03-0.6
		C220.32,295.89,223.06,295.18,225.8,293.8z"/>
	<path class="st1" d="M262.43,273.81c-2.74-1.41-5.49-2.13-8.23-2.65c-1.68-0.3-3.36-0.5-5.03-0.61c-0.11-1.71-0.3-3.42-0.6-5.12
		c-0.51-2.8-1.22-5.59-2.6-8.39c-1.37,2.8-2.08,5.59-2.6,8.39c-0.3,1.71-0.49,3.42-0.6,5.13c-1.68,0.11-3.36,0.31-5.03,0.61
		c-2.74,0.52-5.48,1.25-8.23,2.65c2.74,1.4,5.49,2.12,8.23,2.65c1.68,0.3,3.35,0.5,5.03,0.61c0.11,1.71,0.3,3.42,0.6,5.13
		c0.51,2.8,1.22,5.59,2.6,8.39c1.38-2.8,2.09-5.59,2.6-8.39c0.3-1.71,0.49-3.42,0.59-5.13c1.68-0.11,3.35-0.3,5.03-0.61
		C256.95,275.94,259.69,275.22,262.43,273.81z"/>
	<path class="st1" d="M189.17,273.81c-2.74-1.41-5.49-2.13-8.23-2.65c-1.68-0.3-3.36-0.5-5.03-0.61c-0.11-1.71-0.3-3.42-0.6-5.12
		c-0.51-2.8-1.22-5.59-2.6-8.39c-1.37,2.8-2.08,5.59-2.6,8.39c-0.3,1.71-0.49,3.42-0.6,5.13c-1.68,0.11-3.36,0.31-5.03,0.61
		c-2.74,0.52-5.48,1.25-8.23,2.65c2.74,1.4,5.49,2.12,8.23,2.65c1.68,0.3,3.35,0.5,5.03,0.61c0.11,1.71,0.3,3.42,0.6,5.13
		c0.51,2.8,1.22,5.59,2.6,8.39c1.38-2.8,2.09-5.59,2.6-8.39c0.3-1.71,0.49-3.42,0.59-5.13c1.68-0.11,3.35-0.3,5.03-0.61
		C183.69,275.94,186.43,275.22,189.17,273.81z"/>
</g>
</svg>
