<?xml version="1.0" encoding="UTF-8"?>
<svg width="64px" height="208px" viewBox="0 0 64 208" version="1.1" xmlns="http://www.w3.org/2000/svg" xmlns:xlink="http://www.w3.org/1999/xlink">
    <!-- Generator: Sketch 52.2 (67145) - http://www.bohemiancoding.com/sketch -->
    <title>Group 11</title>
    <desc>Created with Sketch.</desc>
    <g id="Page-1" stroke="none" stroke-width="1" fill="none" fill-rule="evenodd">
        <g id="Group-11" transform="translate(4.000000, 2.000000)">
            <g id="Group-6" transform="translate(9.000000, 0.000000)">
                <path d="M19,41 L19,202" id="Line-4" stroke="#FDCD01" stroke-width="8" stroke-linecap="square"></path>
                <circle id="Oval" fill="#FDCD01" cx="19" cy="19" r="19"></circle>
            </g>
            <g id="Group-5" transform="translate(0.000000, 2.000000)">
                <ellipse id="indicator" stroke="#25BC36" stroke-width="8" fill="#25BC36" cx="28" cy="27.5" rx="28" ry="27.5"></ellipse>
                <path d="M28,55 C12.536027,55 0,42.6878306 0,27.5 C0,12.3121694 12.536027,0 28,0 C43.463973,0 56,12.3121694 56,27.5 C56,42.6878306 43.463973,55 28,55 Z M24.9242692,24.0417087 L24.9242692,28.9363344 L28.2981351,28.9363344 C31.8263785,28.9363344 33.5904738,30.5101069 33.5904738,33.6576991 C33.5904738,34.9571638 33.1604756,36.0003295 32.3004662,36.7872275 C31.4404569,37.5741256 30.2533678,37.9675687 28.7391633,37.9675687 C27.416072,37.9675687 26.3024869,37.5921734 25.3983745,36.8413716 C24.4942621,36.0905698 24.0422127,35.1232051 24.0422127,33.9392484 L17.6693548,33.9392484 C17.6693548,36.6681242 18.6873848,38.8627427 20.7234753,40.5231697 C22.7595658,42.1835968 25.3799823,43.0137979 28.5848034,43.0137979 C32.0101398,43.0137979 34.7628634,42.1691585 36.843057,40.4798545 C38.9232505,38.7905504 39.9633317,36.5453979 39.9633317,33.7443296 C39.9633317,32.0117101 39.5186326,30.510129 38.6292213,29.2395413 C37.7398099,27.9689537 36.3910121,27.0160272 34.5827873,26.3807334 C36.0381877,25.731001 37.2142512,24.799732 38.1110131,23.5868983 C39.007775,22.3740646 39.4561492,21.0457429 39.4561492,19.6018933 C39.4561492,16.800825 38.4932472,14.6025969 36.5674143,13.0071431 C34.6415814,11.4116892 31.9807377,10.6139743 28.5848034,10.6139743 C26.6295685,10.6139743 24.8397469,10.9821504 23.2152848,11.7185137 C21.5908227,12.454877 20.3265544,13.4763853 19.422442,14.7830692 C18.5183297,16.0897532 18.0662802,17.5660672 18.0662802,19.2120558 L24.4391381,19.2120558 C24.4391381,18.1580456 24.8507603,17.3025775 25.6740171,16.6456259 C26.4972739,15.9886744 27.5189791,15.6602035 28.7391633,15.6602035 C30.0916566,15.6602035 31.153789,16.0139414 31.9255922,16.7214277 C32.6973955,17.428914 33.0832913,18.4179361 33.0832913,19.6885238 C33.0832913,21.002427 32.6937203,22.0564214 31.9145665,22.8505387 C31.1354128,23.644656 29.9372981,24.0417087 28.3201865,24.0417087 L24.9242692,24.0417087 Z" id="Combined-Shape" fill="#E6FDE8"></path>
            </g>
        </g>
    </g>
</svg>