<?xml version="1.0" encoding="UTF-8"?>
<svg width="64px" height="207px" viewBox="0 0 64 207" version="1.1" xmlns="http://www.w3.org/2000/svg" xmlns:xlink="http://www.w3.org/1999/xlink">
    <!-- Generator: Sketch 52.2 (67145) - http://www.bohemiancoding.com/sketch -->
    <title>Group 10</title>
    <desc>Created with Sketch.</desc>
    <g id="Page-1" stroke="none" stroke-width="1" fill="none" fill-rule="evenodd">
        <g id="Group-10" transform="translate(4.000000, 2.000000)">
            <g id="Group-4" transform="translate(9.000000, 0.000000)">
                <circle id="Oval" fill="#0ABEF4" cx="19" cy="19" r="19"></circle>
                <path d="M18.7117423,41 L18.7117423,200.99375" id="Line-4" stroke="#0ABEF4" stroke-width="8" stroke-linecap="square"></path>
            </g>
            <g id="Group-3" transform="translate(0.000000, 2.000000)">
                <ellipse id="indicator" stroke="#FDCD01" stroke-width="8" fill="#FDCD01" cx="28" cy="27" rx="28" ry="27"></ellipse>
                <path d="M28,54 C12.536027,54 0,41.9116882 0,27 C0,12.0883118 12.536027,0 28,0 C43.463973,0 56,12.0883118 56,27 C56,41.9116882 43.463973,54 28,54 Z M38.6621767,42.0274784 L38.6621767,37.1567264 L25.2970191,37.1567264 L32.3638996,29.8610505 C34.2996509,27.7845249 35.6660432,25.9658503 36.4631172,24.404972 C37.2601913,22.8440937 37.6587224,21.3111113 37.6587224,19.8059786 C37.6587224,17.0605052 36.7727024,14.9352341 35.0006359,13.4301015 C33.2285694,11.9249688 30.7413086,11.1724138 27.5387788,11.1724138 C25.4464593,11.1724138 23.5747866,11.6079202 21.9237046,12.478946 C20.2726225,13.3499718 18.9951881,14.5519694 18.091363,16.0849749 C17.1875379,17.6179804 16.7356322,19.3112292 16.7356322,21.1647721 L22.9271589,21.1647721 C22.9271589,19.6317667 23.3292483,18.3949285 24.1334391,17.4542207 C24.9376299,16.5135128 26.0371486,16.0431659 27.4320283,16.0431659 C28.7272737,16.0431659 29.7236014,16.4298955 30.4210412,17.2033665 C31.118481,17.9768374 31.4671957,19.039473 31.4671957,20.3913051 C31.4671957,21.3807904 31.1362726,22.4260057 30.4744164,23.5269824 C29.8125603,24.627959 28.7913244,25.9170579 27.4106782,27.3943177 L17.3547849,37.8883844 L17.3547849,42.0274784 L38.6621767,42.0274784 Z" id="center" fill="#FFEFC3"></path>
            </g>
        </g>
    </g>
</svg>