<?xml version="1.0" encoding="utf-8"?>
<!-- Generator: Adobe Illustrator 23.0.4, SVG Export Plug-In . SVG Version: 6.00 Build 0)  -->
<svg version="1.1" id="Capa_1" xmlns="http://www.w3.org/2000/svg" xmlns:xlink="http://www.w3.org/1999/xlink" x="0px" y="0px"
	 viewBox="0 0 70 70" style="enable-background:new 0 0 70 70;" xml:space="preserve">
<style type="text/css">
	.st0{fill:#FFFFFF;}
	.st1{fill:none;stroke:#313131;stroke-width:1.092;stroke-linecap:round;stroke-linejoin:round;stroke-miterlimit:10;}
	.st2{fill:#B0D0D1;}
	.st3{fill:none;stroke:#313131;stroke-width:0.865;stroke-linecap:round;stroke-linejoin:round;stroke-miterlimit:10;}
	.st4{fill:#87868A;}
	.st5{fill:none;stroke:#313131;stroke-width:1.098;stroke-linecap:round;stroke-linejoin:round;stroke-miterlimit:10;}
</style>
<title>start</title>
<desc>Created with Sketch.</desc>
<g>
	<path class="st0" d="M54.5,35c0,10.8-8.7,19.5-19.5,19.5S15.5,45.8,15.5,35c0-10.8,8.7-19.5,19.5-19.5S54.5,24.2,54.5,35"/>
	<ellipse transform="matrix(0.9239 -0.3827 0.3827 0.9239 -10.7297 16.0581)" class="st1" cx="35" cy="35" rx="19.5" ry="19.5"/>
	<line class="st0" x1="23.4" y1="44.5" x2="25.2" y2="43.1"/>
	<line class="st1" x1="23.4" y1="44.5" x2="25.2" y2="43.1"/>
	<line class="st0" x1="20.6" y1="39.6" x2="22.8" y2="38.9"/>
	<line class="st1" x1="20.6" y1="39.6" x2="22.8" y2="38.9"/>
	<path class="st0" d="M24.4,45.6c-2.8-2.7-4.5-6.6-4.5-10.8c0-8.4,6.8-15.1,15.1-15.1s15.1,6.8,15.1,15.1c0,2.6-0.7,5-1.8,7.2"/>
	<path class="st1" d="M24.4,45.6c-2.8-2.7-4.5-6.6-4.5-10.8c0-8.4,6.8-15.1,15.1-15.1s15.1,6.8,15.1,15.1c0,2.6-0.7,5-1.8,7.2"/>
	<line class="st0" x1="19.9" y1="33.8" x2="22.3" y2="34"/>
	<line class="st1" x1="19.9" y1="33.8" x2="22.3" y2="34"/>
	<line class="st0" x1="21.4" y1="28.2" x2="23.3" y2="29.2"/>
	<line class="st1" x1="21.4" y1="28.2" x2="23.3" y2="29.2"/>
	<line class="st0" x1="24.8" y1="23.6" x2="26.3" y2="25.2"/>
	<line class="st1" x1="24.8" y1="23.6" x2="26.3" y2="25.2"/>
	<line class="st0" x1="29.8" y1="20.6" x2="30.6" y2="22.7"/>
	<line class="st1" x1="29.8" y1="20.6" x2="30.6" y2="22.7"/>
	<line class="st0" x1="35.5" y1="19.7" x2="35.4" y2="21.9"/>
	<line class="st1" x1="35.5" y1="19.7" x2="35.4" y2="21.9"/>
	<line class="st0" x1="41.2" y1="21" x2="40.3" y2="23"/>
	<line class="st1" x1="41.2" y1="21" x2="40.3" y2="23"/>
	<line class="st0" x1="45.9" y1="24.3" x2="44.3" y2="25.9"/>
	<line class="st1" x1="45.9" y1="24.3" x2="44.3" y2="25.9"/>
	<line class="st0" x1="49.1" y1="29.2" x2="47" y2="30"/>
	<line class="st1" x1="49.1" y1="29.2" x2="47" y2="30"/>
	<line class="st0" x1="50.1" y1="34.9" x2="48" y2="34.9"/>
	<line class="st1" x1="50.1" y1="34.9" x2="48" y2="34.9"/>
	<line class="st0" x1="49" y1="40.5" x2="47" y2="39.7"/>
	<line class="st1" x1="49" y1="40.5" x2="47" y2="39.7"/>
	<rect x="28.5" y="45" class="st2" width="12.6" height="3.2"/>
	<rect x="28.5" y="45" class="st3" width="12.6" height="3.2"/>
	<line class="st0" x1="35.4" y1="34.8" x2="43.1" y2="31.3"/>
	<line class="st1" x1="35.4" y1="34.8" x2="43.1" y2="31.3"/>
	<path class="st4" d="M32.6,34.7c0.1-1.5,1.4-2.7,2.9-2.7s2.7,1.4,2.7,2.9c-0.1,1.5-1.4,2.7-2.9,2.7c-0.6,0-1.2-0.2-1.6-0.6
		C33,36.5,32.5,35.6,32.6,34.7"/>
	<path class="st5" d="M32.6,34.7c0.1-1.5,1.4-2.7,2.9-2.7s2.7,1.4,2.7,2.9c-0.1,1.5-1.4,2.7-2.9,2.7c-0.6,0-1.2-0.2-1.6-0.6
		C33,36.5,32.5,35.6,32.6,34.7z"/>
</g>
</svg>
