<?xml version="1.0" encoding="utf-8"?>
<!-- Generator: Adobe Illustrator 23.0.4, SVG Export Plug-In . SVG Version: 6.00 Build 0)  -->
<svg version="1.1" id="Capa_1" xmlns="http://www.w3.org/2000/svg" xmlns:xlink="http://www.w3.org/1999/xlink" x="0px" y="0px"
	 viewBox="0 0 70 70" style="enable-background:new 0 0 70 70;" xml:space="preserve">
<style type="text/css">
	.st0{fill:#FFFFFF;}
	.st1{fill:none;stroke:#313131;stroke-width:0.828;stroke-linecap:round;stroke-linejoin:round;stroke-miterlimit:10;}
	.st2{fill:#6E9AA0;}
	.st3{fill:#59AF3C;}
	.st4{fill:none;stroke:#313131;stroke-width:0.988;stroke-miterlimit:10;}
	.st5{fill:#71BF76;}
</style>
<title>start</title>
<desc>Created with Sketch.</desc>
<g>
	<path class="st0" d="M55.1,38.4c0,11.1-9,20.1-20.1,20.1c-11.1,0-20.1-9-20.1-20.1c0-11.1,9-20.1,20.1-20.1
		C46.1,18.3,55.1,27.3,55.1,38.4"/>
	<ellipse transform="matrix(0.9239 -0.3827 0.3827 0.9239 -12.0169 16.3142)" class="st1" cx="35" cy="38.4" rx="20.1" ry="20.1"/>
	<line class="st0" x1="23.1" y1="48.2" x2="24.9" y2="46.7"/>
	<line class="st1" x1="23.1" y1="48.2" x2="24.9" y2="46.7"/>
	<line class="st0" x1="20.2" y1="43.1" x2="22.4" y2="42.4"/>
	<line class="st1" x1="20.2" y1="43.1" x2="22.4" y2="42.4"/>
	<path class="st1" d="M24,49.3c-2.9-2.8-4.6-6.8-4.6-11.1c0-8.6,7-15.6,15.6-15.6c8.6,0,15.6,7,15.6,15.6c0,2.7-0.7,5.2-1.9,7.4"/>
	<line class="st0" x1="19.4" y1="37.1" x2="21.9" y2="37.3"/>
	<line class="st1" x1="19.4" y1="37.1" x2="21.9" y2="37.3"/>
	<line class="st0" x1="20.9" y1="31.4" x2="23" y2="32.4"/>
	<line class="st1" x1="20.9" y1="31.4" x2="23" y2="32.4"/>
	<line class="st0" x1="24.5" y1="26.6" x2="26" y2="28.3"/>
	<line class="st1" x1="24.5" y1="26.6" x2="26" y2="28.3"/>
	<line class="st0" x1="35.5" y1="22.5" x2="35.5" y2="24.9"/>
	<line class="st1" x1="35.5" y1="22.5" x2="35.5" y2="24.9"/>
	<line class="st0" x1="41.4" y1="23.9" x2="40.4" y2="26"/>
	<line class="st1" x1="41.4" y1="23.9" x2="40.4" y2="26"/>
	<line class="st0" x1="46.3" y1="27.3" x2="44.6" y2="28.9"/>
	<line class="st1" x1="46.3" y1="27.3" x2="44.6" y2="28.9"/>
	<line class="st0" x1="49.5" y1="32.3" x2="47.4" y2="33.2"/>
	<line class="st1" x1="49.5" y1="32.3" x2="47.4" y2="33.2"/>
	<line class="st0" x1="50.6" y1="38.2" x2="48.4" y2="38.2"/>
	<line class="st1" x1="50.6" y1="38.2" x2="48.4" y2="38.2"/>
	<line class="st0" x1="49.5" y1="44" x2="47.4" y2="43.2"/>
	<line class="st1" x1="49.5" y1="44" x2="47.4" y2="43.2"/>
	<rect x="28.3" y="48.7" class="st2" width="13" height="3.3"/>
	<rect x="28.3" y="48.7" class="st1" width="13" height="3.3"/>
	<polygon class="st3" points="33.5,39.2 31.3,28.1 37.5,37.1 	"/>
	<polygon class="st4" points="33.5,39.2 31.3,28.1 37.5,37.1 	"/>
	<path class="st3" d="M32.5,38c0.1-1.6,1.4-2.8,3-2.8c1.6,0.1,2.8,1.4,2.8,3c-0.1,1.6-1.4,2.8-3,2.8c-0.6,0-1.2-0.3-1.6-0.6
		C32.9,39.9,32.5,39,32.5,38"/>
	<path class="st4" d="M32.5,38c0.1-1.6,1.4-2.8,3-2.8c1.6,0.1,2.8,1.4,2.8,3c-0.1,1.6-1.4,2.8-3,2.8c-0.6,0-1.2-0.3-1.6-0.6
		C32.9,39.9,32.5,39,32.5,38z"/>
	<path class="st5" d="M23.1,21.3l7.2,4.4c0.1,0,0.2,0,0.2-0.1l1.9-8.2c0-0.1-0.1-0.2-0.2-0.1l-2.2,0.9c-0.1,0-0.1,0-0.2-0.1
		l-2.7-6.5c0-0.1-0.1-0.1-0.2-0.1l-4.3,1.8c-0.1,0-0.1,0.1-0.1,0.2l2.7,6.5c0,0.1,0,0.1-0.1,0.2l-2.2,0.9C23,21.1,23,21.2,23.1,21.3
		"/>
	<path class="st1" d="M23.1,21.3l7.2,4.4c0.1,0,0.2,0,0.2-0.1l1.9-8.2c0-0.1-0.1-0.2-0.2-0.1l-2.2,0.9c-0.1,0-0.1,0-0.2-0.1
		l-2.7-6.5c0-0.1-0.1-0.1-0.2-0.1l-4.3,1.8c-0.1,0-0.1,0.1-0.1,0.2l2.7,6.5c0,0.1,0,0.1-0.1,0.2l-2.2,0.9C23,21.1,23,21.2,23.1,21.3
		z"/>
</g>
</svg>
