<?xml version="1.0" encoding="utf-8"?>
<!-- Generator: Adobe Illustrator 23.0.4, SVG Export Plug-In . SVG Version: 6.00 Build 0)  -->
<svg version="1.1" id="Capa_1" xmlns="http://www.w3.org/2000/svg" xmlns:xlink="http://www.w3.org/1999/xlink" x="0px" y="0px"
	 viewBox="0 0 70 70" style="enable-background:new 0 0 70 70;" xml:space="preserve">
<style type="text/css">
	.st0{fill:#313131;}
	.st1{fill:#F2B53B;}
	.st2{fill:#9EC3C6;}
	.st3{fill:none;stroke:#333333;stroke-width:1.226;stroke-linecap:round;stroke-linejoin:round;stroke-miterlimit:10;}
</style>
<title>start</title>
<desc>Created with Sketch.</desc>
<g>
	<path class="st0" d="M13.8,23.1c-3.5,0-6.4,2.9-6.4,6.4c0,3.5,2.9,6.4,6.4,6.4c3.5,0,6.4-2.9,6.4-6.4C20.2,26,17.3,23.1,13.8,23.1"
		/>
	<path class="st0" d="M13.8,22.2c0.4,0,0.6-0.3,0.6-0.6v-2.1c0-0.4-0.3-0.6-0.6-0.6c-0.4,0-0.6,0.3-0.6,0.6v2.1
		C13.1,21.9,13.4,22.2,13.8,22.2"/>
	<path class="st0" d="M13.8,37c-0.4,0-0.6,0.3-0.6,0.6v2.1c0,0.4,0.3,0.6,0.6,0.6c0.4,0,0.6-0.3,0.6-0.6v-2.1
		C14.4,37.2,14.1,37,13.8,37"/>
	<path class="st0" d="M6.4,29.6c0-0.4-0.3-0.6-0.6-0.6H3.6c-0.4,0-0.6,0.3-0.6,0.6c0,0.4,0.3,0.6,0.6,0.6h2.1
		C6.1,30.2,6.4,29.9,6.4,29.6"/>
	<path class="st0" d="M24,28.9h-2.1c-0.4,0-0.6,0.3-0.6,0.6c0,0.4,0.3,0.6,0.6,0.6H24c0.4,0,0.6-0.3,0.6-0.6
		C24.6,29.2,24.3,28.9,24,28.9"/>
	<path class="st0" d="M19.5,24.5c0.2,0,0.3-0.1,0.5-0.2l1.5-1.5c0.2-0.2,0.2-0.7,0-0.9c-0.2-0.2-0.7-0.2-0.9,0l-1.5,1.5
		c-0.2,0.2-0.2,0.7,0,0.9C19.2,24.4,19.3,24.5,19.5,24.5"/>
	<path class="st0" d="M7.6,34.8l-1.5,1.5c-0.2,0.2-0.2,0.7,0,0.9c0.1,0.1,0.3,0.2,0.5,0.2c0.2,0,0.3-0.1,0.5-0.2l1.5-1.5
		c0.2-0.2,0.2-0.7,0-0.9C8.3,34.6,7.9,34.6,7.6,34.8"/>
	<path class="st0" d="M7.6,24.3c0.1,0.1,0.3,0.2,0.5,0.2c0.2,0,0.3-0.1,0.5-0.2c0.2-0.2,0.2-0.7,0-0.9L7,21.9
		c-0.2-0.2-0.7-0.2-0.9,0c-0.2,0.2-0.2,0.7,0,0.9L7.6,24.3z"/>
	<path class="st0" d="M20,34.8c-0.2-0.2-0.7-0.2-0.9,0c-0.2,0.2-0.2,0.7,0,0.9l1.5,1.5c0.1,0.1,0.3,0.2,0.5,0.2
		c0.2,0,0.3-0.1,0.5-0.2c0.2-0.2,0.2-0.7,0-0.9L20,34.8z"/>
	<path class="st1" d="M13.8,34.7c-2.8,0-5.1-2.3-5.1-5.1c0-2.8,2.3-5.1,5.1-5.1c2.8,0,5.1,2.3,5.1,5.1
		C18.9,32.4,16.6,34.7,13.8,34.7"/>
	<path class="st2" d="M45.2,53.3h2.6c3.6,0,6.6-3,6.6-6.6c0-3.5-2.8-6.4-6.3-6.6c-0.3-4.7-4.2-8.4-9-8.4c-4.2,0-7.7,2.8-8.7,6.7
		c-0.6-0.4-1.3-0.6-2-0.6c-2.2,0-3.9,1.8-3.9,3.9c0,0,0,0,0,0c-0.2,0-0.5,0-0.7,0c-3.2,0-5.7,2.6-5.7,5.7c0,3.2,2.6,5.7,5.7,5.7h3.8
		H45.2z"/>
	<path class="st3" d="M45.2,53.3h2.6c3.6,0,6.6-3,6.6-6.6c0-3.5-2.8-6.4-6.3-6.6c-0.3-4.7-4.2-8.4-9-8.4c-4.2,0-7.7,2.8-8.7,6.7
		c-0.6-0.4-1.3-0.6-2-0.6c-2.2,0-3.9,1.8-3.9,3.9c0,0,0,0,0,0c-0.2,0-0.5,0-0.7,0c-3.2,0-5.7,2.6-5.7,5.7c0,3.2,2.6,5.7,5.7,5.7h3.8
		H45.2z"/>
	<path d="M58,35.8c-7.9,0-12-9.3-7-15.2c1.9-2.3,3.8-2.8,6.5-3.3c-0.7,1.1-1.3,1.9-1.7,3.1c-1.7,5.4,2.4,10.8,7.9,10.8
		c0.9,0,1.6-0.2,2.5-0.3C64.1,33.9,61.8,35.8,58,35.8 M64.2,32.1c-0.2,0.1-0.3,0.1-0.5,0.1c-6.2,0-10.6-6.1-8.8-12
		c0.2-0.5,0.4-1,0.6-1.6c-1.6,0.5-2.9,1.4-4,2.6c-4.5,5.3-0.8,13.7,6.4,13.7C60.4,34.9,62.6,33.9,64.2,32.1"/>
</g>
</svg>
