<?xml version="1.0" encoding="utf-8"?>
<!-- Generator: Adobe Illustrator 23.0.4, SVG Export Plug-In . SVG Version: 6.00 Build 0)  -->
<svg version="1.1" id="Capa_1" xmlns="http://www.w3.org/2000/svg" xmlns:xlink="http://www.w3.org/1999/xlink" x="0px" y="0px"
	 viewBox="0 0 70 70" style="enable-background:new 0 0 70 70;" xml:space="preserve">
<style type="text/css">
	.st0{fill:#71BF76;}
	.st1{fill:none;stroke:#333333;stroke-width:0.955;stroke-linecap:round;stroke-linejoin:round;stroke-miterlimit:10;}
	.st2{fill:#9EC3C6;}
	.st3{fill:none;stroke:#333333;stroke-width:0.969;stroke-linecap:round;stroke-linejoin:round;stroke-miterlimit:10;}
	.st4{fill:#FFFFFF;}
	.st5{fill:none;stroke:#333333;stroke-width:0.969;stroke-linecap:round;stroke-miterlimit:10;}
	.st6{fill:none;stroke:#333333;stroke-width:0.969;stroke-linecap:round;stroke-miterlimit:10;stroke-dasharray:3.434,3.434;}
	.st7{fill:none;stroke:#333333;stroke-width:0.969;stroke-miterlimit:10;}
</style>
<title>start</title>
<desc>Created with Sketch.</desc>
<g>
	<path class="st0" d="M50.5,37.6c1.1-0.7,1.6-2.4,1.1-3.6c-0.6-1.3-2-2.2-3.4-2.2H35.4c-1.5,0-2.8,0.9-3.4,2.2
		c-0.5,1.2,0.1,3,1.1,3.6"/>
	<path class="st1" d="M50.5,37.6c1.1-0.7,1.6-2.4,1.1-3.6c-0.6-1.3-2-2.2-3.4-2.2H35.4c-1.5,0-2.8,0.9-3.4,2.2
		c-0.5,1.2,0.1,3,1.1,3.6"/>
	<line class="st1" x1="36.2" y1="37.9" x2="47.6" y2="37.9"/>
	<path class="st1" d="M60.8,37.9h-1.3c-1.6,0-3.1-0.9-3.9-2.3l-2.3-4.1c-0.9-1.4-2-2.2-3.4-2.2H33.7c-1.5,0-2.6,0.7-3.4,2.2
		l-2.6,4.2c-1.2,1.7-2.3,2.1-3.8,2.1H8"/>
	<path class="st2" d="M41.8,58.5c-0.1,0-0.1,0-0.2,0c-6.8-0.2-12.1-5.8-12-12.6c0.2-6.7,5.6-12,12.1-12h0c6.6,0.1,12,5.4,12.1,12
		c0.2,6.8-5.2,12.5-12,12.6C41.9,58.5,41.9,58.5,41.8,58.5"/>
	<path class="st3" d="M41.8,58.5c-0.1,0-0.1,0-0.2,0c-6.8-0.2-12.1-5.8-12-12.6c0.2-6.7,5.6-12,12.1-12h0c6.6,0.1,12,5.4,12.1,12
		c0.2,6.8-5.2,12.5-12,12.6C41.9,58.5,41.9,58.5,41.8,58.5"/>
	<path class="st4" d="M41.8,43.4c1.1,0,2.3,0.2,3.4,0.5l5.4,1.8c0.2,0.1,0.5,0.1,0.7,0c0.5-0.2,0.7-0.9,0.6-1.4
		c-1.3-4.9-5.3-8.4-10-8.4c-4.7,0-8.7,3.5-10,8.4c-0.2,0.6,0.1,1.2,0.6,1.4c0.2,0.1,0.4,0.1,0.7,0l5.4-1.8
		C39.5,43.5,40.7,43.3,41.8,43.4L41.8,43.4z"/>
	<path class="st3" d="M41.8,43.4c1.1,0,2.3,0.2,3.4,0.5l5.4,1.8c0.2,0.1,0.5,0.1,0.7,0c0.5-0.2,0.7-0.9,0.6-1.4
		c-1.3-4.9-5.3-8.4-10-8.4c-4.7,0-8.7,3.5-10,8.4c-0.2,0.6,0.1,1.2,0.6,1.4c0.2,0.1,0.4,0.1,0.7,0l5.4-1.8
		C39.5,43.5,40.7,43.3,41.8,43.4L41.8,43.4z"/>
	<path class="st4" d="M41.8,49.4C41.8,49.4,41.8,49.4,41.8,49.4c1.1,0,2-0.8,2-1.9c0-1.1-0.8-1.9-1.9-2c0,0-0.1,0-0.1,0
		c-1,0-1.8,0.8-1.9,1.9C39.9,48.5,40.8,49.4,41.8,49.4"/>
	<path class="st3" d="M41.8,49.4C41.8,49.4,41.8,49.4,41.8,49.4c1.1,0,2-0.8,2-1.9c0-1.1-0.8-1.9-1.9-2c0,0-0.1,0-0.1,0
		c-1,0-1.8,0.8-1.9,1.9C39.9,48.5,40.8,49.4,41.8,49.4z"/>
	<path class="st4" d="M38.9,55.3c0.4,0,0.8-0.3,1-0.7c0.2-0.5,0-1.2-0.6-1.4c-2.4-1-3.5-3-3.5-3c-0.3-0.5-0.9-0.7-1.4-0.5
		c-0.5,0.3-0.7,0.9-0.5,1.4c0.1,0.1,1.5,2.7,4.6,4C38.6,55.3,38.8,55.3,38.9,55.3"/>
	<path class="st5" d="M38.9,55.3c0.4,0,0.8-0.3,1-0.7c0.2-0.5,0-1.2-0.6-1.4c-2.4-1-3.5-3-3.5-3c-0.3-0.5-0.9-0.7-1.4-0.5
		c-0.5,0.3-0.7,0.9-0.5,1.4c0.1,0.1,1.5,2.7,4.6,4C38.6,55.3,38.8,55.3,38.9,55.3z"/>
	<path class="st4" d="M44.9,55.3c-0.4,0-0.8-0.3-1-0.7c-0.2-0.5,0-1.2,0.6-1.4c2.4-1,3.5-3,3.5-3c0.3-0.5,0.9-0.7,1.4-0.5
		c0.5,0.3,0.7,0.9,0.5,1.4c-0.1,0.1-1.5,2.7-4.6,4C45.1,55.3,45,55.3,44.9,55.3"/>
	<path class="st5" d="M44.9,55.3c-0.4,0-0.8-0.3-1-0.7c-0.2-0.5,0-1.2,0.6-1.4c2.4-1,3.5-3,3.5-3c0.3-0.5,0.9-0.7,1.4-0.5
		c0.5,0.3,0.7,0.9,0.5,1.4c-0.1,0.1-1.5,2.7-4.6,4C45.1,55.3,45,55.3,44.9,55.3z"/>
	<line class="st5" x1="50.4" y1="11.5" x2="61.6" y2="34.4"/>
	<line class="st5" x1="20.7" y1="11.5" x2="9.5" y2="34.4"/>
	<line class="st5" x1="35.5" y1="11.5" x2="35.5" y2="13.8"/>
	<line class="st6" x1="35.5" y1="17.2" x2="35.5" y2="22.4"/>
	<line class="st5" x1="35.5" y1="24.1" x2="35.5" y2="26.3"/>
	<path class="st7" d="M55.7,50.8c2.4-2.1,2.3-4.6,0.3-6.9"/>
	<path class="st7" d="M57.1,52.4c3.2-2.8,3.2-6.7,0.5-9.9"/>
	<path class="st7" d="M58.7,54c4.2-3.7,4.2-8.8,0.6-13"/>
	<path class="st7" d="M26.8,50.8c-2.4-2.1-2.3-4.6-0.3-6.9"/>
	<path class="st7" d="M25.4,52.4c-3.2-2.8-3.2-6.7-0.5-9.9"/>
	<path class="st7" d="M23.9,54c-4.2-3.7-4.2-8.8-0.6-13"/>
</g>
</svg>
