<?xml version="1.0" encoding="utf-8"?>
<!-- Generator: Adobe Illustrator 23.0.4, SVG Export Plug-In . SVG Version: 6.00 Build 0)  -->
<svg version="1.1" id="Capa_1" xmlns="http://www.w3.org/2000/svg" xmlns:xlink="http://www.w3.org/1999/xlink" x="0px" y="0px"
	 viewBox="0 0 70 70" style="enable-background:new 0 0 70 70;" xml:space="preserve">
<style type="text/css">
	.st0{fill:#2F6768;}
	.st1{fill:none;stroke:#313131;stroke-width:1.007;stroke-linecap:round;stroke-linejoin:round;stroke-miterlimit:10;}
	.st2{fill:#FFFFFF;}
	.st3{fill:#87868A;}
	.st4{fill:none;stroke:#313131;stroke-width:1.098;stroke-linecap:round;stroke-linejoin:round;stroke-miterlimit:10;}
	.st5{fill:none;stroke:#313131;stroke-width:0.75;stroke-linecap:round;stroke-linejoin:round;stroke-miterlimit:10;}
	.st6{fill:#313131;}
	.st7{fill:#9EC3C6;}
	.st8{fill:#59AF3C;}
	.st9{fill:none;stroke:#313131;stroke-width:0.988;stroke-miterlimit:10;}
	.st10{fill:none;stroke:#363636;stroke-width:0.892;stroke-linecap:round;stroke-linejoin:round;stroke-miterlimit:10;}
</style>
<title>start</title>
<desc>Created with Sketch.</desc>
<path class="st0" d="M27.5,46.9v1.8c0,0.6-0.5,1.1-1,1.1h-3.7c-0.8,0-1.4-0.7-1.3-1.5l0.4-12"/>
<path class="st1" d="M27.5,46.9v1.8c0,0.6-0.5,1.1-1,1.1h-3.7c-0.8,0-1.4-0.7-1.3-1.5l0.4-12"/>
<path class="st0" d="M59.4,46.9v1.8c0,0.6,0.5,1.1,1,1.1h3.7c0.8,0,1.4-0.7,1.3-1.5l-0.4-12"/>
<path class="st1" d="M59.4,46.9v1.8c0,0.6,0.5,1.1,1,1.1h3.7c0.8,0,1.4-0.7,1.3-1.5l-0.4-12"/>
<path class="st2" d="M33,14.8c-1.1,0-2.1,0.6-2.8,1.5c-2.9,4-5.5,10.7-6.2,12.5c-0.1,0.3-0.3,0.6-0.6,0.8l-1.3,1
	c-0.4,0.3-0.7,0.9-0.6,1.5l1.3,13.4c0.1,0.8,0.7,1.4,1.4,1.4h38.7c0.7,0,1.3-0.6,1.4-1.4l1.3-13.4c0.1-0.6-0.2-1.1-0.6-1.5l-1.3-1
	c-0.3-0.2-0.5-0.5-0.6-0.8c-0.7-1.9-3.3-8.5-6.2-12.5c-0.7-0.9-1.7-1.5-2.8-1.5H33z"/>
<path class="st1" d="M33,14.8c-1.1,0-2.1,0.6-2.8,1.5c-2.9,4-5.5,10.7-6.2,12.5c-0.1,0.3-0.3,0.6-0.6,0.8l-1.3,1
	c-0.4,0.3-0.7,0.9-0.6,1.5l1.3,13.4c0.1,0.8,0.7,1.4,1.4,1.4h38.7c0.7,0,1.3-0.6,1.4-1.4l1.3-13.4c0.1-0.6-0.2-1.1-0.6-1.5l-1.3-1
	c-0.3-0.2-0.5-0.5-0.6-0.8c-0.7-1.9-3.3-8.5-6.2-12.5c-0.7-0.9-1.7-1.5-2.8-1.5H33z"/>
<path class="st3" d="M25.9,31l3.8,0.9c1.1,0.3,2.3,1.7,3,2.7c0.2,0.3,0,0.8-0.4,0.8l-7.6-0.8c-0.5,0-0.8-0.4-0.9-0.9
	c-0.1-0.9,0.1-1.7,0.6-2.2C24.8,31,25.4,30.9,25.9,31"/>
<path class="st4" d="M25.9,31l3.8,0.9c1.1,0.3,2.3,1.7,3,2.7c0.2,0.3,0,0.8-0.4,0.8l-7.6-0.8c-0.5,0-0.8-0.4-0.9-0.9
	c-0.1-0.9,0.1-1.7,0.6-2.2C24.8,31,25.4,30.9,25.9,31z"/>
<line class="st2" x1="40.7" y1="43.3" x2="28.2" y2="42.8"/>
<line class="st5" x1="40.7" y1="43.3" x2="28.2" y2="42.8"/>
<path class="st6" d="M24.2,27.9v-2.6c0-0.3-0.2-0.5-0.5-0.5h-2c-0.9,0-1.6,0.6-1.8,1.5l-0.1,0.5c-0.1,0.4,0.2,0.8,0.7,0.9L24.2,27.9
	z"/>
<path class="st5" d="M24.2,27.9v-2.6c0-0.3-0.2-0.5-0.5-0.5h-2c-0.9,0-1.6,0.6-1.8,1.5l-0.1,0.5c-0.1,0.4,0.2,0.8,0.7,0.9L24.2,27.9
	z"/>
<path class="st7" d="M58.4,26.9l-3.5-8.3c-0.4-1.1-1.3-1.7-2.1-1.7H34.1c-0.9,0-1.7,0.7-2.1,1.7l-3.5,8.3c-0.2,0.4,0,1,0.4,1h29
	C58.3,27.9,58.5,27.3,58.4,26.9"/>
<path class="st1" d="M58.4,26.9l-3.5-8.3c-0.4-1.1-1.3-1.7-2.1-1.7H34.1c-0.9,0-1.7,0.7-2.1,1.7l-3.5,8.3c-0.2,0.4,0,1,0.4,1h29
	C58.3,27.9,58.5,27.3,58.4,26.9z"/>
<path class="st3" d="M61,31l-3.8,0.9c-1.1,0.3-2.3,1.7-3,2.7c-0.2,0.3,0,0.8,0.4,0.8l7.6-0.8c0.5,0,0.8-0.4,0.9-0.9
	c0.1-0.9-0.1-1.7-0.6-2.2C62.1,31,61.5,30.9,61,31"/>
<path class="st4" d="M61,31l-3.8,0.9c-1.1,0.3-2.3,1.7-3,2.7c-0.2,0.3,0,0.8,0.4,0.8l7.6-0.8c0.5,0,0.8-0.4,0.9-0.9
	c0.1-0.9-0.1-1.7-0.6-2.2C62.1,31,61.5,30.9,61,31z"/>
<path class="st8" d="M49.8,32.9H37c-0.5,0-0.8,0.3-0.7,0.7l0.7,1.7c0.4,0.9,1.3,1.6,2.5,1.6h7.8c1.2-0.1,2.1-0.7,2.5-1.6l0.7-1.7
	C50.6,33.2,50.2,32.8,49.8,32.9"/>
<path class="st9" d="M49.8,32.9H37c-0.5,0-0.8,0.3-0.7,0.7l0.7,1.7c0.4,0.9,1.3,1.6,2.5,1.6h7.8c1.2-0.1,2.1-0.7,2.5-1.6l0.7-1.7
	C50.6,33.2,50.2,32.8,49.8,32.9z"/>
<line class="st2" x1="46.2" y1="43.3" x2="58.6" y2="42.8"/>
<line class="st5" x1="46.2" y1="43.3" x2="58.6" y2="42.8"/>
<path class="st6" d="M62.8,27.9v-2.6c0-0.3,0.2-0.5,0.5-0.5h2c0.9,0,1.6,0.6,1.8,1.5l0.1,0.5c0.1,0.4-0.2,0.8-0.7,0.9L62.8,27.9z"/>
<path class="st5" d="M62.8,27.9v-2.6c0-0.3,0.2-0.5,0.5-0.5h2c0.9,0,1.6,0.6,1.8,1.5l0.1,0.5c0.1,0.4-0.2,0.8-0.7,0.9L62.8,27.9z"/>
<path class="st8" d="M27.4,44.3h-1.1c-0.4,0-0.8-0.4-0.8-0.8v-2c0-0.4,0.4-0.8,0.8-0.8h1.1c0.4,0,0.8,0.4,0.8,0.8v2
	C28.2,44,27.8,44.3,27.4,44.3"/>
<path class="st9" d="M27.4,44.3h-1.1c-0.4,0-0.8-0.4-0.8-0.8v-2c0-0.4,0.4-0.8,0.8-0.8h1.1c0.4,0,0.8,0.4,0.8,0.8v2
	C28.2,44,27.8,44.3,27.4,44.3z"/>
<path class="st8" d="M60.7,44.3h-1.1c-0.4,0-0.8-0.4-0.8-0.8v-2c0-0.4,0.4-0.8,0.8-0.8h1.1c0.4,0,0.8,0.4,0.8,0.8v2
	C61.5,44,61.2,44.3,60.7,44.3"/>
<path class="st9" d="M60.7,44.3h-1.1c-0.4,0-0.8-0.4-0.8-0.8v-2c0-0.4,0.4-0.8,0.8-0.8h1.1c0.4,0,0.8,0.4,0.8,0.8v2
	C61.5,44,61.2,44.3,60.7,44.3z"/>
<rect x="39" y="41.7" class="st8" width="8.8" height="2.8"/>
<rect x="39" y="41.7" class="st9" width="8.8" height="2.8"/>
<path class="st2" d="M33.9,51.1c1.3,0,2.4-0.1,2.4-2c0-1.3-1.1-1.8-2.4-1.8c1.3,0,2.4-0.6,2.4-2.1c0-1.5-1-1.9-2.4-1.9l-0.5,0
	c1.3,0,2.4-0.6,2.4-2.1c0-1.6-1.1-2.1-2.4-2.1l-0.5,0c1.3,0,2-0.7,2-2.2c0-1.3-0.9-1.8-2-1.9L26.6,35c-2.5,0-4.9,0.8-6.8,2.2
	c-1.4,1-3.1,1.6-4.9,1.6l-12.5,0L2.6,49l12.8,0c0.8,0,1.5,0.3,2,0.9c0.4,0.4,0.8,0.9,1,1.2c0.6,0.7,1.5,1.1,2.3,1.3
	c1.5,0.3,4,1.3,5.6,1.6c0.9,0.2,1.9-0.5,2.5-1.3l1.2-1.8l0,0L33.9,51.1z"/>
<polyline class="st10" points="34.1,47.2 33.9,47.2 32,47.2 "/>
<polyline class="st10" points="33.9,51.1 30.1,51.1 26.2,51 "/>
<polyline class="st10" points="34.1,43.2 33.9,43.2 33.4,43.1 32,43.1 "/>
<polyline class="st10" points="33.9,38.9 33.5,38.9 33,38.9 32,38.9 "/>
<path class="st10" d="M2.6,49l12.8,0c0.8,0,1.5,0.3,2,0.9c0.4,0.4,0.8,0.9,1.1,1.2c0.6,0.7,1.5,1.1,2.3,1.3c1.5,0.3,4,1.3,5.6,1.6
	c0.9,0.2,1.9-0.5,2.5-1.3l1.2-1.8l0,0"/>
<path class="st10" d="M2.4,38.8l12.5,0c1.8,0,3.5-0.5,4.9-1.6c1.9-1.4,4.2-2.2,6.8-2.2l6.4-0.1c1.1,0.1,2,0.6,2,1.9
	c0,1.4-0.7,2.2-2,2.2l0.5,0c1.3,0,2.4,0.5,2.4,2.1c0,1.5-1.1,2.1-2.4,2.1l0.5,0c1.3,0,2.4,0.5,2.4,1.9c0,1.5-1.1,2.1-2.4,2.1
	c1.3,0,2.4,0.5,2.4,1.8c0,1.9-1.1,2-2.4,2"/>
<path class="st2" d="M13.3,50.2h-1.1c-0.8,0-1.4-0.6-1.4-1.4v-9.2c0-0.8,0.6-1.4,1.4-1.4h1.1c0.8,0,1.4,0.6,1.4,1.4v9.2
	C14.8,49.5,14.1,50.2,13.3,50.2"/>
<path class="st10" d="M13.3,50.2h-1.1c-0.8,0-1.4-0.6-1.4-1.4v-9.2c0-0.8,0.6-1.4,1.4-1.4h1.1c0.8,0,1.4,0.6,1.4,1.4v9.2
	C14.8,49.5,14.1,50.2,13.3,50.2z"/>
<path class="st2" d="M13.3,47.9h-1c-1.6,0-2.8-1.3-2.8-2.8v-1.8c0-1.6,1.3-2.8,2.8-2.8h1c1.6,0,2.8,1.3,2.8,2.8v1.8
	C16.2,46.6,14.9,47.9,13.3,47.9"/>
<path class="st10" d="M13.3,47.9h-1c-1.6,0-2.8-1.3-2.8-2.8v-1.8c0-1.6,1.3-2.8,2.8-2.8h1c1.6,0,2.8,1.3,2.8,2.8v1.8
	C16.2,46.6,14.9,47.9,13.3,47.9z"/>
<path class="st10" d="M11.9,44.1c0.2-0.1,0.3-0.1,0.5-0.2c0.2,0,0.3-0.1,0.5-0.1s0.3,0,0.5,0.1c0.2,0,0.3,0.1,0.5,0.2"/>
<path class="st10" d="M11.4,42.9c0.2-0.1,0.5-0.2,0.7-0.2c0.2,0,0.5-0.1,0.7-0.1c0.2,0,0.5,0,0.7,0.1c0.2,0.1,0.4,0.1,0.7,0.2"/>
<line class="st10" x1="12.8" y1="45.2" x2="12.8" y2="45.2"/>
</svg>
