<?xml version="1.0" encoding="utf-8"?>
<!-- Generator: Adobe Illustrator 23.0.4, SVG Export Plug-In . SVG Version: 6.00 Build 0)  -->
<svg version="1.1" id="Capa_1" xmlns="http://www.w3.org/2000/svg" xmlns:xlink="http://www.w3.org/1999/xlink" x="0px" y="0px"
	 viewBox="0 0 90.1 70" style="enable-background:new 0 0 90.1 70;" xml:space="preserve">
<style type="text/css">
	.st0{fill-rule:evenodd;clip-rule:evenodd;fill:#FCBD0D;}
	.st1{fill:none;stroke:#313131;stroke-width:1.248;stroke-miterlimit:10;}
	.st2{fill-rule:evenodd;clip-rule:evenodd;fill:#FFFFFF;}
	.st3{fill:none;stroke:#313131;stroke-width:1.022;stroke-linecap:round;stroke-linejoin:round;stroke-miterlimit:10;}
	.st4{fill:none;stroke:#313131;stroke-width:1.336;stroke-miterlimit:10;}
</style>
<title>start</title>
<desc>Created with Sketch.</desc>
<g>
	<path class="st0" d="M87,36.8L69.6,54.3c-1,1-2.7,1-3.7,0L48.4,36.8c-1-1-1-2.7,0-3.7l17.4-17.4c1-1,2.7-1,3.7,0L87,33.2
		C88,34.2,88,35.8,87,36.8"/>
	<path class="st1" d="M87,36.8L69.6,54.3c-1,1-2.7,1-3.7,0L48.4,36.8c-1-1-1-2.7,0-3.7l17.4-17.4c1-1,2.7-1,3.7,0L87,33.2
		C88,34.2,88,35.8,87,36.8z"/>
	<path class="st2" d="M80.4,36.2L68.6,48c-0.7,0.7-1.8,0.7-2.5,0L54.3,36.2c-0.7-0.7-0.7-1.8,0-2.5L66.1,22c0.7-0.7,1.8-0.7,2.5,0
		l11.8,11.8C81.1,34.4,81.1,35.6,80.4,36.2"/>
	<path class="st3" d="M80.4,36.2L68.6,48c-0.7,0.7-1.8,0.7-2.5,0L54.3,36.2c-0.7-0.7-0.7-1.8,0-2.5L66.1,22c0.7-0.7,1.8-0.7,2.5,0
		l11.8,11.8C81.1,34.4,81.1,35.6,80.4,36.2z"/>
	<path class="st4" d="M78,35.4h-6.1C71.1,37,69.4,38,67.5,38c-1.9,0-3.6-1.1-4.4-2.7h-6"/>
	<path class="st0" d="M41.3,36.8L23.9,54.3c-1,1-2.7,1-3.7,0L2.7,36.8c-1-1-1-2.7,0-3.7l17.4-17.4c1-1,2.7-1,3.7,0l17.4,17.4
		C42.3,34.2,42.3,35.8,41.3,36.8"/>
	<path class="st1" d="M41.3,36.8L23.9,54.3c-1,1-2.7,1-3.7,0L2.7,36.8c-1-1-1-2.7,0-3.7l17.4-17.4c1-1,2.7-1,3.7,0l17.4,17.4
		C42.3,34.2,42.3,35.8,41.3,36.8z"/>
	<path class="st2" d="M34.7,36.2L22.9,48c-0.7,0.7-1.8,0.7-2.5,0L8.7,36.2c-0.7-0.7-0.7-1.8,0-2.5L20.5,22c0.7-0.7,1.8-0.7,2.5,0
		l11.8,11.8C35.4,34.4,35.4,35.6,34.7,36.2"/>
	<path class="st3" d="M34.7,36.2L22.9,48c-0.7,0.7-1.8,0.7-2.5,0L8.7,36.2c-0.7-0.7-0.7-1.8,0-2.5L20.5,22c0.7-0.7,1.8-0.7,2.5,0
		l11.8,11.8C35.4,34.4,35.4,35.6,34.7,36.2z"/>
	<path class="st4" d="M32.3,35.4h-6.1c-0.8-1.6-2.5-2.7-4.4-2.7c-1.9,0-3.6,1.1-4.4,2.7h-6"/>
</g>
</svg>
