<?xml version="1.0" encoding="utf-8"?>
<!-- Generator: Adobe Illustrator 23.0.4, SVG Export Plug-In . SVG Version: 6.00 Build 0)  -->
<svg version="1.1" id="Capa_1" xmlns="http://www.w3.org/2000/svg" xmlns:xlink="http://www.w3.org/1999/xlink" x="0px" y="0px"
	 viewBox="0 0 70 70" style="enable-background:new 0 0 70 70;" xml:space="preserve">
<style type="text/css">
	.st0{fill:#FFFFFF;}
	.st1{fill:none;stroke:#313131;stroke-width:0.841;stroke-linecap:round;stroke-linejoin:round;stroke-miterlimit:10;}
	.st2{fill:#BF0811;}
	.st3{fill:none;stroke:#313131;stroke-width:1.098;stroke-linecap:round;stroke-linejoin:round;stroke-miterlimit:10;}
</style>
<title>start</title>
<desc>Created with Sketch.</desc>
<g>
	<path class="st0" d="M42.1,26.4h4.9c0.3,0,0.4,0.4,0.1,0.5l-5,2.7"/>
	<path class="st1" d="M42.1,26.4h4.9c0.3,0,0.4,0.4,0.1,0.5l-5,2.7"/>
	<path class="st0" d="M42.1,39.1h4.9c0.3,0,0.4,0.4,0.1,0.5l-5,2.7"/>
	<path class="st1" d="M42.1,39.1h4.9c0.3,0,0.4,0.4,0.1,0.5l-5,2.7"/>
	<path class="st0" d="M41,13.7h6c0.3,0,0.4,0.4,0.1,0.5l-5,2.7"/>
	<path class="st1" d="M41,13.7h6c0.3,0,0.4,0.4,0.1,0.5l-5,2.7"/>
	<path class="st0" d="M27.9,26.4h-4.9c-0.3,0-0.4,0.4-0.1,0.5l5,2.7"/>
	<path class="st1" d="M27.9,26.4h-4.9c-0.3,0-0.4,0.4-0.1,0.5l5,2.7"/>
	<path class="st0" d="M27.9,39.1h-4.9c-0.3,0-0.4,0.4-0.1,0.5l5,2.7"/>
	<path class="st1" d="M27.9,39.1h-4.9c-0.3,0-0.4,0.4-0.1,0.5l5,2.7"/>
	<path class="st0" d="M29.2,13.7h-6.1c-0.3,0-0.4,0.4-0.1,0.5l5,2.7"/>
	<path class="st1" d="M29.2,13.7h-6.1c-0.3,0-0.4,0.4-0.1,0.5l5,2.7"/>
	<rect x="33.3" y="51" class="st0" width="3.4" height="7.8"/>
	<rect x="33.3" y="51" class="st1" width="3.4" height="7.8"/>
	<path class="st0" d="M36.4,52.6h-2.7c-3.1,0-5.7-2.6-5.7-5.7v-30c0-3.1,2.6-5.7,5.7-5.7h2.7c3.1,0,5.7,2.6,5.7,5.7v30
		C42.1,50,39.5,52.6,36.4,52.6"/>
	<path class="st1" d="M36.4,52.6h-2.7c-3.1,0-5.7-2.6-5.7-5.7v-30c0-3.1,2.6-5.7,5.7-5.7h2.7c3.1,0,5.7,2.6,5.7,5.7v30
		C42.1,50,39.5,52.6,36.4,52.6z"/>
	<path class="st0" d="M39.6,32.4c0,2.5-2,4.6-4.6,4.6c-2.5,0-4.6-2-4.6-4.6c0-2.5,2-4.6,4.6-4.6C37.5,27.9,39.6,29.9,39.6,32.4"/>
	<path class="st1" d="M39.6,32.4c0,2.5-2,4.6-4.6,4.6c-2.5,0-4.6-2-4.6-4.6c0-2.5,2-4.6,4.6-4.6C37.5,27.9,39.6,29.9,39.6,32.4z"/>
	<path class="st1" d="M30.6,28.1c1-1.4,2.6-2.2,4.5-2.2c1.9,0,3.6,1,4.6,2.4"/>
	<path class="st1" d="M30.6,40.9c1-1.4,2.6-2.2,4.5-2.2c1.9,0,3.6,1,4.6,2.4"/>
	<path class="st0" d="M39.6,45.1c0,2.5-2,4.6-4.6,4.6c-2.5,0-4.6-2-4.6-4.6c0-2.5,2-4.6,4.6-4.6C37.5,40.6,39.6,42.6,39.6,45.1"/>
	<path class="st1" d="M39.6,45.1c0,2.5-2,4.6-4.6,4.6c-2.5,0-4.6-2-4.6-4.6c0-2.5,2-4.6,4.6-4.6C37.5,40.6,39.6,42.6,39.6,45.1z"/>
	<path class="st2" d="M39.6,19.7c0,2.5-2,4.6-4.6,4.6c-2.5,0-4.6-2-4.6-4.6c0-2.5,2-4.6,4.6-4.6C37.5,15.1,39.6,17.2,39.6,19.7"/>
	<path class="st3" d="M39.6,19.7c0,2.5-2,4.6-4.6,4.6c-2.5,0-4.6-2-4.6-4.6c0-2.5,2-4.6,4.6-4.6C37.5,15.1,39.6,17.2,39.6,19.7z"/>
	<path class="st1" d="M30.6,15.4c1-1.4,2.6-2.2,4.5-2.2c1.9,0,3.6,1,4.6,2.4"/>
</g>
</svg>
