<?xml version="1.0" encoding="utf-8"?>
<!-- Generator: Adobe Illustrator 23.0.4, SVG Export Plug-In . SVG Version: 6.00 Build 0)  -->
<svg version="1.1" id="Capa_1" xmlns="http://www.w3.org/2000/svg" xmlns:xlink="http://www.w3.org/1999/xlink" x="0px" y="0px"
	 viewBox="0 0 70 70" style="enable-background:new 0 0 70 70;" xml:space="preserve">
<style type="text/css">
	.st0{fill:none;stroke:#313131;stroke-width:0.853;stroke-linecap:round;stroke-linejoin:round;stroke-miterlimit:10;}
	.st1{fill:#E9F2F2;}
	.st2{fill:#FFFFFF;}
	.st3{fill:#C5D3D3;}
</style>
<title>start</title>
<desc>Created with Sketch.</desc>
<g>
	<path class="st0" d="M9.5,29.9l2.5,4.5c0.2,0.3,0.5,0.4,0.7,0l2.9-4.2"/>
	<path class="st0" d="M59.3,45.4l-1.6-4.9c-0.1-0.4-0.4-0.5-0.7-0.2l-3.6,3.6"/>
	<path class="st0" d="M56.7,43.1c-0.3,0.9-0.7,1.8-1.1,2.7C51.5,54.2,42.9,59,34.1,58.7c-2.5-0.1-5-0.6-7.5-1.6"/>
	<path class="st0" d="M12.6,31.9c0.4-2,1-4,1.9-5.9c3.7-7.7,11.2-12.4,19.1-12.9"/>
	<path class="st1" d="M51.9,36.5c0,9.2-7.6,16.6-16.9,16.6c-9.4,0-16.9-7.4-16.9-16.6c0-9.2,7.6-16.6,16.9-16.6
		C44.3,19.9,51.9,27.3,51.9,36.5"/>
	<path class="st0" d="M51.9,36.5c0,9.2-7.6,16.6-16.9,16.6c-9.4,0-16.9-7.4-16.9-16.6c0-9.2,7.6-16.6,16.9-16.6
		C44.3,19.9,51.9,27.3,51.9,36.5z"/>
	<path class="st2" d="M33.6,27.6c0.5-0.1,0.9-0.1,1.4-0.1c0.4,0,0.8,0,1.3,0.1c4.4,0.6,7.9,4.4,7.9,8.9c0,5-4.1,9-9.1,9
		c-5,0-9.1-4-9.1-9C25.8,32,29.2,28.3,33.6,27.6"/>
	<path class="st0" d="M33.6,27.6c0.5-0.1,0.9-0.1,1.4-0.1c0.4,0,0.8,0,1.3,0.1c4.4,0.6,7.9,4.4,7.9,8.9c0,5-4.1,9-9.1,9
		c-5,0-9.1-4-9.1-9C25.8,32,29.2,28.3,33.6,27.6z"/>
	<path class="st0" d="M33.2,25.6c0.6-0.1,1.1-0.1,1.7-0.1c0.5,0,1,0,1.6,0.1c5.5,0.7,9.7,5.4,9.7,10.9c0,6.1-5,11-11.2,11
		c-6.2,0-11.2-4.9-11.2-11C23.7,31,27.9,26.4,33.2,25.6z"/>
	<path class="st0" d="M29.6,29.3l2.3,4c0,0.1,0,0.1-0.1,0.1l-4-2.2c0.3-0.4,0.6-0.7,0.9-1C28.9,29.9,29.2,29.6,29.6,29.3z"/>
	<path class="st0" d="M27.8,41.9l4-2.3c0.1,0,0.1,0,0.1,0.1l-2.2,4c-0.4-0.3-0.7-0.6-1-0.9C28.3,42.5,28,42.2,27.8,41.9z"/>
	<path class="st0" d="M40.3,43.7l-2.3-4c0-0.1,0-0.1,0.1-0.1l4.1,2.2c-0.3,0.4-0.6,0.7-0.9,1C41,43.1,40.7,43.4,40.3,43.7z"/>
	<path class="st0" d="M42.1,31.1l-4,2.3c-0.1,0-0.2,0-0.1-0.1l2.2-4c0.4,0.3,0.7,0.6,1,0.9C41.6,30.5,41.9,30.8,42.1,31.1z"/>
	<polyline class="st0" points="32.1,20.1 32.2,21.1 31.3,22.7 	"/>
	<polyline class="st0" points="34.9,19.9 34.9,20.8 33.7,22.3 	"/>
	<polyline class="st0" points="29.3,20.9 29.6,21.8 29,23.6 	"/>
	<polyline class="st0" points="26.6,22.1 27.1,22.9 26.8,24.8 	"/>
	<polyline class="st0" points="24.3,23.8 24.9,24.5 24.9,26.4 	"/>
	<polyline class="st0" points="22.2,25.8 23,26.4 23.3,28.3 	"/>
	<polyline class="st0" points="20.5,28.2 21.4,28.7 22.1,30.4 	"/>
	<polyline class="st0" points="19.3,30.8 20.2,31.1 21.2,32.8 	"/>
	<polyline class="st0" points="18.6,33.6 19.5,33.8 20.8,35.2 	"/>
	<polyline class="st0" points="18.3,36.5 19.3,36.5 20.8,37.7 	"/>
	<polyline class="st0" points="18.6,39.4 19.5,39.2 21.2,40.1 	"/>
	<polyline class="st0" points="19.3,42.2 20.2,41.9 22,42.5 	"/>
	<polyline class="st0" points="20.5,44.8 21.4,44.3 23.3,44.6 	"/>
	<polyline class="st0" points="22.2,47.2 23,46.6 24.8,46.5 	"/>
	<polyline class="st0" points="24.3,49.2 24.9,48.5 26.7,48.1 	"/>
	<polyline class="st0" points="26.6,50.9 27.1,50.1 28.9,49.4 	"/>
	<polyline class="st0" points="29.3,52.1 29.6,51.2 31.2,50.2 	"/>
	<polyline class="st0" points="32.1,52.9 32.2,51.9 33.7,50.7 	"/>
	<polyline class="st0" points="34.9,53.1 34.9,52.2 36.1,50.7 	"/>
	<polyline class="st0" points="37.8,52.9 37.7,51.9 38.6,50.3 	"/>
	<polyline class="st0" points="40.6,52.1 40.3,51.2 40.9,49.4 	"/>
	<polyline class="st0" points="43.3,50.9 42.8,50.1 43.1,48.2 	"/>
	<polyline class="st0" points="45.6,49.2 45,48.5 45,46.6 	"/>
	<polyline class="st0" points="47.7,47.2 46.9,46.6 46.6,44.7 	"/>
	<polyline class="st0" points="49.4,44.8 48.5,44.3 47.8,42.6 	"/>
	<polyline class="st0" points="50.6,42.2 49.7,41.9 48.7,40.2 	"/>
	<polyline class="st0" points="51.3,39.4 50.4,39.2 49.1,37.8 	"/>
	<polyline class="st0" points="51.6,36.5 50.6,36.5 49.1,35.3 	"/>
	<polyline class="st0" points="51.3,33.6 50.4,33.8 48.7,32.9 	"/>
	<polyline class="st0" points="50.6,30.8 49.7,31.1 47.9,30.5 	"/>
	<polyline class="st0" points="49.4,28.2 48.5,28.7 46.6,28.4 	"/>
	<polyline class="st0" points="47.7,25.8 46.9,26.4 45,26.5 	"/>
	<polyline class="st0" points="45.6,23.8 45,24.5 43.1,24.9 	"/>
	<polyline class="st0" points="43.3,22.1 42.8,22.9 41,23.6 	"/>
	<polyline class="st0" points="40.6,20.9 40.3,21.8 38.7,22.8 	"/>
	<polyline class="st0" points="37.8,20.1 37.7,21.1 36.2,22.3 	"/>
	<path class="st3" d="M37.1,36.5c0,1.2-1,2.1-2.1,2.1c-1.2,0-2.1-0.9-2.1-2.1c0-1.2,1-2.1,2.1-2.1C36.1,34.4,37.1,35.3,37.1,36.5"/>
	<path class="st0" d="M37.1,36.5c0,1.2-1,2.1-2.1,2.1c-1.2,0-2.1-0.9-2.1-2.1c0-1.2,1-2.1,2.1-2.1C36.1,34.4,37.1,35.3,37.1,36.5z"
		/>
	<path class="st0" d="M37.9,28c-0.2,1.4-1.5,2.5-3,2.5s-2.8-1.1-3-2.5"/>
	<path class="st0" d="M26.5,33.5c1.4,0.2,2.5,1.5,2.5,3s-1.1,2.8-2.5,3"/>
	<path class="st0" d="M32,45c0.2-1.4,1.5-2.5,3-2.5s2.8,1.1,3,2.5"/>
	<path class="st0" d="M43.4,39.5c-1.4-0.2-2.5-1.5-2.5-3s1.1-2.8,2.5-3"/>
</g>
</svg>
