<?xml version="1.0" encoding="utf-8"?>
<!-- Generator: Adobe Illustrator 23.0.4, SVG Export Plug-In . SVG Version: 6.00 Build 0)  -->
<svg version="1.1" id="Capa_1" xmlns="http://www.w3.org/2000/svg" xmlns:xlink="http://www.w3.org/1999/xlink" x="0px" y="0px"
	 viewBox="0 0 70 70" style="enable-background:new 0 0 70 70;" xml:space="preserve">
<style type="text/css">
	.st0{fill:none;stroke:#313131;stroke-width:0.982;stroke-linecap:round;stroke-linejoin:round;stroke-miterlimit:10;}
	.st1{fill:#FFDE94;}
	.st2{fill:none;stroke:#313131;stroke-width:0.884;stroke-miterlimit:10;}
	.st3{fill:#FFFFFF;}
	.st4{fill:#FCBD0D;}
	.st5{fill:#313131;}
	.st6{fill:#2F6768;}
	.st7{fill:#E9F2F2;}
	.st8{fill:#F2B53B;}
</style>
<title>start</title>
<desc>Created with Sketch.</desc>
<g>
	<polyline class="st0" points="19.1,52.3 28,52.4 38.3,62.8 54,53.7 30.6,43.9 48.2,25 36.9,13.5 50.8,13.1 	"/>
	<path class="st1" d="M62.8,13.1c0,3.3-6,11-6,11s-6-7.7-6-11c0-3.3,2.7-5.9,6-5.9C60.1,7.2,62.8,9.8,62.8,13.1"/>
	<path class="st2" d="M62.8,13.1c0,3.3-6,11-6,11s-6-7.7-6-11c0-3.3,2.7-5.9,6-5.9C60.1,7.2,62.8,9.8,62.8,13.1z"/>
	<path class="st3" d="M59.7,13.5c0,1.6-1.3,2.9-2.9,2.9s-2.9-1.3-2.9-2.9c0-1.6,1.3-2.9,2.9-2.9S59.7,11.9,59.7,13.5"/>
	<path class="st0" d="M59.7,13.5c0,1.6-1.3,2.9-2.9,2.9s-2.9-1.3-2.9-2.9c0-1.6,1.3-2.9,2.9-2.9S59.7,11.9,59.7,13.5z"/>
	<path class="st4" d="M19.2,51.8c0,3.3-6,11-6,11s-6-7.7-6-11c0-3.3,2.7-5.9,6-5.9C16.5,45.8,19.2,48.5,19.2,51.8"/>
	<path class="st2" d="M19.2,51.8c0,3.3-6,11-6,11s-6-7.7-6-11c0-3.3,2.7-5.9,6-5.9C16.5,45.8,19.2,48.5,19.2,51.8z"/>
	<path class="st3" d="M16.1,52.2c0,1.6-1.3,2.9-2.9,2.9c-1.6,0-2.9-1.3-2.9-2.9c0-1.6,1.3-2.9,2.9-2.9
		C14.8,49.3,16.1,50.6,16.1,52.2"/>
	<path class="st0" d="M16.1,52.2c0,1.6-1.3,2.9-2.9,2.9c-1.6,0-2.9-1.3-2.9-2.9c0-1.6,1.3-2.9,2.9-2.9
		C14.8,49.3,16.1,50.6,16.1,52.2z"/>
	<path class="st3" d="M56.9,41.8c1.5-0.5,2.7-2,2.7-3.7v-0.5c0-2.3-0.9-7.1-4.1-7.7c-2.2-0.4-5.6-1.8-8.4-2.9c-2.8-1.1-5-2.2-5-2.2
		c-2.5-1.4-6.4-2.1-9.3-1.9l-10,1c-1.6,0-3,1-3.6,2.4l-2.3,5.3c-0.9,2.2,0.5,9.7,1.5,10.4c0-2.6,2-4.7,4.4-4.7c2.4,0,4.4,2,4.4,4.6
		L48,42v-0.3c0-2.5,2-4.4,4.4-4.4C54.9,37.2,56.9,39.3,56.9,41.8"/>
	<path class="st5" d="M18.3,42.4c-0.1,0-0.1,0-0.2-0.1c-1.2-0.9-2.5-8.6-1.6-10.8l2.3-5.3c0.7-1.5,2.2-2.6,3.9-2.6l10-1
		c3.1-0.3,7.1,0.5,9.5,1.9c0,0,2.2,1.1,5,2.2l0.1,0.1c2.7,1.1,6,2.4,8.2,2.8c3.6,0.7,4.4,6,4.4,8v0.5c0,1.8-1.2,3.4-2.9,4
		c-0.2,0.1-0.4,0-0.4-0.2c0-0.1,0-0.1,0-0.2c0-2.3-1.9-4.2-4.1-4.2c-2.2,0-4.1,1.8-4.1,4.1V42c0,0.2-0.2,0.3-0.3,0.3l-20.9,0h0
		c-0.1,0-0.2,0-0.2-0.1c-0.1-0.1-0.1-0.1-0.1-0.2c0-2.4-1.8-4.3-4.1-4.3c-2.2,0-4,1.9-4,4.3c0,0.1-0.1,0.2-0.2,0.3
		C18.4,42.4,18.3,42.4,18.3,42.4 M22.6,37c2.5,0,4.6,2,4.7,4.6l20.3,0c0-2.6,2.2-4.8,4.8-4.8c2.5,0,4.5,1.9,4.8,4.4
		c1.2-0.6,2-1.8,2-3.2v-0.5c0-2.6-1-6.8-3.9-7.3c-2.2-0.4-5.6-1.8-8.3-2.9l-0.1-0.1c-2.8-1.1-5-2.2-5-2.2c-2.3-1.3-6.2-2.1-9.1-1.8
		l-10,1c0,0,0,0,0,0c-1.4,0-2.7,0.9-3.3,2.2l-2.3,5.3c-0.7,1.8,0.2,7.2,1,9.3C18.5,38.7,20.4,37,22.6,37"/>
	<path class="st6" d="M25.8,41.9c0,1.7-1.4,3.1-3.1,3.1c-1.7,0-3.1-1.4-3.1-3.1c0-1.7,1.4-3.1,3.1-3.1
		C24.4,38.8,25.8,40.2,25.8,41.9"/>
	<path class="st5" d="M22.6,45.4c-1.9,0-3.5-1.6-3.5-3.5c0-1.9,1.6-3.5,3.5-3.5c1.9,0,3.5,1.6,3.5,3.5
		C26.1,43.8,24.6,45.4,22.6,45.4 M22.6,39.1c-1.5,0-2.8,1.3-2.8,2.8c0,1.5,1.3,2.8,2.8,2.8c1.5,0,2.8-1.3,2.8-2.8
		C25.5,40.4,24.2,39.1,22.6,39.1"/>
	<path class="st7" d="M23.4,41.9c0,0.5-0.4,0.8-0.8,0.8c-0.5,0-0.8-0.4-0.8-0.8c0-0.5,0.4-0.8,0.8-0.8C23.1,41,23.4,41.4,23.4,41.9"
		/>
	<path class="st5" d="M22.6,43c-0.6,0-1.2-0.5-1.2-1.2c0-0.6,0.5-1.2,1.2-1.2c0.6,0,1.2,0.5,1.2,1.2C23.8,42.5,23.3,43,22.6,43
		 M22.6,41.4c-0.3,0-0.5,0.2-0.5,0.5c0,0.3,0.2,0.5,0.5,0.5c0.3,0,0.5-0.2,0.5-0.5C23.1,41.6,22.9,41.4,22.6,41.4"/>
	<path class="st6" d="M55.7,42c0,1.8-1.5,3.3-3.3,3.3c-1.8,0-3.3-1.5-3.3-3.3c0-1.8,1.5-3.3,3.3-3.3C54.3,38.7,55.7,40.2,55.7,42"/>
	<path class="st5" d="M52.4,45.6c-2,0-3.6-1.6-3.6-3.6s1.6-3.6,3.6-3.6c2,0,3.6,1.6,3.6,3.6S54.4,45.6,52.4,45.6 M52.4,39
		c-1.6,0-3,1.3-3,3c0,1.6,1.3,3,3,3c1.6,0,3-1.3,3-3C55.4,40.4,54.1,39,52.4,39"/>
	<path class="st7" d="M53.3,42c0,0.5-0.4,0.9-0.9,0.9s-0.9-0.4-0.9-0.9c0-0.5,0.4-0.9,0.9-0.9S53.3,41.5,53.3,42"/>
	<path class="st5" d="M52.4,43.2c-0.7,0-1.2-0.5-1.2-1.2s0.5-1.2,1.2-1.2c0.7,0,1.2,0.5,1.2,1.2S53.1,43.2,52.4,43.2 M52.4,41.4
		c-0.3,0-0.5,0.2-0.5,0.5s0.2,0.5,0.5,0.5c0.3,0,0.5-0.2,0.5-0.5S52.7,41.4,52.4,41.4"/>
	<path class="st5" d="M16.9,31.7c-0.1,0-0.3-0.1-0.3-0.2c-0.1-0.2,0-0.4,0.2-0.4l2.5-1c0.4-0.2,0.6-0.7,0.5-1.1
		c-0.2-0.5-0.1-1.1,0.2-1.5l1.2-1.7c0.2-0.2,0.2-0.5,0.1-0.8L21,24.4c-0.1-0.2,0-0.4,0.2-0.4c0.2-0.1,0.4,0,0.5,0.2l0.3,0.5
		c0,0,0,0,0,0c0.2,0.5,0.1,1-0.2,1.5l-1.2,1.7c-0.2,0.3-0.2,0.6-0.1,0.9c0.3,0.8-0.1,1.6-0.8,2L17,31.7C17,31.7,16.9,31.7,16.9,31.7
		"/>
	<path class="st5" d="M24.1,38c-0.2,0-0.3-0.1-0.3-0.3L22.4,29c-0.2-0.9-0.1-1.7,0.3-2.4c0.5-0.7,1.3-1.2,2.4-1.4c0,0,0,0,0,0
		l8.9-0.8c2.2-0.1,4.4,0.4,6.4,1.5l9.5,4.5c0.3,0.1,0.4,0.4,0.3,0.7c-0.1,0.3-0.3,0.5-0.6,0.5l-23.9-0.2c0,0,0,0-0.1,0
		c-1-0.1-1.8-0.8-2-1.8l-0.5-2.2c-0.2,0.4-0.2,1,0,1.5c0,0,0,0,0,0l1.3,8.7C24.4,37.8,24.3,37.9,24.1,38C24.1,38,24.1,38,24.1,38"/>
	<path class="st5" d="M39.5,32.9h-2.5c-0.2,0-0.3-0.1-0.3-0.3s0.1-0.3,0.3-0.3h2.5c0.2,0,0.3,0.1,0.3,0.3S39.7,32.9,39.5,32.9"/>
	<path class="st5" d="M28.2,32.5h-2.7c-0.2,0-0.3-0.1-0.3-0.3s0.2-0.3,0.3-0.3h2.7c0.2,0,0.3,0.1,0.3,0.3S28.4,32.5,28.2,32.5"/>
	<path class="st5" d="M48.1,40.9H28.7c-0.6,0-1.2-0.2-1.7-0.7l-1.3-1.1c-0.1-0.1-0.2-0.3,0-0.5c0.1-0.1,0.3-0.2,0.5,0l1.4,1.1
		c0.4,0.3,0.8,0.5,1.3,0.5h19.4c0.2,0,0.3,0.1,0.3,0.3C48.5,40.7,48.3,40.9,48.1,40.9"/>
	<path class="st5" d="M58.2,33.3C58.2,33.3,58.2,33.3,58.2,33.3c-0.2,0-3.8-0.3-4.2-3l0-0.1c0-0.2,0.1-0.4,0.3-0.4
		c0.2,0,0.4,0.1,0.4,0.3l0,0.1c0.3,2.1,3.6,2.4,3.6,2.4c0.2,0,0.3,0.2,0.3,0.4C58.5,33.2,58.4,33.3,58.2,33.3"/>
	<path class="st8" d="M54.6,30.1c0,0,2.2,0,3.4,2.5C58.1,32.6,54.9,32.3,54.6,30.1"/>
	<path class="st7" d="M23.7,26.6l0.6,2.8c0.2,0.7,0.8,1.3,1.4,1.3l23.7,0.2l-9.3-4.4c-1.9-1-4-1.5-6.1-1.4l-8.8,0.8
		C24.6,26,24,26.2,23.7,26.6"/>
	<path class="st5" d="M35.9,40.5c-0.2,0-0.3-0.1-0.3-0.3l-1.2-15.3c0-0.2,0.1-0.3,0.3-0.4c0.2,0,0.3,0.1,0.4,0.3l1.2,15.3
		C36.3,40.3,36.1,40.5,35.9,40.5C35.9,40.5,35.9,40.5,35.9,40.5"/>
</g>
</svg>
