<?xml version="1.0" encoding="utf-8"?>
<!-- Generator: Adobe Illustrator 23.0.4, SVG Export Plug-In . SVG Version: 6.00 Build 0)  -->
<svg version="1.1" id="Capa_1" xmlns="http://www.w3.org/2000/svg" xmlns:xlink="http://www.w3.org/1999/xlink" x="0px" y="0px"
	 viewBox="0 0 70 70" style="enable-background:new 0 0 70 70;" xml:space="preserve">
<style type="text/css">
	.st0{fill:#FFFFFF;}
	.st1{fill:#313131;}
	.st2{fill:#F1DA8E;}
	.st3{fill:#59AF3C;}
	.st4{fill:none;stroke:#313131;stroke-width:1.098;stroke-linecap:round;stroke-linejoin:round;stroke-miterlimit:10;}
</style>
<title>start</title>
<desc>Created with Sketch.</desc>
<g>
	<polygon class="st0" points="44.6,33.5 43.7,26.8 38.9,26.8 33.6,26.8 33.4,33.5 	"/>
	<path class="st1" d="M44.6,33.8H33.4c-0.1,0-0.2,0-0.3-0.1c-0.1-0.1-0.1-0.2-0.1-0.3l0.2-6.7c0-0.2,0.2-0.3,0.3-0.3h10.1
		c0.2,0,0.3,0.1,0.3,0.3l0.9,6.7c0,0.1,0,0.2-0.1,0.3C44.8,33.8,44.7,33.8,44.6,33.8 M33.8,33.2h10.4l-0.8-6H34L33.8,33.2z"/>
	<polygon class="st0" points="33.4,33.5 33.6,26.8 24.9,26.8 23.6,33.5 	"/>
	<path class="st1" d="M33.4,33.8h-9.8c-0.1,0-0.2,0-0.3-0.1c-0.1-0.1-0.1-0.2-0.1-0.3l1.3-6.7c0-0.2,0.2-0.3,0.3-0.3h8.7
		c0.1,0,0.2,0,0.3,0.1c0.1,0.1,0.1,0.2,0.1,0.3l-0.2,6.7C33.7,33.7,33.6,33.8,33.4,33.8 M24,33.2h9l0.2-6h-8.1L24,33.2z"/>
	<polygon class="st0" points="23.6,33.5 22,41.2 33.1,41.2 33.4,33.5 	"/>
	<path class="st1" d="M33.1,41.6H22c-0.1,0-0.2,0-0.3-0.1c-0.1-0.1-0.1-0.2-0.1-0.3l1.6-7.7c0-0.2,0.2-0.3,0.3-0.3h9.8
		c0.1,0,0.2,0,0.3,0.1c0.1,0.1,0.1,0.2,0.1,0.3l-0.3,7.7C33.5,41.4,33.3,41.6,33.1,41.6 M22.4,40.9h10.3l0.3-7h-9.2L22.4,40.9z"/>
	<polygon class="st0" points="24.9,26.8 18.2,26.8 15.5,33.5 23.6,33.5 	"/>
	<path class="st1" d="M23.6,33.8h-8c-0.1,0-0.2-0.1-0.3-0.2c-0.1-0.1-0.1-0.2,0-0.3l2.6-6.7c0.1-0.1,0.2-0.2,0.3-0.2h6.8
		c0.1,0,0.2,0,0.3,0.1c0.1,0.1,0.1,0.2,0.1,0.3l-1.3,6.7C23.9,33.7,23.8,33.8,23.6,33.8 M16.1,33.2h7.2l1.2-6h-6.1L16.1,33.2z"/>
	<polygon class="st0" points="33.4,33.5 33.1,41.2 45.6,41.2 44.6,33.5 	"/>
	<path class="st1" d="M45.6,41.6H33.1c-0.1,0-0.2,0-0.3-0.1c-0.1-0.1-0.1-0.2-0.1-0.3l0.3-7.7c0-0.2,0.2-0.3,0.3-0.3h11.2
		c0.2,0,0.3,0.1,0.3,0.3l1,7.7c0,0.1,0,0.2-0.1,0.3C45.8,41.5,45.7,41.6,45.6,41.6 M33.5,40.9h11.7l-0.9-7H33.7L33.5,40.9z"/>
	<polygon class="st0" points="53.6,33.5 44.6,33.5 45.6,41.2 56.4,41.2 51.2,26.8 43.7,26.8 44.6,33.5 	"/>
	<path class="st1" d="M56.4,41.6H45.6c-0.2,0-0.3-0.1-0.3-0.3l-1-7.7v0l-0.9-6.7c0-0.1,0-0.2,0.1-0.3c0.1-0.1,0.2-0.1,0.3-0.1h7.5
		c0.1,0,0.3,0.1,0.3,0.2l5.2,14.4c0,0.1,0,0.2,0,0.3C56.6,41.5,56.5,41.6,56.4,41.6 M45.9,40.9h10l-2.6-7H45L45.9,40.9z M44.9,33.2
		h8.2l-2.2-6h-6.8L44.9,33.2z"/>
	<polygon class="st0" points="56.4,41.2 45.6,41.2 46.5,47.9 58.8,47.9 	"/>
	<path class="st1" d="M58.8,48.3H46.5c-0.2,0-0.3-0.1-0.3-0.3l-0.9-6.7c0-0.1,0-0.2,0.1-0.3c0.1-0.1,0.2-0.1,0.3-0.1h10.8
		c0.1,0,0.3,0.1,0.3,0.2l2.4,6.7c0,0.1,0,0.2,0,0.3C59,48.2,58.9,48.3,58.8,48.3 M46.8,47.6h11.6l-2.2-6H46L46.8,47.6z"/>
	<polygon class="st0" points="33.1,41.2 32.9,47.9 46.5,47.9 45.6,41.2 	"/>
	<path class="st1" d="M46.5,48.3H32.9c-0.1,0-0.2,0-0.3-0.1c-0.1-0.1-0.1-0.2-0.1-0.3l0.2-6.7c0-0.2,0.2-0.3,0.3-0.3h12.5
		c0.2,0,0.3,0.1,0.3,0.3l0.9,6.7c0,0.1,0,0.2-0.1,0.3C46.7,48.3,46.6,48.3,46.5,48.3 M33.2,47.6h12.8l-0.8-6H33.5L33.2,47.6z"/>
	<polygon class="st0" points="12.5,41.2 9.9,47.9 20.7,47.9 22,41.2 	"/>
	<path class="st1" d="M20.7,48.3H9.9c-0.1,0-0.2-0.1-0.3-0.2c-0.1-0.1-0.1-0.2,0-0.3l2.6-6.7c0.1-0.1,0.2-0.2,0.3-0.2H22
		c0.1,0,0.2,0,0.3,0.1c0.1,0.1,0.1,0.2,0.1,0.3L21,48C21,48.2,20.8,48.3,20.7,48.3 M10.4,47.6h10l1.2-6h-8.8L10.4,47.6z"/>
	<polygon class="st0" points="23.6,33.5 15.5,33.5 12.5,41.2 22,41.2 	"/>
	<path class="st1" d="M22,41.6h-9.5c-0.1,0-0.2-0.1-0.3-0.2c-0.1-0.1-0.1-0.2,0-0.3l3-7.7c0.1-0.1,0.2-0.2,0.3-0.2h8
		c0.1,0,0.2,0,0.3,0.1c0.1,0.1,0.1,0.2,0.1,0.3l-1.6,7.7C22.3,41.5,22.2,41.6,22,41.6 M13,40.9h8.7l1.4-7h-7.4L13,40.9z"/>
	<polygon class="st0" points="22,41.2 20.7,47.9 32.9,47.9 33.1,41.2 	"/>
	<path class="st1" d="M32.9,48.3H20.7c-0.1,0-0.2,0-0.3-0.1c-0.1-0.1-0.1-0.2-0.1-0.3l1.4-6.7c0-0.2,0.2-0.3,0.3-0.3h11.1
		c0.1,0,0.2,0,0.3,0.1c0.1,0.1,0.1,0.2,0.1,0.3L33.2,48C33.2,48.1,33.1,48.3,32.9,48.3 M21.1,47.6h11.4l0.2-6H22.3L21.1,47.6z"/>
	<path class="st2" d="M33,44.6c-11.7,0-19.4-6.2-19.7-6.4l1.3-1.6c0.1,0.1,7.4,6,18.3,6c10.8,0,18.4-12.7,18.4-12.9l1.8,1.1
		C52.9,31.3,45,44.6,33,44.6"/>
	<path class="st1" d="M33,45c-11.8,0-19.6-6.2-19.9-6.5c-0.1-0.1-0.2-0.3,0-0.5l1.3-1.6c0.1-0.1,0.3-0.2,0.5,0
		c0.1,0.1,7.3,5.9,18.1,5.9c10.5,0,18.1-12.6,18.1-12.7c0.1-0.2,0.3-0.2,0.5-0.1l1.8,1.1c0.2,0.1,0.2,0.3,0.1,0.5
		C53.2,31.4,45.2,45,33,45 M13.9,38.1c1.5,1.1,8.7,6.1,19.2,6.1c10.9,0,18.5-11.4,19.8-13.4l-1.2-0.7C50.4,32.1,43,42.9,33,42.9
		c-9.9,0-16.8-4.8-18.3-5.8L13.9,38.1z"/>
	<path class="st3" d="M61.1,24.2c0,4.4-8,14.7-8,14.7s-8-10.3-8-14.7c0-4.4,3.6-8,8-8C57.5,16.3,61.1,19.8,61.1,24.2"/>
	<path class="st4" d="M61.1,24.2c0,4.4-8,14.7-8,14.7s-8-10.3-8-14.7c0-4.4,3.6-8,8-8C57.5,16.3,61.1,19.8,61.1,24.2z"/>
	<path class="st1" d="M53.1,39.3c-0.1,0-0.2,0-0.3-0.1c-0.3-0.4-8.1-10.5-8.1-15c0-4.6,3.7-8.3,8.3-8.3c4.6,0,8.3,3.7,8.3,8.3
		c0,4.5-7.7,14.5-8.1,15C53.3,39.3,53.2,39.3,53.1,39.3 M53.1,16.6c-4.2,0-7.6,3.4-7.6,7.6c0,3.8,6.2,12.3,7.6,14.2
		c1.4-1.9,7.6-10.4,7.6-14.2C60.8,20,57.3,16.6,53.1,16.6"/>
	<path class="st0" d="M57,24.8c0,2.1-1.7,3.9-3.9,3.9s-3.9-1.7-3.9-3.9c0-2.1,1.7-3.9,3.9-3.9S57,22.6,57,24.8"/>
	<path class="st1" d="M53.1,29c-2.3,0-4.2-1.9-4.2-4.2c0-2.3,1.9-4.2,4.2-4.2c2.3,0,4.2,1.9,4.2,4.2C57.4,27.1,55.5,29,53.1,29
		 M53.1,21.2c-2,0-3.5,1.6-3.5,3.5c0,1.9,1.6,3.5,3.5,3.5c1.9,0,3.5-1.6,3.5-3.5C56.7,22.8,55.1,21.2,53.1,21.2"/>
</g>
</svg>
