<?xml version="1.0" encoding="UTF-8"?>
<svg width="24px" height="24px" viewBox="0 0 24 24" version="1.1" xmlns="http://www.w3.org/2000/svg" xmlns:xlink="http://www.w3.org/1999/xlink">
    <!-- Generator: Sketch 52.2 (67145) - http://www.bohemiancoding.com/sketch -->
    <title>Artboard</title>
    <desc>Created with Sketch.</desc>
    <g id="Artboard" stroke="none" stroke-width="1" fill="none" fill-rule="evenodd">
        <g id="icon-trash" transform="translate(4.000000, 3.000000)" fill="#FFFFFF" fill-rule="nonzero">
            <path d="M4.5,6 C4.7763672,6 5,6.2236328 5,6.5 L5,14.5 C5,14.7763672 4.7763672,15 4.5,15 C4.2236328,15 4,14.7763672 4,14.5 L4,6.5 C4,6.2236328 4.2236328,6 4.5,6 Z M8,6 C8.2763672,6 8.5,6.2236328 8.5,6.5 L8.5,14.5 C8.5,14.7763672 8.2763672,15 8,15 C7.7236328,15 7.5,14.7763672 7.5,14.5 L7.5,6.5 C7.5,6.2236328 7.7236328,6 8,6 Z M11.5,6 C11.7763672,6 12,6.2236328 12,6.5 L12,14.5 C12,14.7763672 11.7763672,15 11.5,15 C11.2236328,15 11,14.7763672 11,14.5 L11,6.5 C11,6.2236328 11.2236328,6 11.5,6 Z M15,4 L15,14.0244141 C15,16.2148438 13.2177734,17.9970703 11.0268554,17.9970703 L4.9731445,17.9970703 C2.7822266,17.9970703 1,16.2148438 1,14.0244141 L1,4 L0.5,4 C0.2236328,4 0,3.7763672 0,3.5 C0,3.2236328 0.2236328,3 0.5,3 L1.4854736,3 C1.4906006,2.9998169 1.494812,2.9970703 1.5,2.9970703 C1.505188,2.9970703 1.5093994,2.9998169 1.5145264,3 L4,3 L4,1.9975586 C4,0.8959961 4.8959961,0 5.9975586,0 L10.0024414,0 C11.1040039,0 12,0.8959961 12,1.9975586 L12,3 L14.4854736,3 C14.4906006,2.9998169 14.494812,2.9970703 14.5,2.9970703 C14.505188,2.9970703 14.5093994,2.9998169 14.5145264,3 L15.5,3 C15.7763672,3 16,3.2236328 16,3.5 C16,3.7763672 15.7763672,4 15.5,4 L15,4 Z M5,1.9975586 L5,3 L11,3 L11,1.9975586 C11,1.4472656 10.5527344,1 10.0024414,1 L5.9975586,1 C5.4472656,1 5,1.4472656 5,1.9975586 Z M11.0268555,16.9970703 C12.6660156,16.9970703 14,15.6635742 14,14.0244141 L14,4 L2,4 L2,14.0244141 C2,15.6635742 3.3339844,16.9970703 4.9731445,16.9970703 L11.0268555,16.9970703 Z" id="Combined-Shape"></path>
        </g>
    </g>
</svg>