<?xml version="1.0" encoding="UTF-8"?>
<svg width="78px" height="87px" viewBox="0 0 78 87" version="1.1" xmlns="http://www.w3.org/2000/svg" xmlns:xlink="http://www.w3.org/1999/xlink">
    <!-- Generator: Sketch 52.2 (67145) - http://www.bohemiancoding.com/sketch -->
    <title>verificado_2_transparencia</title>
    <desc>Created with Sketch.</desc>
    <g id="Page-1" stroke="none" stroke-width="1" fill="none" fill-rule="evenodd">
        <g id="verificado_2_transparencia" fill="#25BC36">
            <path d="M38.3381536,0.136185569 C39.091298,-0.2021116 40.0708946,0.105662516 40.4042119,0.884000363 C42.187841,4.65359738 46.1672932,6.72153421 49.9839033,7.89667175 C55.805506,9.60341912 62.1639785,9.49658843 67.9117934,7.53802588 C70.4689222,6.61215994 72.9878849,5.32510455 74.8402131,3.29023436 C75.2015188,2.91123979 75.5984463,2.48646064 76.1582158,2.44830682 C77.0640246,2.33638896 77.9469337,3.14524986 77.8629683,4.06602862 C77.8553351,15.0110866 78.0207215,25.9536011 77.9978219,36.8986591 C77.9240341,44.4912685 75.8605202,52.015201 72.2423737,58.6768573 C68.184045,66.2033334 62.2632104,72.6233488 55.4569223,77.7537653 C50.6937928,81.3529419 45.4752145,84.3314832 40.0149176,86.7402607 C39.4373373,87.0276862 38.7605251,87.1116245 38.1702227,86.8114812 C30.765999,83.5862119 23.8045021,79.2722871 17.8124242,73.8391837 C11.6015272,68.2153113 6.45928116,61.3196449 3.33983846,53.5159178 C1.35011237,48.5584653 0.215306953,43.2576284 0.0270208525,37.9160942 C-0.067122198,30.5447769 0.118619496,23.1760033 0.0728201743,15.804686 C0.215306953,11.8087097 0.0753645811,7.80764617 0.159330004,3.81166984 C0.202584919,2.64670666 1.80556118,1.99300461 2.65539304,2.79932193 C3.55102423,3.68703405 4.42375575,4.61289998 5.50003981,5.28695073 C9.59653471,7.97297938 14.5683055,9.01585035 19.4103116,9.10233233 C23.9927882,9.07689645 28.6821299,8.21207662 32.6895705,5.90504255 C34.5673427,4.81384341 36.3255278,3.34873688 37.3280241,1.38508715 C37.5977312,0.927241354 37.8114614,0.354934114 38.3381536,0.136185569 Z M35.1169346,8.09507159 C30.6311455,11.004936 25.2039258,12.1164838 19.919193,12.2182273 C14.0950459,12.2360324 8.10042353,10.9362591 3.25587304,7.57872328 C3.28131711,13.0270882 3.13628592,18.4729095 3.19480728,23.9187309 C3.07776457,27.9121636 3.14646355,31.9055964 3.12356389,35.8990291 C3.07522016,40.3960922 3.76475439,44.8956989 5.1209232,49.1841878 C7.6398859,57.1863149 12.4564479,64.3490579 18.4739699,70.1458944 C24.3998933,75.8969462 31.4631665,80.414358 39.0022437,83.7490016 C50.4902403,78.6694569 61.0113623,70.7487247 67.7998395,60.0554818 C72.2779954,53.0173746 74.8987344,44.7430837 74.8809236,36.3772236 C74.8554795,32.2260884 74.9318117,28.0724097 74.8122246,23.9238181 C74.8631127,18.4805403 74.733348,13.0398061 74.74607,7.59652839 C68.5453507,11.7959917 60.6627785,12.8770165 53.3577867,11.8443199 C48.0068993,11.0303718 42.5058918,8.93699913 39.0022437,4.6307051 C37.9005156,5.98389377 36.5901461,7.1590313 35.1169346,8.09507159 Z" id="Shape" fill-rule="nonzero"></path>
            <path d="M54.4232267,29.5492461 C54.940934,28.8893878 56.0401059,28.796556 56.6215703,29.4212888 C57.205585,30.0234408 57.0831714,31.0395724 56.4634528,31.5714734 C48.3739563,40.1797388 40.28701,48.7905131 32.2000638,57.4012874 C31.6951078,58.0611457 30.6290897,58.2342645 30.0144716,57.6220765 C27.2780183,55.1306724 24.6002216,52.5715262 21.8663186,50.0776131 C21.4251197,49.6661425 20.9150632,49.176894 21.0119739,48.5195447 C20.9890214,47.3829827 22.5778474,46.7632679 23.3735356,47.5711552 C25.9187177,49.8718778 28.4001427,52.2428515 30.9249225,54.5661549 C38.7542902,46.22384 46.5836579,37.8815251 54.4232267,29.5492461 Z" id="Path"></path>
        </g>
    </g>
</svg>