<?xml version="1.0" encoding="UTF-8"?>
<svg width="338px" height="326px" viewBox="0 0 338 326" version="1.1" xmlns="http://www.w3.org/2000/svg" xmlns:xlink="http://www.w3.org/1999/xlink">
    <!-- Generator: Sketch 52.2 (67145) - http://www.bohemiancoding.com/sketch -->
    <title>circle</title>
    <desc>Created with Sketch.</desc>
    <g id="Page-1" stroke="none" stroke-width="1" fill="none" fill-rule="evenodd">
        <g id="circle" fill="#25BC36" fill-rule="nonzero">
            <path d="M160.73,1.46 C169.39,-0.06 178.33,0.24 186.96,1.89 C199.67,3.38 212.18,6.73 223.83,12.06 C230.25,14.99 236.18,18.84 242.24,22.42 C248.18,25.96 254.8,28.05 261,31.05 C280.21,40.16 297.44,53.73 310.07,70.9 C320.85,85.31 327.54,102.45 331.06,120.01 C332.26,133.12 335.2,145.98 337.16,158.99 C337.81,162.85 337.25,166.76 336.51,170.57 C334.75,179.63 335.64,188.89 335.4,198.05 C335.31,202.13 334.17,206.08 333.71,210.12 C333.1,219.79 329.85,229.08 325.97,237.89 C320.05,251.61 310.2,263.24 299.27,273.27 C290.53,281.44 280.11,287.44 270.69,294.74 C255.09,306.54 236.66,314.37 217.56,318.35 C207.4,320.2 197.2,321.8 187.14,324.19 C180.23,325.97 173.05,325.31 166,325.4 C158.71,325.25 151.35,325.84 144.13,324.58 C137.04,323.23 129.86,322.27 122.99,319.99 C114.09,317.48 105.99,312.84 97.17,310.11 C88.93,307.5 80.57,305.12 72.76,301.37 C63.13,296.79 53.53,291.67 45.78,284.23 C37.65,276.83 30.65,268.06 26.2,257.96 C19.58,242.98 16.24,226.69 15.09,210.42 C13.84,204.03 13.79,197.27 10.85,191.32 C5.74,180.15 2.6,168.17 0.73,156.06 C0.35,148.36 0.48,140.64 0.69,132.94 C2.56,120.47 6.18,108.15 12.2,97.01 C17.08,87.64 24.27,79.75 29.55,70.63 C35.08,61.15 41.43,51.99 49.67,44.66 C62.86,33.3 78.55,24.96 95.16,19.85 C102.66,17.62 110.3,15.77 117.49,12.62 C131.25,6.77 145.9,3.18 160.73,1.46 Z M149.29,6.34 C141.63,8.09 133.93,9.87 126.65,12.88 C131.22,12.89 135.72,12.11 140.23,11.45 C148.86,10.65 157.01,7.52 165.42,5.58 C160.04,5.32 154.55,4.99 149.29,6.34 Z M159.69,10.57 C167.61,10.7 175.52,11.2 183.42,11.75 C191.27,13.33 199.38,12.8 207.18,14.66 C212.96,15.58 218.68,16.98 224.54,17.38 C216.78,12.26 207.59,10.02 198.63,8 C191.47,6.97 184.19,7.64 176.98,7.47 C171.05,7.26 165.35,9.08 159.69,10.57 Z M139.25,17.37 C132.24,20.51 125.19,23.69 118.84,28.06 C127.07,26.52 135.4,25.12 143.26,22.12 C149.9,19.58 156.66,17.29 163.61,15.77 C166.32,15.24 169.17,15.44 171.78,14.43 C160.94,14.34 149.43,12.69 139.25,17.37 Z M99.67,24.47 C85.28,31.55 71.83,40.4 58.93,49.89 C49.33,57.52 39.65,65.22 31.81,74.72 C26.96,81.43 23.78,89.36 22.39,97.51 C28.55,91.98 33.72,85.44 40.05,80.08 C58.95,63.73 79.2,48.97 99.99,35.11 C110.81,28.34 121.7,21.62 133.26,16.19 C121.59,15.81 109.91,18.92 99.67,24.47 Z M150.58,23.34 C166.39,23.68 182.21,23.52 198.03,23.6 C203.88,23.53 209.46,25.6 215.28,25.86 C195.72,14.76 171.15,15.37 150.58,23.34 Z M212.67,20.23 C216.78,22.43 220.88,24.65 224.88,27.05 C230.7,30.54 237.29,32.42 243.32,35.5 C251.27,39.19 258.29,44.5 265.21,49.8 C259.57,42.19 252.27,36.04 245.11,29.92 C239.11,24.75 231.12,23.35 223.71,21.36 C220.13,20.31 216.37,20.31 212.67,20.23 Z M56.37,43.37 C50.53,48.3 44.61,53.48 40.83,60.22 C49.01,54.33 56.46,47.48 64.86,41.86 C72.34,36.06 81.01,32.04 88.41,26.14 C76.5,29.07 65.99,36 56.37,43.37 Z M184.68,27.02 C201.27,29.9 216.85,36.7 231.92,44.01 C238.47,47.09 244.39,51.37 251.1,54.14 C245.92,46.97 239,41.35 232.15,35.86 C224.43,30 214.35,29.36 205.13,27.82 C198.41,26.39 191.49,26.35 184.68,27.02 Z M156.46,29.91 C143.69,31.18 131.15,34.49 119.37,39.59 C108.57,44.48 99.31,52.01 89.77,58.91 C81.83,64.91 73.84,70.86 66.23,77.28 C59.18,83.14 56.08,92.05 52.4,100.13 C42.88,123.3 38.65,148.21 35.49,172.91 C35.64,179.89 34.38,187.27 37.38,193.84 C42.03,205.06 46.67,216.46 53.65,226.47 C61.19,236.13 70.07,244.65 79.22,252.77 C92.27,264.28 106.23,274.78 121.04,283.9 C134.2,291.52 148.46,297.95 163.72,299.67 C173.54,301.89 183.55,299.88 193.21,297.89 C205.82,294.72 217.44,288.42 228.04,281.01 C248.92,265.91 267.11,247.35 283.3,227.38 C287.75,221.2 292.67,215.21 295.84,208.24 C298.73,199.61 300.39,190.61 301.89,181.65 C303.79,172.9 303.38,163.89 303.43,155 C303.47,145.77 302.69,136.32 298.94,127.77 C294.21,116.89 288.45,106.5 282.55,96.23 C277.88,88.21 271.4,81.5 264.08,75.86 C254.1,66.1 243.45,56.94 231.65,49.43 C218.49,41.05 203.75,35.36 188.59,31.77 C178.02,29.85 167.19,28.42 156.46,29.91 Z M95.32,45.58 C87.66,49.88 81.13,55.86 75.22,62.29 C83.38,56.68 91.21,50.56 99.86,45.69 C105.96,42.29 111.9,38.6 117.91,35.05 C110.37,38.54 102.47,41.28 95.32,45.58 Z M262.45,36.21 C265.63,41.35 270.43,45.11 274.56,49.43 C280.54,55.48 286.05,61.97 291.45,68.54 C302.2,82.02 312.48,95.96 320.94,111.02 C323.58,115.73 325.81,120.65 328.43,125.36 C328.42,123.2 328.41,121.01 327.87,118.9 C325.59,109.71 323.02,100.53 319.09,91.88 C311.84,76.5 301.35,62.56 288.09,51.87 C280.24,45.68 272.04,39.38 262.45,36.21 Z M241.83,38.87 C245.76,44 250.74,48.17 255.07,52.95 C259.48,57.56 263.03,62.93 267.53,67.47 C272.98,73.04 278.81,78.32 283.41,84.65 C287.7,90.12 290.93,96.29 294.68,102.12 C293.41,97.16 291.42,92.43 289.08,87.9 C283.45,75.94 275.8,64.9 266.45,55.56 C259.08,48.92 251.27,42.33 241.83,38.87 Z M275.83,56.06 C278.91,60.98 282.45,65.57 285.8,70.3 C300.36,91.26 313.01,113.65 322.63,137.31 C325.21,143.36 326.6,149.93 330.16,155.54 C331.91,144.61 328.8,133.69 324.09,123.9 C315.26,104.53 302.45,87.34 289.19,70.82 C285.16,65.53 280.82,60.46 275.83,56.06 Z M54.76,71.72 C44.34,79.88 34.39,88.76 26.08,99.1 C22.41,103.73 18.86,108.76 17.87,114.73 C15.78,121.98 16.58,129.59 15.66,137 C15.49,149.33 15.17,161.69 16.27,173.99 C16.68,180.17 15.55,186.61 17.82,192.54 C21.62,202.97 25.52,213.64 32.58,222.38 C33.11,212.97 31.04,203.77 29.42,194.57 C27.59,186.4 24.51,178.51 23.66,170.13 C21.2,156.91 22.54,143.38 24.54,130.2 C26.8,120.12 31.22,110.54 37.25,102.16 C42.43,95.35 48.08,88.88 52.76,81.69 C55.99,76.59 60.28,72.18 62.81,66.65 C59.93,68.02 57.24,69.73 54.76,71.72 Z M293.04,87.92 C298.78,99.71 301.29,112.76 307.3,124.43 C310.49,131.1 312.07,138.38 313.71,145.55 C315.48,153.36 313.58,161.47 315.21,169.3 C317.43,178.39 316.29,187.8 316.52,197.05 C316.19,204.27 313.88,211.2 312.31,218.21 C316.25,213.63 319.9,208.61 321.78,202.8 C324.8,193.06 326.52,182.99 328.3,172.97 C329.21,167.27 327.15,161.76 325.78,156.32 C321.58,141.46 315.36,127.24 308.33,113.52 C303.39,104.89 299.09,95.85 293.04,87.92 Z M4.28,128.76 C2.86,135.08 3.66,141.59 3.45,148 C3.16,155.24 5.05,162.3 6.59,169.32 C6.85,164.16 6.79,158.97 5.86,153.88 C4.7,146.55 6.37,139.25 7.15,131.99 C8.54,121.96 14.19,113.28 16.74,103.59 C17.89,99.57 19.15,95.55 19.64,91.38 C11.55,102.3 6.8,115.48 4.28,128.76 Z M39.99,118.73 C35.74,133.31 32.25,148.44 32.84,163.71 C34.84,158.61 35.03,153.09 36.25,147.8 C37.63,139.08 39.83,130.51 41.89,121.93 C44.52,111.68 48.55,101.88 51.89,91.86 C46.23,99.95 43.14,109.47 39.99,118.73 Z M29.07,133.04 C26.17,142.23 27.27,152.01 27.61,161.47 C28.97,157.46 29.89,153.3 30.26,149.08 C31.45,135.65 35.55,122.75 38.89,109.76 C34.31,116.89 31.35,124.91 29.07,133.04 Z M13.03,122.59 C8.35,133.49 9.51,145.49 9.54,157.03 C9.55,160.31 10.02,163.59 11.19,166.66 C12.15,158.12 11.13,149.51 11.79,140.95 C12.41,134.85 14,128.75 13.03,122.59 Z M306.51,164.52 C306.39,168.37 306.34,172.23 305.94,176.07 C305.5,181.87 303.4,187.47 303.74,193.36 C307.81,184.28 310.75,174.19 308.61,164.21 C308.08,164.28 307.04,164.44 306.51,164.52 Z M297.28,218.01 C295.16,227.52 291.92,236.74 288.83,245.96 C293.66,241.42 298.59,236.62 301.14,230.36 C304.41,222.38 306.75,213.97 307.73,205.39 C308.65,200.22 309.78,195.01 309.22,189.72 C305.28,199.17 299.09,207.78 297.28,218.01 Z M320.22,219.38 C315.22,234.09 308.74,248.35 300.52,261.54 C297.45,266.5 293.79,271.05 290.64,275.94 C294.12,273.74 297.4,271.23 300.34,268.35 C308.57,260.38 315.85,251.33 321.23,241.18 C328.58,227.11 332.44,211.09 331.34,195.19 C325.79,202.28 322.83,210.88 320.22,219.38 Z M35.38,205.07 C39.54,222.79 48.1,239.36 59.58,253.45 C68.5,263.55 78.37,272.95 89.91,280.01 C85.02,274.93 79.85,270.09 75.25,264.74 C66.2,254.45 58.68,242.96 51.75,231.18 C46.69,222.22 40.09,214.23 35.38,205.07 Z M18.56,207.51 C17.62,216.97 19.88,226.27 21.75,235.47 C25.44,251.97 32.9,267.96 45.2,279.8 C57.34,291.27 72.49,299.72 88.71,303.69 C84.59,299.64 79.74,296.43 75.57,292.44 C57.11,275.16 42.4,254.09 31.34,231.41 C27.26,223.35 23.67,215 18.56,207.51 Z M281.85,233.88 C276.37,240.67 270.22,246.89 264.22,253.21 C255.32,262.01 246.44,270.88 236.48,278.49 C231.25,282.96 225.12,286.22 219.85,290.63 C225.6,289.17 231.06,286.81 236.47,284.41 C248.56,279.12 260.34,272.89 270.89,264.91 C277.29,260.07 281.91,253.26 284.9,245.88 C288.28,237.62 291.91,229.22 292.74,220.25 C288.91,224.63 285.58,229.41 281.85,233.88 Z M288.26,259.25 C284.06,264.68 279.11,269.48 273.84,273.87 C267.81,278.8 262.93,284.98 256.87,289.88 C247.22,298.1 234.84,301.97 224.8,309.63 C232.94,307.84 240.52,304.32 248.14,301.07 C255.93,297.81 263.47,293.97 270.75,289.71 C276.71,286.22 281.35,281.01 286.03,276.03 C299.78,259.99 309.91,240.89 316.05,220.7 C304.41,231.73 298.31,246.97 288.26,259.25 Z M62.7,242.05 C66.45,249.37 71.8,255.68 77.04,261.96 C86.15,272.56 96.82,281.99 109.05,288.83 C118.62,293.5 129.03,296.6 139.59,297.97 C133.09,293.32 125.64,290.28 118.88,286.04 C98.58,273.52 80.18,258.2 62.7,242.05 Z M55.81,265 C61.36,273.6 68.17,281.38 75.54,288.46 C83.44,295.37 91.52,302.32 101,306.98 C107.23,309.59 113.91,311.69 120.73,311.54 C113.35,306.47 105.58,301.97 98.48,296.48 C91.93,291.8 86.2,286.06 79.47,281.64 C75.24,278.82 70.76,276.38 66.74,273.26 C63.13,270.46 59.63,267.52 55.81,265 Z M252.95,280.12 C238.09,287.52 222.77,294.18 206.79,298.72 C218.51,297.6 229.9,294 240.81,289.66 C247.32,286.92 254.28,283.97 258.43,277.92 C256.57,278.57 254.73,279.29 252.95,280.12 Z M94.94,288.93 C101.09,295.02 108.34,299.87 115.68,304.41 C122.9,308.61 130.24,312.91 138.35,315.15 C157.67,318.65 177.49,319.25 197.04,317.48 C206.75,315.78 215.64,311.06 224.02,306.04 C217.77,307.54 211.41,308.48 204.97,308.59 C197.74,309.58 190.39,310.05 183.12,309.18 C175.61,307.96 167.91,308.84 160.48,306.96 C146.96,305.63 133.31,303.64 120.59,298.62 C112.02,295.43 103.45,292.24 94.94,288.93 Z M189.58,304.9 C196.98,305.98 204.55,305.6 211.97,305.01 C222.31,303 233.83,301.37 241.37,293.23 C224.68,299.25 207.32,303.63 189.58,304.9 Z M131.47,319.19 C134.43,319.65 137.44,319.83 140.44,319.6 C137.52,318.74 134.45,318.48 131.47,319.19 Z" id="Shape"></path>
        </g>
    </g>
</svg>