<?xml version="1.0" encoding="UTF-8"?>
<svg width="176px" height="176px" viewBox="0 0 176 176" version="1.1" xmlns="http://www.w3.org/2000/svg" xmlns:xlink="http://www.w3.org/1999/xlink">
    <!-- Generator: Sketch 52.2 (67145) - http://www.bohemiancoding.com/sketch -->
    <title>Group 13</title>
    <desc>Created with Sketch.</desc>
    <g id="Page-1" stroke="none" stroke-width="1" fill="none" fill-rule="evenodd">
        <g id="Group-13" transform="translate(6.000000, 6.000000)">
            <circle id="Oval" stroke="#023B48" stroke-width="11" fill="#FFFFFF" cx="82" cy="82" r="82"></circle>
            <path d="M38.5917969,98.4316406 L32,98.4316406 L32,66.4394531 L38.5917969,66.4394531 L38.5917969,98.4316406 Z M69.8149414,87.7749023 C69.5659167,91.2173024 68.2951775,93.9272362 66.0026855,95.9047852 C63.7101936,97.8823341 60.6889836,98.8710938 56.9389648,98.8710938 C52.8373818,98.8710938 49.6110957,97.4904923 47.2600098,94.729248 C44.9089238,91.9680038 43.7333984,88.1777585 43.7333984,83.3583984 L43.7333984,81.402832 C43.7333984,78.3266448 44.2753852,75.6167109 45.359375,73.2729492 C46.4433648,70.9291875 47.9924216,69.1311098 50.0065918,67.8786621 C52.020762,66.6262144 54.3608265,66 57.0268555,66 C60.7182802,66 63.6918833,66.9887596 65.9477539,68.9663086 C68.2036246,70.9438575 69.5073225,73.7197087 69.8588867,77.2939453 L63.2670898,77.2939453 C63.1059562,75.2285053 62.5310108,73.7307175 61.5422363,72.8005371 C60.5534619,71.8703567 59.04835,71.4052734 57.0268555,71.4052734 C54.8295789,71.4052734 53.1853082,72.1926191 52.0939941,73.767334 C51.0026801,75.3420489 50.442383,77.7846514 50.4130859,81.0952148 L50.4130859,83.512207 C50.4130859,86.9692556 50.9367623,89.4960858 51.9841309,91.0927734 C53.0314994,92.6894611 54.6830942,93.487793 56.9389648,93.487793 C58.9751078,93.487793 60.494868,93.0227097 61.498291,92.0925293 C62.501714,91.1623489 63.0766594,89.7231543 63.2231445,87.7749023 L69.8149414,87.7749023 Z M100.422852,83.1606445 C100.422852,86.3100743 99.8662165,89.0712772 98.7529297,91.4443359 C97.6396429,93.8173947 96.0466412,95.6484311 93.973877,96.9375 C91.9011127,98.2265689 89.5244275,98.8710938 86.84375,98.8710938 C84.1923696,98.8710938 81.8266706,98.2338931 79.746582,96.9594727 C77.6664935,95.6850522 76.0551815,93.8650021 74.9125977,91.4992676 C73.7700138,89.1335331 73.1914063,86.412613 73.1767578,83.3364258 L73.1767578,81.7543945 C73.1767578,78.6049647 73.7443791,75.8327756 74.8796387,73.4377441 C76.0148983,71.0427126 77.6188861,69.2043521 79.6916504,67.9226074 C81.7644147,66.6408627 84.1337757,66 86.7998047,66 C89.4658336,66 91.8351947,66.6408627 93.907959,67.9226074 C95.9807233,69.2043521 97.5847111,71.0427126 98.7199707,73.4377441 C99.8552303,75.8327756 100.422852,78.5976406 100.422852,81.7324219 L100.422852,83.1606445 Z M93.7431641,81.7104492 C93.7431641,78.3559403 93.1425841,75.8071376 91.9414062,74.0639648 C90.7402284,72.3207921 89.0263783,71.4492188 86.7998047,71.4492188 C84.5878796,71.4492188 82.8813537,72.3098058 81.6801758,74.0310059 C80.4789979,75.7522059 79.8710938,78.275374 79.8564453,81.6005859 L79.8564453,83.1606445 C79.8564453,86.4272624 80.4570252,88.9614168 81.6582031,90.7631836 C82.859381,92.5649504 84.5878793,93.4658203 86.84375,93.4658203 C89.0556751,93.4658203 90.7548769,92.5979091 91.9414062,90.8620605 C93.1279356,89.126212 93.7285156,86.5957198 93.7431641,83.2705078 L93.7431641,81.7104492 Z M131.228516,98.4316406 L124.636719,98.4316406 L111.804688,77.3818359 L111.804688,98.4316406 L105.212891,98.4316406 L105.212891,66.4394531 L111.804688,66.4394531 L124.658691,87.5332031 L124.658691,66.4394531 L131.228516,66.4394531 L131.228516,98.4316406 Z" id="ICON" fill="#023B48"></path>
        </g>
    </g>
</svg>